<svg xmlns="http://www.w3.org/2000/svg" viewBox="0 0 47 42"><g fill="none" stroke="currentColor" stroke-linecap="round" stroke-linejoin="round" stroke-miterlimit="10" stroke-width="1.5"><path d="M33.062 5.587h4.143a2.621 2.621 0 0 1 2.623 2.622v3.459M4.066 40.916h-.443A2.621 2.621 0 0 1 1 38.293V8.21a2.621 2.621 0 0 1 2.623-2.622h14.9M44.63 29.594v8.699a2.621 2.621 0 0 1-2.622 2.623H4.589"/><path d="M1 8.209c0 3.458 2.34 3.458 3.786 3.458h37.222a2.621 2.621 0 0 1 2.623 2.623v8.236"/><path d="M35.272 11.672l-3.221-8.87-23.822 8.87"/><path d="M6.155 11.672L27.188 1.327l1.445 2.749M35.499 28.023c0 .87.705 1.57 1.57 1.57h7.36A1.57 1.57 0 0 0 46 28.024v-3.922c0-.87-.705-1.57-1.57-1.57h-7.36c-.871 0-1.571.704-1.571 1.57v3.922z"/><path d="M38.695 26.428a.443.443 0 1 0 0-.886.443.443 0 0 0 0 .886z"/></g></svg>