<svg xmlns="http://www.w3.org/2000/svg" viewBox="0 0 31 28"><g fill="none" stroke="currentColor" stroke-linecap="round" stroke-linejoin="round" stroke-miterlimit="10" stroke-width="2"><path d="M20.063 26.105h7.397c1.553 0 2.526-1.673 1.75-3.01L17.25 2.519c-.777-1.337-2.72-1.337-3.496 0L1.79 23.099c-.776 1.336.194 3.01 1.75 3.01h7.356" opacity=".5"/><path d="M15.5 20.249a1.427 1.427 0 0 1-1.429-1.42v-8.602c0-.782.642-1.42 1.429-1.42s1.429.638 1.429 1.42v8.599a1.43 1.43 0 0 1-1.429 1.423zM15.5 26.486a1.78 1.78 0 0 1-1.781-1.77c0-.973.8-1.769 1.781-1.769.98 0 1.781.796 1.781 1.77 0 .973-.8 1.769-1.781 1.769z"/></g></svg>