<svg xmlns="http://www.w3.org/2000/svg" viewBox="0 0 34 34"><g fill="none" stroke="currentColor" stroke-linecap="round" stroke-linejoin="round" stroke-miterlimit="10"><path d="M28.2382 19.0607C28.9045 14.5306 26.8042 9.84848 22.5929 7.42956C17.0923 4.27555 10.0782 6.17302 6.92419 11.6735C3.77018 17.174 5.66765 24.1882 11.1682 27.3422C15.4121 29.7756 20.2536 29.4388 23.8349 26.5238"/><path d="M32.4279 13.1729L28.3577 19.5171L23.5814 14.1433"/><path d="M16.8787 11.6411V17.4313L12.2437 22.0664"/><path stroke-opacity=".3" d="M33 17.4276C33 26.2632 25.8374 33.4294 16.9982 33.4294C8.15899 33.4294 1 26.2632 1 17.4276C1 8.59201 8.16261 1.42578 17.0018 1.42578C23.1577 1.42578 28.5025 4.90207 31.1786 10.0006"/></g></svg>