<svg xmlns="http://www.w3.org/2000/svg" viewBox="0 0 50 47"><g fill="none" stroke="currentColor" stroke-linecap="round" stroke-linejoin="round" stroke-miterlimit="10" stroke-width="1.5"><path d="M25 12.951H1L25 1M9.369 17.13v18.88M17.023 17.13v18.88M25.146 17.13v13.38M32.653 17.13v18.88M40.37 17.13v18.88M25 12.951h24L25 1.002M17.023 36.01H5.605M44.264 36.01h-11.61M16.907 39.798H1.193M48.608 39.798H33.03M24.969 46.216c4.451 0 8.06-3.456 8.06-7.718 0-4.262-3.609-7.717-8.06-7.717-4.452 0-8.061 3.455-8.061 7.717s3.609 7.718 8.06 7.718z"/><path d="M24.968 42.412l4.093-3.913-4.093-3.92M20.479 38.499h8.582"/></g></svg>