<svg xmlns="http://www.w3.org/2000/svg" viewBox="0 0 50 42"><g fill="none" stroke="currentColor" stroke-linecap="round" stroke-linejoin="round" stroke-miterlimit="10" stroke-width="1.5"><path d="M47.674 22.912v7.274c0 .716-.573 1.294-1.272 1.294H4.695a1.285 1.285 0 0 1-1.272-1.294V1.91c0-.716.573-1.294 1.272-1.294h41.707c.705 0 1.272.583 1.272 1.294v21z"/><path d="M19.014 5.446c-1.37 0-2.566.739-3.237 1.845a3.78 3.78 0 0 0-3.237-1.845c-2.096 0-3.8 1.728-3.8 3.867 0 2.14 1.698 3.868 3.8 3.868 1.37 0 2.566-.739 3.237-1.845a3.78 3.78 0 0 0 3.237 1.845c2.097 0 3.8-1.728 3.8-3.868 0-2.139-1.698-3.867-3.8-3.867zM32.444 10.98h8.38M32.444 7.502h8.38M32.444 14.46h8.38M9.357 23.462h4.318M17.715 23.462h4.345M26.176 23.462h4.27M34.458 23.462h3.51M3.417 27.19L.627 12.588a1.293 1.293 0 0 1 1.01-1.523l1.731-.345M48.007 24.601l1.365 7.14a1.296 1.296 0 0 1-1.01 1.523L7.42 41.367a1.275 1.275 0 0 1-1.496-1.028l-1.709-8.947M10.552 34.648l4.253-.806M18.774 33.092l4.269-.806"/></g></svg>