<svg xmlns="http://www.w3.org/2000/svg" viewBox="0 0 23 23"><g fill="none" stroke="#000" stroke-linecap="round" stroke-linejoin="round" stroke-miterlimit="10"><path d="M18.973 19.0291C18.973 15.1888 15.8163 12.0967 11.8958 12.0967C9.29915 12.0967 7.00798 13.4682 5.78601 15.5379C5.78601 15.5379 4.7168 16.9843 4.7168 18.9044"/><path d="M11.8962 12.0972C14.3004 12.0972 16.2494 10.1881 16.2494 7.83302C16.2494 5.47798 14.3004 3.56885 11.8962 3.56885C9.49198 3.56885 7.54297 5.47798 7.54297 7.83302C7.54297 10.1881 9.49198 12.0972 11.8962 12.0972Z"/><path d="M7.25472 19.0292H1.38118C0.922946 19.0292 0.515625 18.6552 0.515625 18.1814V1.84785C0.515625 1.37405 0.897488 1 1.38118 1H22.6382C23.0965 1 23.5038 1.37405 23.5038 1.84785V18.2063C23.5038 18.6552 23.1219 19.0542 22.6382 19.0542H16.4083" stroke-opacity=".5"/><path opacity=".5" d="M13.6009 19.1042L10.877 20.6253V17.5581L13.6009 19.1042Z"/><path opacity=".5" d="M11.7925 22.4954C13.7468 22.4954 15.3311 20.9435 15.3311 19.0292C15.3311 17.1149 13.7468 15.563 11.7925 15.563C9.83819 15.563 8.25391 17.1149 8.25391 19.0292C8.25391 20.9435 9.83819 22.4954 11.7925 22.4954Z"/></g></svg>