<svg xmlns="http://www.w3.org/2000/svg" viewBox="0 0 22 20"><g fill="none" stroke="currentColor" stroke-linecap="round" stroke-linejoin="round" stroke-miterlimit="10"><path d="M5.46 12.895c.596 0 1.079-.474 1.079-1.059s-.483-1.06-1.079-1.06c-.595 0-1.078.475-1.078 1.06 0 .585.483 1.06 1.078 1.06zM9.632 9.884c.595 0 1.078-.475 1.078-1.06 0-.585-.483-1.059-1.078-1.059-.596 0-1.078.474-1.078 1.06 0 .584.482 1.059 1.078 1.059zM13.561 12.93c.596 0 1.079-.474 1.079-1.059s-.483-1.059-1.079-1.059c-.595 0-1.078.474-1.078 1.06 0 .584.483 1.058 1.078 1.058zM1 11.871l3.382-.036M6.362 11.257l2.375-1.84M12.671 11.274l-2.193-1.795M14.637 7.157h3.58v3.384M14.288 11.086l3.93-3.93"/><path d="M2.384 9.388V3.765c0-1.426 1.188-2.594 2.64-2.594H18.36C19.812 1.171 21 2.34 21 3.765v13.098c0 1.426-1.188 2.594-2.64 2.594H5.024a2.654 2.654 0 0 1-1.961-.863s-.68-.48-.68-2.063v-2.354" opacity=".5"/></g></svg>