<svg xmlns="http://www.w3.org/2000/svg" viewBox="0 0 34 23"><path fill="none" stroke="currentColor" stroke-linecap="round" stroke-linejoin="round" stroke-miterlimit="10" d="M6.68976 1.85365C7.43115 1.85365 6.36184 3.11543 7.71273 7.43187C8.25095 9.14989 9.08145 11.0925 10.5713 12.3863C12.5531 14.1008 12.824 13.1919 12.824 11.595C12.824 9.9982 12.824 5.38236 12.3713 4.17405C11.9187 2.96573 11.0882 2.91226 11.5373 1.94276C11.826 1.31543 14.0644 1.41167 15.9999 1.41167C17.9389 1.41167 18.969 1.19424 18.969 2.7483C18.969 4.30236 18.969 9.13563 18.969 10.2121C18.969 11.2885 19.7104 12.1119 21.4426 9.99464C23.1749 7.88098 24.8216 4.47345 25.2351 3.52177C25.6486 2.57008 25.9765 1.38672 27.6268 1.38672H30.8026C32.0074 1.38672 32.5955 1.99266 31.544 4.17048C31.544 4.17048 28.8494 9.05721 27.9975 10.319C26.5753 12.4327 26.3686 12.6073 28.0795 14.3966C29.3983 15.776 31.0022 18.0002 32.011 19.6612C32.6739 20.7519 32.9163 22.035 31.1448 22.035C28.3005 22.035 30.5674 22.035 27.723 22.035C25.8268 22.035 25.7412 21.2188 24.009 19.1835C22.1769 17.0271 21.3357 16.3606 20.851 16.1075C19.8921 15.6049 18.969 15.5657 18.969 17.5938C18.969 20.9158 19.5856 22.0386 17.1333 22.0386C14.4529 22.0386 9.85135 22.1241 5.81293 17.6544C0.355901 11.6164 0.309564 1.85721 1.92422 1.85721C1.92422 1.85365 5.94837 1.85365 6.68976 1.85365Z"/></svg>