<svg xmlns="http://www.w3.org/2000/svg" viewBox="0 0 30 30"><g fill="none" stroke="currentColor" stroke-linecap="round" stroke-linejoin="round" stroke-miterlimit="10"><path d="M11.11 19.359c-3.108-3.704-3.62-6.65-3.096-8.36.267-.874.511-1.667 1.398-2.385 1.1-.887 1.488-.642 1.957-.171l1.008 2.642c.228.715-.291 1.252-.609 1.57l-.972.976s.639 2.094 2.228 3.692l.43.435c1.592 1.597 3.623 2.056 3.623 2.056l1.352-1.357c.318-.318.698-.897 1.554-.505l2.67 1.15c.469.47.608 1.096-.543 2.25-2.123 2.134-6.835 2.15-11-1.993z"/><path d="M29 15.267c0 7.675-6.204 13.901-13.86 13.901-2.562 0-4.96-.696-7.018-1.912L1 29.362l2.313-6.847a13.885 13.885 0 0 1-2.03-7.248c0-7.68 6.204-13.901 13.86-13.901C22.8 1.366 29 7.588 29 15.266z"/></g></svg>