<svg xmlns="http://www.w3.org/2000/svg" viewBox="0 0 29 29"><g fill="none" stroke="currentColor" stroke-linecap="round" stroke-linejoin="round" stroke-miterlimit="10"><path d="M12.64 12.507c-1.623-3.105-1.067-6.917 1.563-9.52 3.25-3.219 8.529-3.219 11.78 0a8.192 8.192 0 0 1 0 11.663c-2.549 2.523-6.353 3.052-9.435 1.623l-2.234 2.22v3.05h-3.082v3.052H8.149l-1.627 1.612H2.526v-3.55l8.694-8.607 1.466-1.452-.046-.091z"/><path d="M24.137 7.426c.637.63.637 1.649 0 2.28-.638.63-1.666.63-2.303 0l-2.61-2.585a1.599 1.599 0 0 1 0-2.28 1.638 1.638 0 0 1 2.302 0l2.61 2.585z"/><path d="M28.202 16.402c-.845 6.78-6.683 12.028-13.762 12.028-1.85 0-3.62-.361-5.235-1.011M1.635 19.967A13.523 13.523 0 0 1 .575 14.7c0-6.807 5.002-12.454 11.566-13.54" opacity=".5"/></g></svg>