<svg xmlns="http://www.w3.org/2000/svg" viewBox="0 0 32 25"><path fill="none" stroke="currentColor" stroke-linecap="round" stroke-linejoin="round" stroke-miterlimit="10" d="M30.5535 11.9996C30.5535 9.97861 30.443 8.77743 30.2755 6.85624C30.1365 5.26653 29.5555 3.71248 28.9817 3.13505C28.4042 2.55762 28.1476 1.70574 22.0668 1.25663C22.0668 1.25663 19.7215 1 16.6419 1H15.2161C12.133 1 9.79117 1.25663 9.79117 1.25663C3.70682 1.70574 3.45375 2.55762 2.87632 3.13505C2.29889 3.71248 1.72147 5.26653 1.58246 6.85624C1.41494 8.77386 1.30444 9.97861 1.30444 11.9996V13.4253C1.30444 15.4463 1.41494 16.6475 1.58246 18.5687C1.72147 20.1584 2.30246 21.7125 2.87632 22.2899C3.45375 22.8673 3.71038 23.7192 9.79117 24.1683C9.79117 24.1683 12.1365 24.4249 15.2161 24.4249H16.6419C19.725 24.4249 22.0668 24.1683 22.0668 24.1683C28.1512 23.7192 28.4042 22.8673 28.9817 22.2899C29.5591 21.7125 30.1365 20.1584 30.2755 18.5687C30.443 16.6511 30.5535 15.4463 30.5535 13.4253V11.9996Z"/><path fill="none" stroke="currentColor" stroke-linecap="round" stroke-linejoin="round" stroke-miterlimit="10" d="M11.4949 18.5654V6.85645L22.2094 12.7127L11.4949 18.5654Z"/></svg>