<svg xmlns="http://www.w3.org/2000/svg" viewBox="0 0 23 23"><path fill="none" d="M18.5751 21.5193H4.42489C2.56223 21.5193 1 19.9871 1 18.0944V4.42489C1 2.56223 2.53219 1 4.42489 1H18.5751C20.4378 1 22 2.53219 22 4.42489V18.1245C21.97 19.9871 20.4378 21.5193 18.5751 21.5193Z" stroke="currentColor" stroke-miterlimit="10" stroke-linecap="round" stroke-linejoin="round"/><path fill="none" d="M11.4849 16.3819C14.4715 16.3819 16.8926 13.9607 16.8926 10.9741C16.8926 7.98753 14.4715 5.56641 11.4849 5.56641C8.49827 5.56641 6.07715 7.98753 6.07715 10.9741C6.07715 13.9607 8.49827 16.3819 11.4849 16.3819Z" stroke="currentColor" stroke-miterlimit="10" stroke-linecap="round" stroke-linejoin="round"/><path fill="none" d="M17.7639 5.83697C18.0958 5.83697 18.3648 5.56796 18.3648 5.23611C18.3648 4.90427 18.0958 4.63525 17.7639 4.63525C17.4321 4.63525 17.1631 4.90427 17.1631 5.23611C17.1631 5.56796 17.4321 5.83697 17.7639 5.83697Z" stroke="currentColor" stroke-miterlimit="10" stroke-linecap="round" stroke-linejoin="round"/></svg>