<svg xmlns="http://www.w3.org/2000/svg" viewBox="0 0 47 47"><g fill="none" stroke="currentColor" stroke-linecap="round" stroke-linejoin="round" stroke-miterlimit="10"><path d="M41.748 4.962h4.647v41.383H.605V4.962H4.7M11.722 4.962h23.306"/><path d="M17.427 16.677h-4.095v4.637h4.095v-4.637zM25.619 16.677h-4.095v4.637h4.095v-4.637zM33.808 16.677h-4.095v4.637h4.095v-4.637zM41.997 16.677h-4.094v4.637h4.094v-4.637zM9.238 25.952H5.143v4.637h4.095v-4.637zM17.427 25.952h-4.095v4.637h4.095v-4.637zM25.619 25.952h-4.095v4.637h4.095v-4.637zM33.808 25.952h-4.095v4.637h4.095v-4.637zM41.997 25.952h-4.094v4.637h4.094v-4.637zM9.238 35.225H5.143v4.637h4.095v-4.637zM17.427 35.225h-4.095v4.637h4.095v-4.637zM25.619 35.225h-4.095v4.637h4.095v-4.637zM33.808 35.225h-4.095v4.637h4.095v-4.637zM.605 11.194h45.79M41.566 9.117h4.829M11.722 9.117h23.549M.605 9.117H4.7M41.627 7.107h4.768M11.722 7.107H35.15M.605 7.107H4.7M9.543 1.154H7.199v8.11h2.344v-8.11zM39.569 1.154h-2.344v8.11h2.344v-8.11z"/></g></svg>