<svg xmlns="http://www.w3.org/2000/svg" viewBox="0 0 55 60"><g fill="none" stroke="currentColor" stroke-linecap="round" stroke-linejoin="round" stroke-miterlimit="10"><path d="M11.8588 52.5897L12.347 48.0259C12.347 48.0259 -0.402973 35.1284 0.485262 24.307C1.3735 13.4856 6.12644 6.04291 14.8676 2.66416C27.55 -2.24077 38.5911 1.47615 45.5588 8.88941C52.5264 16.3027 48.8235 27.2711 49.1176 28.4562C49.4147 29.6412 55.0382 36.4605 54.5235 37.9425C54.0088 39.4246 50.0059 39.8686 49.8588 40.7596C49.7117 41.6506 51.4911 44.1678 50.897 45.2058C50.3029 46.2438 47.6353 46.2438 47.6353 46.2438C47.6353 46.2438 51.0441 48.1699 50.3029 48.911C49.5617 49.652 48.9676 51.5781 47.4853 51.7281C46.0029 51.878 48.3735 56.6212 46.0029 57.3623C43.6294 58.1033 35.0294 56.4742 35.0294 56.4742L34.8853 57.871L11.8588 52.5897Z"/><path d="M9.85587 52.1309L35.8323 58.0885V59.5588H8.28528L9.85587 52.1309Z"/><path d="M26.4941 36.9194C25.7765 35.9343 24.8441 35.4991 23.647 35.7343C23.0618 35.849 22.5823 36.1548 22.197 36.6077C21.8176 37.0547 21.6147 37.5781 21.5676 38.175C20.3794 38.2015 19.2323 38.0339 18.1088 37.6898C18.3088 36.4989 17.9823 35.5109 16.9618 34.858C15.85 34.1464 14.7529 34.2964 13.7029 35.1109C13.4353 34.8198 13.1618 34.5346 12.9029 34.2317C12.4323 33.6818 12.0294 33.0849 11.6823 32.4497C11.6294 32.3527 11.6206 32.3027 11.7265 32.2291C12.7118 31.5381 13.1059 30.453 12.8 29.2974C12.5294 28.2652 11.5912 27.5095 10.4353 27.3919C10.4118 27.3889 10.3853 27.386 10.3618 27.383C10.2029 26.9596 10.5 24.7247 10.8206 23.9102C12.3118 24.2395 13.3735 23.4338 13.8206 22.631C14.2912 21.7812 14.3529 20.5432 13.4206 19.4934C14.2382 18.6348 15.1765 17.9408 16.2235 17.385C16.9765 18.476 17.9765 18.967 19.2706 18.6053C20.5 18.2613 21.0912 17.3644 21.2147 16.1235C22 16.0353 23.8706 16.3029 24.6765 16.6204C24.4412 17.9496 24.8323 19.0112 26.047 19.6728C26.9647 20.1727 28.1618 20.0698 29.0853 19.2376C29.9353 20.0639 30.6323 20.999 31.1735 22.0517C30.1441 22.7692 29.6912 23.7161 29.9382 24.9453C30.0559 25.5275 30.3676 26.0068 30.8265 26.3862C31.2853 26.7655 31.8176 26.9567 32.4176 26.9978C32.4294 28.1858 32.2618 29.3327 31.9029 30.453C30.6618 30.2413 29.647 30.6001 29 31.6793C28.347 32.7643 28.5147 33.8318 29.2853 34.8257C28.4676 35.6873 27.5353 36.3754 26.4941 36.9194ZM22.6441 32.2556C25.5118 31.5146 27.1 28.7034 26.5059 26.0245C25.8676 23.1368 22.9912 21.3548 20.1323 22.0488C17.2882 22.7398 15.5559 25.5863 16.25 28.4034C16.95 31.2382 19.8059 32.9584 22.6441 32.2556Z"/><path d="M47.2706 17.3114C47.0147 18.0054 46.6942 18.67 46.2971 19.3022C45.1442 18.7935 44.0736 18.8935 43.1824 19.7815C42.2824 20.6755 42.1853 21.7488 42.6883 22.9044C41.6883 23.522 40.6177 23.9631 39.4736 24.2365C39.0177 23.1073 38.2206 22.4575 37.003 22.3898C36.4089 22.3575 35.8677 22.5369 35.3824 22.8809C34.9059 23.222 34.5794 23.6808 34.3883 24.2483C33.2294 23.9836 32.1589 23.5396 31.153 22.9309C31.6383 21.8252 31.5618 20.7872 30.7324 19.905C29.8294 18.9435 28.7294 18.8199 27.5118 19.3522C27.3236 19.0023 27.1265 18.6612 26.953 18.3053C26.6324 17.6584 26.3853 16.9791 26.2059 16.2793C26.1765 16.1705 26.1824 16.1234 26.3 16.0764C27.4236 15.647 28.0706 14.6913 28.0589 13.4975C28.0471 12.43 27.3265 11.4684 26.2353 11.0715C26.2118 11.0626 26.1883 11.0538 26.1647 11.045C26.1147 10.5951 26.95 8.50138 27.4589 7.78976C28.8236 8.47198 30.053 7.95443 30.6824 7.28398C31.3471 6.57529 31.7089 5.39023 31.0618 4.14342C31.4294 3.91111 31.8089 3.70527 32.2 3.52295M36.8824 18.77C39.8442 18.7523 42.0736 16.4145 42.153 13.6739C42.2412 10.7186 39.8883 8.28378 36.9471 8.26026C34.0206 8.23379 31.6442 10.5686 31.6265 13.471C31.6089 16.3881 33.9559 18.7553 36.8824 18.77Z"/></g></svg>