<svg xmlns="http://www.w3.org/2000/svg" viewBox="0 0 32 33"><g fill="none" stroke="currentColor" stroke-linecap="round" stroke-linejoin="round" stroke-miterlimit="10"><path d="M15.762 13.734a3.907 3.907 0 1 0 0-7.815 3.907 3.907 0 0 0 0 7.815z"/><path d="M15.762 27.773S7.406 18.257 7.406 9.575C7.402 4.003 11.454 1 15.762 1"/><path d="M9.537 22.924C8.216 22.924 1 24.3 1 27.05c0 3.11 8.959 4.56 14.646 4.56" opacity=".5"/><path d="M15.762 27.773s8.356-9.516 8.356-18.198C24.118 4.003 20.066 1 15.762 1"/><path d="M21.986 22.924c1.322 0 8.538 1.375 8.538 4.126 0 3.11-8.959 4.56-14.646 4.56" opacity=".5"/></g></svg>