<svg xmlns="http://www.w3.org/2000/svg" viewBox="0 0 58 58"><g fill="none" stroke="currentColor" stroke-linecap="round" stroke-linejoin="round" stroke-miterlimit="10"><path d="M15.296 53.14C6.738 48.376.956 39.28.956 28.84.955 13.465 13.501 1 28.977 1 44.453 1 57 13.465 57 28.839c0 10.347-5.681 19.375-14.115 24.176"/><path d="M12.846 44.286l9.695 9.632s4.934 4.553 11.236 1.575c4.605-2.172 5.303-6.392 5.303-7.517v-7.112s-.182-2.205-2.22-2.205c-2.039 0-2.039 2.205-2.039 2.205v-2.386s0-2.295-2.31-2.295-2.31 2.476-2.31 2.476v2.205-2.205s-.045-2.476-2.177-2.476c-2.06 0-2.06 2.656-2.06 2.656v2.251-11.479s-.09-2.306-2.322-2.306c-2.23 0-2.23 2.306-2.23 2.306v16.564l-5.237-5.197s-1.893-1.43-3.33 0c-1.436 1.43 0 3.308 0 3.308z"/><path d="M18.686 31.102a6.136 6.136 0 0 1-1.217-3.677c0-3.417 2.789-6.187 6.228-6.187 3.44 0 6.228 2.77 6.228 6.187a6.147 6.147 0 0 1-1.39 3.898M33.263 22.89h13.278M33.263 26.437h7.693M33.263 30.076h14.652M7.804 16.339h42.583M4.692 22.89h5.22M3.409 26.437h4.395M3.409 30.076h7.876M29.695 3.787c.148.53.228 1.089.228 1.667 0 3.417-2.789 6.188-6.228 6.188a6.224 6.224 0 0 1-6.003-4.534M33.126 6.639h4.945M33.126 10.277h9.157"/></g></svg>