<svg xmlns="http://www.w3.org/2000/svg" viewBox="0 0 27 27"><path fill="none" stroke="currentColor" stroke-linecap="round" stroke-linejoin="round" stroke-miterlimit="10" d="M21.0815 0.773926H5.72264C3.0066 0.773926 0.803833 2.9767 0.803833 5.69274V21.0515C0.803833 23.7676 3.0066 25.9704 5.72264 25.9704H13.7282V15.3807H11.5896V12.269H13.7282C13.7282 12.269 13.5179 9.73115 14.4981 7.77432C15.4783 5.82105 17.5492 4.97987 19.2636 4.94422C20.9816 4.90858 22.0652 5.32917 22.0652 5.32917L21.5413 8.55492C21.5413 8.55492 19.6985 7.95254 18.7183 8.86858C17.5278 9.99135 17.9306 12.269 17.9306 12.269H20.6644V15.3807H17.9306V25.9739H21.0779C23.7939 25.9739 25.9967 23.7712 25.9967 21.0551V5.69274C26.0038 2.9767 23.8011 0.773926 21.0815 0.773926Z"/></svg>