<svg xmlns="http://www.w3.org/2000/svg" viewBox="0 0 38 37"><g fill="none" stroke="#fff" stroke-linecap="round" stroke-linejoin="round" stroke-miterlimit="10" stroke-width="2"><path d="M29.9037 29.8238C29.9037 23.6842 24.9602 18.7407 18.8207 18.7407C14.7542 18.7407 11.1662 20.9334 9.25254 24.2424C9.25254 24.2424 7.57812 26.5547 7.57812 29.6244"/><path d="M18.8212 18.7408C22.5863 18.7408 25.6385 15.6886 25.6385 11.9235C25.6385 8.1584 22.5863 5.1062 18.8212 5.1062C15.0561 5.1062 12.0039 8.1584 12.0039 11.9235C12.0039 15.6886 15.0561 18.7408 18.8212 18.7408Z"/><path d="M13.1196 29.8239H2.35548C1.63787 29.8239 1 29.2259 1 28.4684V2.35548C1 1.59801 1.59801 1 2.35548 1H35.6445C36.3621 1 37 1.59801 37 2.35548V28.5083C37 29.2259 36.402 29.8638 35.6445 29.8638H24.3223"/><path d="M21.4923 29.9434L17.2266 32.3753V27.4717L21.4923 29.9434Z"/><path d="M18.6607 35.3653C21.7212 35.3653 24.2022 32.8843 24.2022 29.8238C24.2022 26.7633 21.7212 24.2822 18.6607 24.2822C15.6002 24.2822 13.1191 26.7633 13.1191 29.8238C13.1191 32.8843 15.6002 35.3653 18.6607 35.3653Z"/></g></svg>