<svg xmlns="http://www.w3.org/2000/svg" viewBox="0 0 168 35"><path fill="#52B0D8" fill-rule="evenodd" d="M163.803 7.39h1.582V4.166h-1.582c-.406 0-.742.151-1.011.451-.269.3-.401.69-.401 1.16 0 .486.132.872.392 1.168.26.3.602.447 1.02.447zm4.141-5.44v11.98h-2.559V9.554h-.977l-1.881 4.378h-2.853l2.192-4.751a3.301 3.301 0 0 1-1.514-1.364 3.98 3.98 0 0 1-.538-2.036c0-1.051.359-1.954 1.071-2.701.712-.751 1.647-1.125 2.794-1.125h4.265V1.95zm-15.027 6.983h2.124l-.61-2.267c-.14-.487-.29-1.164-.452-2.037a29.292 29.292 0 0 1-.452 2.037l-.61 2.267zm-3.95 4.998l3.532-11.981h2.96l3.532 11.98h-2.593l-.785-2.887h-3.272l-.784 2.888h-2.59zm-10.122 0V1.95h2.56v4.803h3.621V1.95h2.559v11.98h-2.559V8.916h-3.621v5.016h-2.56zm-12.988-2.163h1.045c.533-.673.981-1.997 1.339-3.969a35.15 35.15 0 0 0 .576-5.85h7.435v9.82h1.22v4.129l-2.333.356V13.93h-6.944v1.967l-2.334.356v-4.486h-.004zm3.813 0h4.023V4.112h-2.577a37.066 37.066 0 0 1-.558 4.564c-.282 1.507-.576 2.536-.888 3.092zm-9.388.178c1.403 0 2.107-.973 2.107-2.922V6.86c0-1.95-.704-2.922-2.107-2.922-1.39 0-2.09.977-2.09 2.922v2.163c0 1.95.695 2.922 2.09 2.922zm-4.649-2.727V6.683c0-1.585.439-2.805 1.313-3.67.875-.863 1.988-1.293 3.336-1.293 1.356 0 2.474.43 3.353 1.294.874.864 1.313 2.084 1.313 3.67v2.535c0 1.594-.439 2.818-1.313 3.67-.875.85-1.992 1.276-3.353 1.276-1.348 0-2.457-.43-3.336-1.285-.874-.86-1.313-2.08-1.313-3.66zm-6.671-1.828h1.548c.405 0 .734-.148.985-.443.248-.295.376-.686.376-1.168 0-.486-.124-.873-.376-1.168-.247-.296-.576-.443-.985-.443h-1.548V7.39zm-2.56 6.54V1.95h4.197c1.148 0 2.082.373 2.794 1.125.713.75 1.071 1.65 1.071 2.7 0 1.051-.354 1.946-1.062 2.675-.708.734-1.642 1.1-2.803 1.1h-1.637v4.376h-2.56v.005zm-7.456-4.998h2.124l-.61-2.267c-.14-.487-.29-1.164-.452-2.037a29.58 29.58 0 0 1-.452 2.037l-.61 2.267zm-3.95 4.998L98.528 1.95h2.96l3.532 11.98h-2.593l-.785-2.887H98.37l-.785 2.888h-2.589zm-10.117 0V1.95h2.559v4.803h3.621V1.95h2.56v11.98h-2.56V8.916h-3.621v5.016h-2.56zm-8.902 0l-.278-2.163h2.56c.29 0 .511-.108.67-.326.157-.217.276-.564.358-1.037l.068-.426h-.87c-1.915 0-3.046-1.112-3.396-3.33l-.75-4.7h2.542l.73 4.521c.14.908.481 1.364 1.027 1.364h1.096l1.028-5.884h2.56l-1.514 8.633c-.384 2.232-1.515 3.348-3.396 3.348h-2.435zm-13.932-2.163h1.046c.533-.673.98-1.997 1.339-3.969a35.29 35.29 0 0 0 .576-5.85h7.434v9.82h1.22v4.129l-2.333.356V13.93h-6.944v1.967l-2.333.356v-4.486h-.005zm3.814 0h4.022V4.112h-2.576a37.144 37.144 0 0 1-.559 4.564c-.277 1.507-.576 2.536-.887 3.092zm-10.135 2.163h-2.56V9.27l-.955-.373-2.017 5.033H47.18l2.683-5.989c-.648-.356-1.092-.985-1.322-1.897L47.496 1.95h2.542l.87 3.278c.094.33.222.587.393.773.166.183.43.335.793.452l1.08.373V1.95h2.559v4.872l1.079-.373c.358-.118.623-.27.793-.452.167-.182.299-.439.393-.773l.87-3.278h2.542L60.365 6.04c-.243.921-.691 1.555-1.34 1.898l2.7 5.988h-3.01l-2.04-5.033-.938.374v4.664h-.013zm-16.767 0V1.95h7.033v2.215h-4.479v2.657h3.763l-.107 2.128h-3.656v2.766h4.633v2.215h-7.188zm-14.84 0L25.37 1.95h2.909l2.018 5.797c.094.274.23.786.418 1.542.128-.578.268-1.095.418-1.542L33.15 1.95h2.91l1.253 11.98h-2.542L34.27 7.8a66.445 66.445 0 0 1-.124-2.285 22.245 22.245 0 0 1-.627 2.267l-1.446 4.13h-2.717l-1.446-4.13a22.95 22.95 0 0 1-.644-2.284c-.021.933-.06 1.702-.102 2.305l-.504 6.128h-2.542z" clip-rule="evenodd"/><path fill="#00789F" fill-rule="evenodd" d="M165.795 30.336V20.023h2.201v10.313h-2.201zm-4.406-4.637h-1.336v2.774h1.336c.349 0 .631-.126.848-.382.214-.252.325-.59.325-1.007 0-.417-.107-.752-.325-1.008-.217-.256-.499-.378-.848-.378zm-3.537 4.637V20.023h2.201v3.813h1.408c.998 0 1.804.317 2.414.946.61.63.913 1.398.913 2.306 0 .903-.303 1.672-.913 2.302-.61.63-1.412.946-2.414.946h-3.609zm-10.851.152l-.107-1.863c.389-.07.7-.173.93-.312.231-.14.452-.374.666-.708.213-.335.375-.812.477-1.433.107-.621.188-1.429.248-2.419s.089-2.236.089-3.73h6.608v10.313h-2.201v-8.454h-2.308c0 1.09-.034 2.053-.107 2.896a21.412 21.412 0 0 1-.268 2.158c-.111.595-.269 1.103-.474 1.52a4.921 4.921 0 0 1-.631 1.007 2.228 2.228 0 0 1-.823.604 4.273 4.273 0 0 1-.969.304 8.611 8.611 0 0 1-1.13.117zm-5.473-4.455h1.83l-.524-1.954a18.668 18.668 0 0 1-.388-1.755 25.835 25.835 0 0 1-.389 1.755l-.529 1.954zm-3.403 4.303l3.041-10.313h2.546l3.042 10.313h-2.231l-.674-2.488h-2.815l-.674 2.488h-2.235zm-4.061-4.594h-1.485v2.731h1.485c.35 0 .631-.126.844-.382.214-.252.325-.59.325-1.007 0-.417-.107-.747-.316-.986-.209-.235-.495-.356-.853-.356zm-1.485-3.86v2.001h1.557c.998 0 1.805.309 2.415.93.61.62.912 1.376.912 2.275 0 .903-.302 1.672-.912 2.302-.61.63-1.412.946-2.415.946h-3.762V20.023h6.143v1.863h-3.938v-.005zm-7.016 3.86h-1.485v2.731h1.485c.35 0 .631-.126.844-.382.214-.252.325-.59.325-1.007 0-.417-.107-.747-.316-.986-.209-.235-.495-.356-.853-.356zm-1.485-3.86v2.001h1.557c.998 0 1.805.309 2.415.93.61.62.912 1.376.912 2.275 0 .903-.302 1.672-.912 2.302-.61.63-1.412.946-2.415.946h-3.762V20.023h6.142v1.863h-3.937v-.005zm-8.62 4.15h1.83l-.525-1.953a18.995 18.995 0 0 1-.388-1.755 25.21 25.21 0 0 1-.388 1.755l-.529 1.954zm-3.4 4.304l3.042-10.313h2.546l3.041 10.313h-2.231l-.673-2.488h-2.816l-.674 2.488h-2.235zm-8.322 0V20.023h2.201v4.195l1.156-.365c.312-.1.538-.23.683-.39.145-.157.256-.379.337-.665l.75-2.775h2.189l-.9 3.478c-.209.795-.593 1.338-1.152 1.633l2.623 5.202h-2.593l-2.052-4.394-1.032.382v4.012h-2.21zm-8.8-5.632h1.366V21.93h-1.365c-.35 0-.64.13-.87.391-.23.26-.346.59-.346.999 0 .417.11.751.337 1.007.226.252.52.378.879.378zm3.567-4.681v10.313h-2.201v-3.769h-.84l-1.617 3.77h-2.457l1.89-4.087a2.86 2.86 0 0 1-1.306-1.177 3.39 3.39 0 0 1-.465-1.754c0-.903.307-1.68.922-2.328.614-.647 1.416-.968 2.405-.968h3.669zm-8.455 0v10.313h-2.2v-4.394c0-.547.02-1.09.06-1.616l-3.733 6.01h-1.8V20.023h2.2v4.468c0 .47-.016.99-.046 1.572l3.732-6.04h1.787zM69.604 30.336l1.08-10.313h2.503l1.736 4.99c.081.234.2.677.358 1.328.111-.5.23-.942.359-1.329l1.74-4.99h2.504l1.079 10.314h-2.188l-.435-5.276a62.114 62.114 0 0 1-.107-1.967c-.18.782-.358 1.433-.537 1.954l-1.246 3.557h-2.337l-1.246-3.557a19.104 19.104 0 0 1-.554-1.967 43.627 43.627 0 0 1-.09 1.985l-.435 5.276h-2.184v-.005zm-7.298 0V20.023h6.053v1.906h-3.852v2.289h3.237l-.09 1.832h-3.147v2.38h3.984v1.906h-6.185zm-11.184-1.863h.9c.46-.577.844-1.72 1.156-3.417a30.04 30.04 0 0 0 .495-5.033h6.398v8.45h1.049v3.552l-2.01.304v-1.997h-5.98v1.693l-2.008.304v-3.856zm3.284 0h3.464v-6.591h-2.218a32.81 32.81 0 0 1-.478 3.93c-.248 1.298-.5 2.184-.768 2.661zm-8.804-2.44h1.83l-.525-1.954a19.022 19.022 0 0 1-.388-1.755 25.39 25.39 0 0 1-.388 1.755l-.529 1.954zm-3.4 4.303l3.042-10.313h2.546l3.042 10.313H48.6l-.674-2.488h-2.815l-.674 2.488h-2.235zm-8.321 0V20.023h2.2v4.195l1.157-.365c.311-.1.537-.23.682-.39.145-.157.256-.379.337-.665l.75-2.775h2.189l-.9 3.478c-.21.795-.593 1.338-1.152 1.633l2.623 5.202h-2.593l-2.052-4.394-1.032.382v4.012h-2.21zm-6.416-4.303h1.83l-.524-1.954a19.022 19.022 0 0 1-.389-1.755 25.39 25.39 0 0 1-.388 1.755l-.529 1.954zm-3.4 4.303l3.042-10.313h2.547l3.04 10.313h-2.23l-.674-2.488h-2.815l-.674 2.488h-2.235z" clip-rule="evenodd"/><path fill="#017BA1" fill-rule="evenodd" d="M17.032 17.5c-.124-.253-3.899-.409-5.473-.426.026-1.446-.255-2.158-.153-3.014.179-.247.371-.317.67-.504 1.3-.803 1.497-.86 2.401-1.142.853-.152 2.227-.347 3.16-.13.103.022.133-.095.026-.135-.34-.121-1.429-.386-1.787-.39-.025-.118.085-.222.32-.352.392-.217.926-.53 1.365-.621.077-.017.124-.109-.009-.109-.226 0-.81.026-1.382.226-.622.217-1.258.565-1.736.76-1.258.178-2.79.643-2.79.552 0-.092 1.387-1.95 2.39-1.985.046 0 .35-.074.72-.174 1.195-.325 2.423-.655 3.681-.564.12.009.12-.135 0-.143-.814-.074-1.748-.079-2.448.021a1.352 1.352 0 0 1-.828-.152c-.123-.425.163-.681.406-1.003.418-.543.985-1.276 1.228-1.633.102-.152-.06-.247-.158-.1-.729 1.078-1.493 1.594-2.41 2.432-.298.274-2.9 1.85-2.9 1.347 0-.517.2-.969.226-1.277.043-.49.273-.421.478-.63.204-.213 1.727-1.763 1.595-1.893-.034-.04-.068-.013-.107.022-.196.178-1.424 1.35-1.83 1.18-.05-.308.24-.72.414-.98.115-.17.252-.283.393-.483.115-.16.23-.404.422-.616.58-.643 1.16-1.503 1.42-1.59.047-.017.162-.139-.038-.1-.307.057-1.075 1.043-1.403 1.108.02-.356.174-.76.26-1.116.085-.348.162-.669.175-1.338 0-.104-.12-.19-.128-.004-.017.413-.24 1.116-.448 1.615-.12.287-.192.521-.286.817-.072.217-.14.512-.247.708-.29.53-.329.482-.636.842a4.635 4.635 0 0 0-.529.812c-.051.1-.397.942-.473.873-.047-.04-.244-.235-.55-1.524-.077-.317-.184-.721-.24-1.038-.102-.59.073-.526.376-.986.337-.508.896-1.39.951-1.793.09-.652-.03-2.059-.081-2.784A.092.092 0 0 0 10.941 0a.092.092 0 0 0-.085.1c.055.782-.047 1.776-.21 2.554a2.816 2.816 0 0 1-.37.894c-.154.248-.282.413-.61.539-.632-.17-.768-.53-1.033-1.12a8.918 8.918 0 0 1-.477-1.351c-.056-.222-.145-.378-.184-.5-.03-.086-.179-.121-.128.03.039.114.081.292.137.513.14.56.396 2.189.682 2.792.124.257.18.409.14.712-.076.643-.234 1.585-.413 1.924-.303-.113-.733-.82-.823-.999-.14-.282-.388-.573-.555-.898-.132-.257.022-.413.06-.674.09-.573.137-1.823.12-2.392.017-.174-.009-.343.012-.53.013-.122-.128-.148-.14-.026-.039.343-.133.908-.273 1.229-.086-.23-.197-.326-.256-.56-.167-.63-.516-1.164-.828-1.46C5.665.739 5.617.73 5.584.76c-.035.035-.022.087.025.13.695 1.117 1.19 2.576.708 3.231-1.203.46-2.683-1.411-3.105-2.47-.056-.14-.162-.105-.132.117.076.608.52 1.628.998 1.936.226.148.341.304.32.36-.077.244-1.596.07-2.052.031-.047-.004-.12-.017-.162 0-.017.013-.047.035-.073.061a.43.43 0 0 0 .039.065c.047.065.132.061.205.074 1.002.165 1.957.39 2.405.39.384-.004.61.062.934.24 1.037.569 2.095 1.984 1.8 3.278-.601.087-1.595-.421-2.243-.83-.222-.143-.444-.264-.546-.412-.188-.273-.26-.603-.277-.998 0-.122-.116-.126-.116 0 0 .178 0 .317.009.43.013.256.051.177.026.42-.141.014-.363-.03-.504-.065-.311-.078-.951-.204-1.224-.204-.136 0-.188.126-.038.126.277 0 .767.13 1.109.24.213.069.337.134.405.134.188 0 .47.256.827.52.627.47 1.613 1.095 2.308 1.816.218.226.209.304-.132.456-.435.195-1.182.174-1.745.122-.849-.074-1.68-.878-2.184-1.52-.187-.24-.443-.478-.507-.626-.047-.113-.158-.056-.111.057.068.165.23.43.422.677.132.174.503.565.52.752-.183.039-.243-.03-.405-.11-.537-.307-1.13-.403-1.45-.429-.12-.013-.132.104-.017.126 1.13.23 1.958.903 2.785 1.511-.473.812-2.043.582-2.576.639-.12.012-.107.147.013.147.038 0 .115.005.23.013.606.04 1.335.113 1.94.057.538-.053.363.017.7.043.679.048 1.212.274 1.664.49.61.296 1.083.674 1.147.813.064.139.15.421.175.764.094 1.264-.217 2.996-.128 3.717-1.254 0-5.78.16-5.907.421h15.368zm-.819-8.764c-.188-.799.896-1.368 1.502-.877l.046.04-.042.043c-.069.073-.12.178-.167.265-.302.564-.674.799-1.31.568l-.029-.008v-.03zm-.482 3.809c.427-.03.836.2 1.105.52.136.161.183.357.209.56.013.11.021.327.072.418l.034.06-.064.022c-.435.144-.93-.056-1.232-.386-.256-.283-.418-.843-.162-1.173l.017-.017.021-.004zm-11.935-.682c-.034.078-.034.187-.047.273-.05.365-.243.648-.588.782-.346.135-1.097.096-1.263-.286l-.021-.04.038-.026c.252-.19.388-.577.631-.69.393-.182.794-.156 1.208-.083l.068.013-.026.057zM2.15 8.298c-.009.108-.226.113-.307.052-.278-.213-.414-.13-.696-.018-.413.165-.7.079-.942-.303a.674.674 0 0 0-.167-.183L0 7.816l.021-.044c.53-.99 2.231-.673 2.129.526zm1.928-3.144c-.103.156-.196.321-.312.469-.345.447-.58.425-1.092.417-.162-.005-.392-.013-.55.013l-.072.013.008-.074c.094-1.025 1.207-1.112 1.984-.93l.076.018-.042.074zm9.508-1.668c-.035-.225 0-.451.098-.655.315-.647 1.33-1.069 1.906-.548l.047.044-.047.043c-.106.092-.2.335-.273.465-.307.556-1.092.864-1.689.7l-.034-.01-.008-.039zm.174 1.998c-.072-.899.866-1.303 1.579-.925.209.108.362.282.469.495l.021.043-.038.03a.73.73 0 0 0-.103.096c-.285.335-.767.413-1.16.252-.183-.074-.311-.048-.473.074-.077.056-.286.04-.295-.065zm-2.256-3.917a.764.764 0 0 1 .085-.617c.086-.139.218-.252.354-.334.218-.13.696-.278.926-.126l.03.017-.004.035c-.077.808-.56 1.199-1.348 1.064l-.035-.004-.008-.035zm-4.06 3.765c-.154-.569.264-1.134.882-.973l.039.009v.043c.025.59-.27.982-.875.96h-.042l-.005-.04zM1.19 3.412c.145-.121.235-.256.367-.373.26-.243.627-.117.913 0 .149.06.217-.026.34.004l.035.01.009.034c.03.17-.026.369-.124.504-.15.212-.393.29-.644.282a1.387 1.387 0 0 1-.9-.378l-.043-.043.047-.04zm13.466 4.764c-.64-.317-.443-1.45.218-1.637l.055-.017.013.06c.021.1.115.235.153.352.128.4.026 1.064-.396 1.242l-.026.009-.017-.009zM.79 10.148c.196-.304.46-.543.836-.517.26.017.465.143.708.226.077.026.265.07.333.008.145-.134.277.013.256.187-.068.473-.572.8-1.011.803-.43.005-.832-.343-1.113-.634l-.03-.034.021-.04zm3.391-8.55c0-.048.026-.066.068-.07.337-.044.64.039.858.313.051.06.09.13.128.2.094.177.149.364.217.55.03.079.094.257.18.287.196.066.294.209.085.34-.478.303-1.301-.036-1.493-.565-.098-.265-.081-.591-.051-.873.008-.061.012-.122.008-.183zm8.783.89c-.141.225-.333.416-.61.425-.188.009-.337-.06-.512-.1-.055-.013-.183-.026-.226.018-.111.108-.23.017-.21-.13.048-.344.415-.604.735-.643.307-.035.597.165.814.36l.039.03-.03.04zm-1.241 2.084c-.316-.495-.086-1.16.55-1.199l.042-.004.013.04c.2.555.039 1.015-.546 1.185l-.038.013-.021-.035zM4.393 8.489c.61-.2 1.387.221 1.391.933v.048l-.047.009c-.79.121-1.25-.087-1.382-.925l-.008-.048.046-.017zm.892-2.927c.414.135.827.373.93.834.047.204.03.378-.03.577-.038.13-.098.278-.098.413v.078l-.073-.026c-.746-.256-1.092-1.116-.797-1.846l.021-.047.047.017zm8.56 2.727c-.08.096-.123.334-.217.473-.294.435-1.028.76-1.51.474l-.021-.013-.004-.026c-.162-.851 1.117-1.425 1.744-.995l.051.035-.042.052zm-3.6-2.21c-.072-.46.103-.89.491-1.142.376-.24.883-.26 1.254.004l.06.043-.056.048c-.102.091-.2.335-.272.465-.184.334-.47.564-.84.643-.205.043-.393.021-.598-.018l-.038-.008v-.035zm-1.82-4.75c.89-.457 2.094.273 1.944 1.298l-.008.052-.051-.005c-.188-.017-.384.057-.576.022-.397-.074-.734-.248-.977-.582-.17-.234-.235-.46-.358-.712l-.026-.052.051-.022zm-1.848.047C6.19.937 6.317.243 6.94.104l.043-.01.02.04c.282.517.193.999-.357 1.255l-.039.017-.03-.03z" clip-rule="evenodd"/><path fill="#52B0D8" fill-rule="evenodd" d="M17.032 17.5c-.124.252-4.219.412-5.473.43.026 1.446-.255 2.158-.153 3.013.18.248.371.317.67.504 1.3.803 1.497.86 2.401 1.142.853.152 2.227.348 3.16.13.103-.021.133.096.026.135-.34.122-1.429.387-1.787.39-.025.118.085.222.32.353.392.221.926.53 1.365.62.077.018.124.11-.009.11-.226 0-.81-.027-1.381-.227-.623-.217-1.259-.564-1.737-.76-1.258-.178-2.79-.647-2.79-.555 0 .09 1.387 1.95 2.39 1.984.046 0 .35.074.72.174 1.195.325 2.423.655 3.681.564.12-.008.12.135 0 .144-.814.073-1.748.078-2.448-.026a1.351 1.351 0 0 0-.828.152c-.123.425.163.681.406 1.003.418.543.985 1.276 1.228 1.632.103.152-.06.248-.158.1-.729-1.077-1.493-1.593-2.41-2.431-.298-.274-2.9-1.85-2.9-1.347 0 .517.2.969.226 1.277.043.49.273.421.478.63.204.213 1.727 1.763 1.595 1.893-.034.04-.068.013-.107-.022-.196-.178-1.424-1.35-1.83-1.18-.05.308.24.72.414.98.115.17.252.283.393.487.115.16.23.404.422.617.58.642 1.16 1.498 1.42 1.589.047.017.162.139-.038.1-.307-.057-1.075-1.043-1.403-1.108.02.357.175.76.26 1.116.085.348.162.67.175 1.338 0 .104-.12.191-.128.004-.017-.412-.24-1.116-.448-1.615-.12-.287-.192-.521-.286-.817-.072-.217-.14-.512-.247-.707-.29-.53-.329-.482-.636-.843a4.627 4.627 0 0 1-.529-.812c-.051-.1-.396-.942-.473-.873-.047.04-.243.235-.55 1.524-.077.317-.184.721-.24 1.038-.102.591.073.526.376.986.337.508.896 1.39.951 1.794.094.655-.025 2.058-.077 2.787a.092.092 0 1 1-.183-.013c.055-.781-.047-1.776-.21-2.553a2.775 2.775 0 0 0-.37-.895c-.154-.247-.282-.416-.61-.538-.631.17-.768.53-1.032 1.12-.21.47-.389.99-.478 1.35-.056.222-.145.379-.184.5-.03.091-.179.122-.127-.03.038-.113.08-.295.136-.513.14-.56.397-2.188.683-2.792.123-.256.179-.408.14-.712-.077-.643-.234-1.585-.413-1.92-.303.114-.734.821-.824.995-.14.282-.388.573-.554.903-.132.257.021.413.06.673.09.574.136 1.824.119 2.393.017.174-.009.343.013.53.013.121-.128.148-.141.026-.038-.339-.132-.908-.273-1.233-.085.23-.196.325-.256.56-.166.63-.516 1.164-.827 1.459-.043.039-.09.052-.124.017-.034-.034-.022-.087.025-.13.696-1.116 1.19-2.575.708-3.23-1.202-.461-2.682 1.41-3.105 2.47-.055.14-.162.109-.132-.117.077-.608.52-1.629.998-1.937.226-.148.341-.304.32-.365-.077-.243-1.595-.07-2.052-.03-.047.004-.12.013-.162 0a.274.274 0 0 1-.08-.056.435.435 0 0 1 .038-.066c.046-.065.132-.06.204-.073 1.003-.165 1.958-.391 2.406-.391.384.004.61-.061.934-.24 1.037-.564 2.095-1.984 1.8-3.278-.601-.086-1.595.422-2.243.83-.222.143-.444.265-.546.412-.188.274-.26.604-.278 1 0 .12-.115.125-.115 0 0-.179 0-.318.009-.43.013-.257.05-.179.025-.422-.14-.013-.362.03-.503.065-.311.078-.951.204-1.224.204-.137 0-.188-.126-.039-.126.278 0 .768-.13 1.11-.239.213-.07.336-.134.405-.134.187 0 .469-.256.827-.521.627-.47 1.612-1.095 2.308-1.815.217-.226.209-.304-.132-.456-.436-.196-1.182-.174-1.745-.122-.849.074-1.68.877-2.184 1.52-.188.239-.444.478-.508.625-.046.113-.157.057-.11-.056.068-.165.23-.43.422-.678.132-.173.503-.564.52-.75-.183-.04-.243.034-.405.108-.537.308-1.13.404-1.45.43-.12.013-.132-.105-.017-.126 1.13-.23 1.958-.904 2.785-1.512-.473-.812-2.043-.581-2.576-.638-.12-.013-.107-.147.012-.147.039 0 .116-.005.23-.014.607-.039 1.336-.113 1.942-.056.537.048.362-.017.7-.043.677-.048 1.21-.274 1.663-.491.61-.295 1.083-.673 1.147-.812.064-.14.15-.421.175-.764.094-1.264-.218-2.997-.128-3.718-.742 0-5.788-.169-5.916-.434h15.381v.009z" clip-rule="evenodd"/></svg>