<svg xmlns="http://www.w3.org/2000/svg" viewBox="0 0 397 166.3"><path fill="#FFF" d="M139.2,39.4c1.4,0.4,2.5,1.2,3.2,2.2c0.8,1,1.2,2.3,1.2,3.8c0,2.1-0.8,3.8-2.5,4.9c-1.6,1.1-4,1.7-7.2,1.7	h-12.5V27.8h11.8c2.9,0,5.2,0.6,6.8,1.7c1.6,1.1,2.4,2.7,2.4,4.6c0,1.2-0.3,2.2-0.9,3.1C141,38.1,140.3,38.8,139.2,39.4L139.2,39.4z M127.1,32v5.7h5.6c1.4,0,2.4-0.2,3.1-0.7s1.1-1.2,1.1-2.1c0-0.9-0.4-1.6-1.1-2.1c-0.7-0.5-1.8-0.7-3.1-0.7	C132.6,32,127.1,32,127.1,32z M133.6,47.7c1.5,0,2.6-0.2,3.3-0.7c0.8-0.5,1.1-1.2,1.1-2.2c0-2-1.5-3-4.5-3h-6.5v6H133.6z M168.3,27.8v24.2h-4.6l-12-14.7v14.7h-5.5V27.8h4.6l12,14.7V27.8H168.3z M191,47.4v4.5h-18.7V27.8h18.3v4.5h-12.7v5.2h11.2v4.3	h-11.2v5.6C177.9,47.4,191,47.4,191,47.4z M193.8,27.8h5.6v24.2h-5.6V27.8z M229.1,39.4c1.4,0.4,2.5,1.2,3.2,2.2	c0.8,1,1.2,2.3,1.2,3.8c0,2.1-0.8,3.8-2.5,4.9c-1.6,1.1-4,1.7-7.2,1.7h-12.5V27.8h11.8c2.9,0,5.2,0.6,6.8,1.7	c1.6,1.1,2.4,2.7,2.4,4.6c0,1.2-0.3,2.2-0.9,3.1C230.9,38.1,230.2,38.8,229.1,39.4z M217,32v5.7h5.6c1.4,0,2.4-0.2,3.1-0.7	c0.7-0.5,1.1-1.2,1.1-2.1c0-0.9-0.4-1.6-1.1-2.1c-0.7-0.5-1.8-0.7-3.1-0.7C222.5,32,217,32,217,32z M223.5,47.7	c1.5,0,2.6-0.2,3.3-0.7c0.8-0.5,1.1-1.2,1.1-2.2c0-2-1.5-3-4.5-3H217v6H223.5z M252,46.7h-11.2l-2.1,5.2h-5.7l10.8-24.2h5.5	L260,51.9h-5.9L252,46.7z M250.2,42.5l-3.8-9.2l-3.8,9.2H250.2z M276.2,51.9l-4.7-6.7h-5.1v6.7h-5.6V27.8h10.5c2.1,0,4,0.4,5.6,1.1	c1.6,0.7,2.8,1.7,3.7,3c0.9,1.3,1.3,2.9,1.3,4.7c0,1.8-0.4,3.3-1.3,4.7c-0.9,1.3-2.1,2.3-3.7,3l5.4,7.8H276.2L276.2,51.9z M276.1,36.5c0-1.4-0.4-2.4-1.3-3.1c-0.9-0.7-2.2-1.1-3.8-1.1h-4.6v8.4h4.6c1.7,0,3-0.4,3.8-1.1C275.6,38.9,276.1,37.9,276.1,36.5z M295.2,52.3c-3.5,0-6.1-1-8.1-2.9c-1.9-1.9-2.9-4.6-2.9-8.2V27.8h5.6v13.3c0,4.3,1.8,6.5,5.4,6.5c1.7,0,3.1-0.5,4-1.6	c0.9-1.1,1.4-2.7,1.4-4.9V27.8h5.5v13.5c0,3.5-1,6.3-2.9,8.2C301.3,51.4,298.6,52.3,295.2,52.3z M321.5,52.3c-2.5,0-4.7-0.5-6.7-1.6	c-2-1.1-3.5-2.6-4.7-4.5c-1.1-1.9-1.7-4.1-1.7-6.5s0.6-4.5,1.7-6.4c1.1-1.9,2.8-3.4,4.7-4.5c2-1.1,4.2-1.6,6.7-1.6	c2.1,0,4,0.4,5.7,1.1c1.7,0.7,3.1,1.8,4.3,3.2l-3.6,3.3c-1.6-1.9-3.7-2.8-6.1-2.8c-1.5,0-2.8,0.3-4,1c-1.2,0.6-2.1,1.6-2.8,2.7	c-0.6,1.2-1,2.5-1,4c0,1.5,0.3,2.8,1,4c0.6,1.2,1.6,2.1,2.8,2.8c1.2,0.6,2.5,1,4,1c2.4,0,4.4-1,6.1-2.9l3.6,3.3	c-1.1,1.4-2.6,2.5-4.3,3.2C325.4,52,323.6,52.3,321.5,52.3L321.5,52.3z M355.6,27.8v24.2H350V42h-11v9.9h-5.6V27.8h5.6v9.5h11v-9.5	H355.6z M130.3,83.4l-3.2,3.4v6.1h-5.6V68.7h5.6V80l10.7-11.3h6.2l-10,10.8l10.6,13.4H138L130.3,83.4z M160.2,87.7h-11.2l-2.1,5.2	h-5.7l10.8-24.2h5.5l10.8,24.2h-5.9L160.2,87.7z M158.4,83.5l-3.8-9.2l-3.8,9.2C150.7,83.5,158.4,83.5,158.4,83.5z M186.7,80.3	c1.4,0.4,2.5,1.2,3.2,2.2c0.8,1,1.2,2.3,1.2,3.8c0,2.1-0.8,3.8-2.5,4.9c-1.6,1.1-4,1.7-7.2,1.7H169V68.7h11.8c2.9,0,5.2,0.6,6.8,1.7	c1.6,1.1,2.4,2.7,2.4,4.6c0,1.2-0.3,2.2-0.9,3.1C188.5,79.1,187.7,79.8,186.7,80.3z M174.5,73v5.7h5.6c1.4,0,2.4-0.2,3.1-0.7	c0.7-0.5,1.1-1.2,1.1-2.1c0-0.9-0.4-1.6-1.1-2.1c-0.7-0.5-1.8-0.7-3.1-0.7H174.5z M181,88.7c1.5,0,2.6-0.2,3.3-0.7	c0.8-0.5,1.1-1.2,1.1-2.2c0-2-1.5-3-4.5-3h-6.5v6C174.5,88.7,181,88.7,181,88.7z M211.4,80.3c1.4,0.4,2.5,1.2,3.2,2.2	c0.8,1,1.2,2.3,1.2,3.8c0,2.1-0.8,3.8-2.5,4.9c-1.6,1.1-4,1.7-7.2,1.7h-12.5V68.7h11.8c2.9,0,5.2,0.6,6.8,1.7	c1.6,1.1,2.4,2.7,2.4,4.6c0,1.2-0.3,2.2-0.9,3.1C213.2,79.1,212.4,79.8,211.4,80.3L211.4,80.3z M199.2,73v5.7h5.6	c1.4,0,2.4-0.2,3.1-0.7c0.7-0.5,1.1-1.2,1.1-2.1c0-0.9-0.4-1.6-1.1-2.1c-0.7-0.5-1.8-0.7-3.1-0.7H199.2z M205.7,88.7	c1.5,0,2.6-0.2,3.3-0.7c0.8-0.5,1.1-1.2,1.1-2.2c0-2-1.5-3-4.5-3h-6.5v6C199.2,88.7,205.7,88.7,205.7,88.7z M234.2,87.7H223	l-2.1,5.2h-5.7l10.8-24.2h5.5l10.8,24.2h-5.9L234.2,87.7L234.2,87.7z M232.4,83.5l-3.8-9.2l-3.8,9.2	C224.8,83.5,232.4,83.5,232.4,83.5z M243,68.7h5.6v19.6h12.1v4.6H243V68.7z M278.2,87.7H267l-2.1,5.2h-5.7l10.8-24.2h5.5l10.8,24.2	h-5.9L278.2,87.7z M276.4,83.5l-3.8-9.2l-3.8,9.2C268.8,83.5,276.4,83.5,276.4,83.5z M309.1,68.7v24.2h-5.6V83h-11v9.9H287V68.7h5.6	v9.5h11v-9.5H309.1z M321.2,68.7h5.6v19.6h12.1v4.6h-17.7V68.7z M339.1,68.7h4.6l-0.4,9.8h-3.9L339.1,68.7z M361,87.7h-11.2	l-2.1,5.2h-5.7l10.8-24.2h5.5L369,92.9h-5.9L361,87.7z M359.2,83.5l-3.8-9.2l-3.8,9.2C351.6,83.5,359.2,83.5,359.2,83.5z M391.8,92.9l0-14.5l-7.1,11.9h-2.5L375,78.7v14.2h-5.2V68.7h4.6l9,15l8.9-15h4.6l0.1,24.2H391.8L391.8,92.9z M137.4,128.7h-11.2	l-2.1,5.2h-5.7l10.8-24.2h5.5l10.8,24.2h-5.9C139.6,133.9,137.4,128.7,137.4,128.7z M135.7,124.5l-3.8-9.2l-3.8,9.2	C128,124.5,135.7,124.5,135.7,124.5z M154.1,134.3c-1.9,0-3.8-0.3-5.6-0.8c-1.8-0.5-3.2-1.2-4.3-2l1.9-4.2c1,0.8,2.3,1.4,3.7,1.8	c1.4,0.5,2.8,0.7,4.3,0.7c1.6,0,2.8-0.2,3.5-0.7c0.8-0.5,1.1-1.1,1.1-1.9c0-0.6-0.2-1-0.7-1.4c-0.4-0.4-1-0.7-1.7-0.9	c-0.7-0.2-1.6-0.5-2.8-0.8c-1.8-0.4-3.3-0.9-4.5-1.3c-1.2-0.4-2.2-1.2-3-2.1c-0.8-1-1.2-2.3-1.2-3.9c0-1.4,0.4-2.7,1.1-3.8	c0.8-1.2,1.9-2.1,3.4-2.7c1.5-0.7,3.4-1,5.6-1c1.5,0,3,0.2,4.5,0.6c1.5,0.4,2.8,0.9,3.9,1.6l-1.7,4.2c-2.2-1.3-4.5-1.9-6.7-1.9	c-1.6,0-2.7,0.3-3.5,0.8c-0.7,0.5-1.1,1.2-1.1,2c0,0.8,0.4,1.4,1.3,1.9c0.9,0.4,2.2,0.8,4,1.2c1.8,0.4,3.3,0.9,4.5,1.3	c1.2,0.4,2.2,1.1,3,2.1c0.9,0.9,1.3,2.2,1.3,3.8c0,1.4-0.4,2.7-1.2,3.8c-0.8,1.1-1.9,2-3.5,2.7C158.2,134,156.4,134.3,154.1,134.3z M174.4,134.3c-1.9,0-3.8-0.3-5.6-0.8c-1.8-0.5-3.2-1.2-4.3-2l1.9-4.2c1,0.8,2.3,1.4,3.7,1.8c1.4,0.5,2.9,0.7,4.3,0.7	c1.6,0,2.8-0.2,3.5-0.7c0.8-0.5,1.1-1.1,1.1-1.9c0-0.6-0.2-1-0.7-1.4c-0.4-0.4-1-0.7-1.7-0.9c-0.7-0.2-1.6-0.5-2.8-0.8	c-1.8-0.4-3.3-0.9-4.5-1.3c-1.2-0.4-2.2-1.2-3-2.1c-0.8-1-1.2-2.3-1.2-3.9c0-1.4,0.4-2.7,1.1-3.8c0.8-1.2,1.9-2.1,3.4-2.7	c1.5-0.7,3.4-1,5.6-1c1.5,0,3,0.2,4.5,0.6c1.5,0.4,2.8,0.9,3.9,1.6l-1.7,4.2c-2.2-1.3-4.5-1.9-6.7-1.9c-1.6,0-2.7,0.3-3.5,0.8	c-0.7,0.5-1.1,1.2-1.1,2c0,0.8,0.4,1.4,1.3,1.9c0.9,0.4,2.2,0.8,4,1.2c1.8,0.4,3.3,0.9,4.5,1.3c1.2,0.4,2.2,1.1,3,2.1	c0.9,0.9,1.3,2.2,1.3,3.8c0,1.4-0.4,2.6-1.2,3.8c-0.8,1.1-1.9,2-3.5,2.7C178.5,134,176.6,134.3,174.4,134.3z M198.5,134.3	c-2.5,0-4.8-0.5-6.8-1.6c-2-1.1-3.6-2.6-4.7-4.5c-1.1-1.9-1.7-4.1-1.7-6.4c0-2.4,0.6-4.5,1.7-6.4c1.1-1.9,2.7-3.4,4.7-4.5	c2-1.1,4.3-1.6,6.8-1.6c2.5,0,4.8,0.5,6.8,1.6c2,1.1,3.6,2.6,4.7,4.5c1.1,1.9,1.7,4,1.7,6.4c0,2.4-0.6,4.5-1.7,6.4	c-1.2,1.9-2.7,3.4-4.7,4.5C203.2,133.8,201,134.3,198.5,134.3z M198.5,129.5c1.4,0,2.7-0.3,3.9-1c1.1-0.7,2.1-1.6,2.7-2.8	c0.7-1.2,1-2.5,1-4c0-1.5-0.3-2.8-1-4c-0.6-1.1-1.6-2.1-2.7-2.7c-1.2-0.7-2.4-1-3.9-1c-1.4,0-2.7,0.3-3.9,1	c-1.1,0.6-2.1,1.6-2.7,2.7c-0.6,1.2-1,2.5-1,4c0,1.5,0.3,2.8,1,4c0.6,1.1,1.6,2.1,2.7,2.8C195.8,129.2,197,129.5,198.5,129.5z M225.7,134.3c-2.5,0-4.7-0.5-6.7-1.6c-2-1.1-3.5-2.6-4.7-4.5c-1.1-1.9-1.7-4.1-1.7-6.5c0-2.4,0.6-4.5,1.7-6.4	c1.1-1.9,2.8-3.4,4.7-4.5c2-1.1,4.2-1.6,6.7-1.6c2.1,0,4,0.4,5.7,1.1c1.7,0.7,3.1,1.8,4.3,3.2l-3.6,3.3c-1.6-1.9-3.7-2.8-6.1-2.8	c-1.5,0-2.8,0.3-4,1c-1.2,0.6-2.1,1.6-2.8,2.7c-0.6,1.2-1,2.5-1,4c0,1.5,0.3,2.8,1,4c0.7,1.2,1.6,2.1,2.8,2.8c1.2,0.6,2.5,1,4,1	c2.4,0,4.4-1,6.1-2.9l3.6,3.3c-1.1,1.4-2.6,2.5-4.3,3.2C229.7,133.9,227.8,134.3,225.7,134.3L225.7,134.3z M237.8,109.7h5.6v24.2	h-5.6C237.8,133.9,237.8,109.7,237.8,109.7z M263.3,128.7h-11.2l-2.1,5.2h-5.7l10.8-24.2h5.5l10.8,24.2h-5.9L263.3,128.7	L263.3,128.7z M261.5,124.5l-3.8-9.2l-3.8,9.2H261.5z M275.8,114.3h-7.7v-4.6h21.1v4.6h-7.7v19.6h-5.6V114.3L275.8,114.3z M290.5,109.7h5.6v24.2h-5.6C290.5,133.9,290.5,109.7,290.5,109.7z M311.8,134.3c-2.5,0-4.8-0.5-6.8-1.6c-2-1.1-3.6-2.6-4.7-4.5	c-1.1-1.9-1.7-4.1-1.7-6.4c0-2.4,0.6-4.5,1.7-6.4c1.1-1.9,2.7-3.4,4.7-4.5c2-1.1,4.3-1.6,6.8-1.6c2.5,0,4.8,0.5,6.8,1.6	c2,1.1,3.6,2.6,4.7,4.5c1.1,1.9,1.7,4,1.7,6.4c0,2.4-0.6,4.5-1.7,6.4c-1.2,1.9-2.7,3.4-4.7,4.5C316.5,133.8,314.3,134.3,311.8,134.3	z M311.8,129.5c1.4,0,2.7-0.3,3.9-1c1.1-0.7,2.1-1.6,2.7-2.8c0.7-1.2,1-2.5,1-4c0-1.5-0.3-2.8-1-4c-0.6-1.1-1.6-2.1-2.7-2.7	c-1.2-0.7-2.4-1-3.9-1c-1.4,0-2.7,0.3-3.9,1c-1.1,0.6-2.1,1.6-2.7,2.7c-0.6,1.2-1,2.5-1,4c0,1.5,0.3,2.8,1,4	c0.6,1.1,1.6,2.1,2.7,2.8C309,129.2,310.3,129.5,311.8,129.5z M349.6,109.7v24.2H345l-12-14.7v14.7h-5.5v-24.2h4.6l12,14.7v-14.7	C344.1,109.7,349.6,109.7,349.6,109.7z"/><path fill="#FFF" d="M82.3,83.1c-0.6-1.2-18.9-1.9-26.5-2c0.1-6.9-1.2-10.3-0.7-14.3c0.9-1.2,1.8-1.5,3.2-2.4	c6.3-3.8,7.2-4.1,11.6-5.4c4.1-0.7,10.8-1.7,15.3-0.6c0.5,0.1,0.6-0.5,0.1-0.6c-1.7-0.6-6.9-1.8-8.6-1.8c-0.1-0.6,0.4-1,1.5-1.7	c1.9-1,4.5-2.5,6.6-2.9c0.4-0.1,0.6-0.5,0-0.5c-1.1,0-3.9,0.1-6.7,1.1c-3,1-6.1,2.7-8.4,3.6c-6.1,0.8-13.5,3.1-13.5,2.6	c0-0.4,6.7-9.3,11.5-9.4c0.2,0,1.7-0.3,3.5-0.8c5.8-1.6,11.7-3.1,17.8-2.7c0.6,0,0.6-0.6,0-0.7c-3.9-0.3-8.4-0.4-11.8,0.1	c-1.2,0.2-2.6,0-4-0.7c-0.6-2,0.8-3.2,2-4.8c2-2.6,4.8-6.1,5.9-7.8c0.5-0.7-0.3-1.2-0.8-0.5c-3.5,5.1-7.2,7.6-11.6,11.6	c-1.4,1.3-14,8.8-14,6.4c0-2.5,1-4.6,1.1-6.1c0.2-2.3,1.3-2,2.3-3c1-1,8.4-8.4,7.7-9c-0.2-0.2-0.3-0.1-0.5,0.1	c-0.9,0.8-6.9,6.4-8.8,5.6c-0.2-1.5,1.2-3.4,2-4.7c0.6-0.8,1.2-1.3,1.9-2.3c0.5-0.8,1.1-1.9,2-2.9c2.8-3,5.6-7.1,6.9-7.6	c0.2-0.1,0.8-0.7-0.2-0.5c-1.5,0.3-5.2,5-6.8,5.3c0.1-1.7,0.8-3.6,1.3-5.3c0.4-1.7,0.8-3.2,0.8-6.3c0-0.5-0.6-0.9-0.6,0	c-0.1,2-1.2,5.3-2.2,7.7c-0.6,1.4-0.9,2.5-1.4,3.9c-0.3,1-0.7,2.4-1.2,3.4c-1.4,2.5-1.6,2.3-3.1,4c-0.9,1-1.8,2.5-2.6,3.9	c-0.2,0.5-1.9,4.5-2.3,4.1c-0.2-0.2-1.2-1.1-2.7-7.2c-0.4-1.5-0.9-3.4-1.2-4.9c-0.5-2.8,0.3-2.5,1.8-4.7c1.6-2.4,4.3-6.6,4.6-8.5	c0.5-3.1-0.1-9.8-0.4-13.2c0-0.2-0.2-0.4-0.5-0.4c0,0,0,0,0,0c-0.2,0-0.4,0.2-0.4,0.5c0,0,0,0,0,0c0.3,3.7-0.2,8.4-1,12.1	c-0.3,1.5-1,2.9-1.8,4.2c-0.7,1.2-1.4,2-2.9,2.5c-3-0.8-3.7-2.5-5-5.3c-1-2.2-1.9-4.7-2.3-6.4c-0.3-1-0.7-1.8-0.9-2.4	c-0.1-0.4-0.9-0.6-0.6,0.2c0.2,0.5,0.4,1.4,0.7,2.4c0.7,2.7,1.9,10.4,3.3,13.3c0.6,1.2,0.9,1.9,0.7,3.4c-0.4,3.1-1.1,7.5-2,9.1	c-1.5-0.5-3.5-3.9-4-4.7c-0.7-1.3-1.9-2.7-2.7-4.3c-0.6-1.2,0.1-2,0.3-3.2c0.4-2.7,0.7-8.7,0.6-11.4c0.1-0.8,0-1.6,0.1-2.5	c0.1-0.6-0.6-0.7-0.7-0.1c-0.2,1.6-0.6,4.3-1.3,5.8c-0.4-1.1-0.9-1.6-1.2-2.7c-0.8-3-2.5-5.5-4-6.9c-0.2-0.2-0.4-0.2-0.6-0.1	c-0.2,0.2-0.1,0.4,0.1,0.6c3.4,5.3,5.7,12.2,3.4,15.3c-5.8,2.2-13-6.7-15-11.7c-0.3-0.7-0.8-0.5-0.6,0.6c0.4,2.9,2.5,7.7,4.8,9.2	c1.1,0.7,1.6,1.4,1.5,1.7c-0.4,1.2-7.7,0.3-9.9,0.1c-0.2,0-0.6-0.1-0.8,0c-0.1,0.1-0.3,0.2-0.4,0.3c0.1,0.1,0.1,0.2,0.2,0.3	c0.2,0.3,0.6,0.3,1,0.3c4.9,0.8,9.5,1.9,11.6,1.9c1.9,0,3,0.3,4.5,1.1c5,2.7,10.1,9.4,8.7,15.6c-2.9,0.4-7.7-2-10.9-3.9	c-1.1-0.7-2.1-1.3-2.6-2c-0.9-1.3-1.3-2.9-1.3-4.7c0-0.6-0.6-0.6-0.6,0c0,0.8,0,1.5,0,2c0.1,1.2,0.3,0.8,0.1,2	c-0.7,0.1-1.7-0.1-2.4-0.3c-1.5-0.4-4.6-1-5.9-1c-0.7,0-0.9,0.6-0.2,0.6c1.3,0,3.7,0.6,5.4,1.1c1,0.3,1.6,0.6,2,0.6	c0.9,0,2.3,1.2,4,2.5c3,2.2,7.8,5.2,11.2,8.6c1.1,1.1,1,1.4-0.6,2.2c-2.1,0.9-5.7,0.8-8.4,0.6c-4.1-0.4-8.1-4.2-10.6-7.2	c-0.9-1.1-2.1-2.3-2.5-3c-0.2-0.5-0.8-0.3-0.5,0.3c0.3,0.8,1.1,2.1,2,3.2c0.6,0.8,2.4,2.7,2.5,3.6c-0.9,0.2-1.2-0.2-2-0.5	c-2.6-1.5-5.5-1.9-7-2c-0.6-0.1-0.6,0.5-0.1,0.6c5.5,1.1,9.5,4.3,13.5,7.2c-2.3,3.9-9.9,2.8-12.5,3c-0.6,0.1-0.5,0.7,0.1,0.7	c0.2,0,0.6,0,1.1,0.1c2.9,0.2,6.5,0.5,9.4,0.3c2.6-0.2,1.8,0.1,3.4,0.2c3.3,0.2,5.9,1.3,8,2.3c2.9,1.4,5.2,3.2,5.6,3.8	c0.3,0.7,0.7,2,0.8,3.6c0.5,6-1,14.2-0.6,17.6c-6.1,0.1-28,0.8-28.6,2.1L82.3,83.1L82.3,83.1L82.3,83.1z M78.4,41.5	c-0.9-3.8,4.3-6.5,7.3-4.2l0.2,0.2l-0.2,0.2c-0.3,0.4-0.6,0.8-0.8,1.3c-1.5,2.7-3.3,3.8-6.3,2.7l-0.1,0	C78.4,41.6,78.4,41.5,78.4,41.5z M76,59.6c2.1-0.2,4,0.9,5.3,2.5c0.7,0.8,0.9,1.7,1,2.7c0.1,0.5,0.1,1.6,0.3,2l0.2,0.3l-0.3,0.1	c-2.1,0.7-4.5-0.3-6-1.8c-1.2-1.3-2-4-0.8-5.6l0.1-0.1L76,59.6L76,59.6z M18.4,56.4c-0.2,0.4-0.2,0.9-0.2,1.3	c-0.3,1.7-1.2,3.1-2.8,3.7C13.6,62,10,61.8,9.2,60l-0.1-0.2l0.2-0.1c1.2-0.9,1.9-2.8,3.1-3.3c1.9-0.9,3.8-0.8,5.8-0.4l0.3,0.1	C18.5,56,18.4,56.4,18.4,56.4z M10.4,39.4c0,0.5-1.1,0.5-1.5,0.2c-1.3-1-2-0.6-3.4-0.1c-2,0.8-3.4,0.4-4.6-1.4	c-0.2-0.3-0.5-0.6-0.8-0.9L0,37.1l0.1-0.2C2.7,32.2,10.9,33.7,10.4,39.4L10.4,39.4z M19.7,24.5c-0.5,0.8-0.9,1.5-1.5,2.2	c-1.7,2.1-2.8,2-5.3,2c-0.8,0-1.9-0.1-2.7,0.1l-0.3,0.1l0-0.4c0.5-4.9,5.8-5.3,9.6-4.4l0.4,0.1L19.7,24.5L19.7,24.5z M65.7,16.6	c-0.2-1.1,0-2.1,0.5-3.1c1.5-3.1,6.4-5.1,9.2-2.6l0.2,0.2l-0.2,0.2c-0.5,0.4-1,1.6-1.3,2.2c-1.5,2.6-5.3,4.1-8.2,3.3l-0.2,0	C65.7,16.7,65.7,16.6,65.7,16.6z M66.5,26.1c-0.3-4.3,4.2-6.2,7.6-4.4c1,0.5,1.7,1.4,2.3,2.4l0.1,0.2l-0.2,0.1	c-0.2,0.1-0.3,0.3-0.5,0.5c-1.4,1.6-3.7,2-5.6,1.2c-0.9-0.4-1.5-0.2-2.3,0.3C67.6,26.6,66.5,26.6,66.5,26.1z M55.6,7.5	c-0.3-1-0.2-2,0.4-2.9c0.4-0.7,1-1.2,1.7-1.6c1.1-0.6,3.4-1.3,4.5-0.6l0.1,0.1l0,0.2c-0.4,3.8-2.7,5.7-6.5,5.1l-0.2,0	C55.6,7.6,55.6,7.5,55.6,7.5z M36,25.3c-0.7-2.7,1.3-5.4,4.3-4.6l0.2,0.1l0,0.2c0.1,2.8-1.3,4.7-4.2,4.6l-0.2,0L36,25.3L36,25.3z M5.8,16.2c0.7-0.6,1.1-1.2,1.8-1.8c1.3-1.1,3-0.5,4.4,0c0.7,0.3,1.1-0.1,1.6,0l0.2,0l0,0.2c0.2,0.8-0.1,1.7-0.6,2.4	c-0.7,1-1.9,1.4-3.1,1.3c-1.5-0.1-3.2-0.7-4.3-1.8l-0.2-0.2C5.5,16.4,5.8,16.2,5.8,16.2z M70.8,38.8c-3.1-1.5-2.2-6.9,1.1-7.8	l0.3-0.1l0.1,0.3c0.1,0.5,0.6,1.1,0.7,1.7c0.6,1.9,0.1,5.1-1.9,5.9l-0.1,0L70.8,38.8z M3.8,48.2c0.9-1.4,2.2-2.6,4-2.5	c1.3,0.1,2.2,0.7,3.4,1.1c0.4,0.1,1.3,0.3,1.6,0c0.7-0.6,1.3,0.1,1.2,0.9c-0.3,2.2-2.7,3.8-4.9,3.8c-2.1,0-4-1.6-5.4-3l-0.2-0.2	C3.7,48.4,3.8,48.2,3.8,48.2z M20.2,7.6c0-0.2,0.1-0.3,0.3-0.3c1.6-0.2,3.1,0.2,4.1,1.5c0.2,0.3,0.4,0.6,0.6,0.9	c0.5,0.8,0.7,1.7,1.1,2.6c0.1,0.4,0.4,1.2,0.9,1.4c0.9,0.3,1.4,1,0.4,1.6c-2.3,1.4-6.3-0.2-7.2-2.7c-0.5-1.3-0.4-2.8-0.2-4.2	C20.2,8.2,20.2,7.9,20.2,7.6z M62.7,11.8c-0.7,1.1-1.6,2-3,2c-0.9,0-1.6-0.3-2.5-0.5c-0.3-0.1-0.9-0.1-1.1,0.1	c-0.5,0.5-1.1,0.1-1-0.6c0.2-1.6,2-2.9,3.5-3.1c1.5-0.2,2.9,0.8,3.9,1.7l0.2,0.2L62.7,11.8L62.7,11.8z M56.7,21.7	c-1.5-2.3-0.4-5.5,2.7-5.7l0.2,0l0.1,0.2c1,2.6,0.2,4.8-2.6,5.6l-0.2,0.1C56.8,21.9,56.7,21.7,56.7,21.7z M21.2,40.3	c3-0.9,6.7,1.1,6.7,4.4V45l-0.2,0c-3.8,0.6-6-0.4-6.7-4.4l0-0.2L21.2,40.3L21.2,40.3z M25.5,26.4c2,0.6,4,1.8,4.5,4	c0.2,1,0.1,1.8-0.1,2.7c-0.2,0.6-0.5,1.3-0.5,2v0.4l-0.4-0.1c-3.6-1.2-5.3-5.3-3.9-8.8l0.1-0.2C25.3,26.3,25.5,26.4,25.5,26.4z M66.9,39.4c-0.4,0.4-0.6,1.6-1.1,2.2c-1.4,2.1-5,3.6-7.3,2.3l-0.1-0.1l0-0.1c-0.8-4,5.4-6.8,8.4-4.7l0.3,0.2	C67.1,39.1,66.9,39.4,66.9,39.4z M49.5,28.9c-0.4-2.2,0.5-4.2,2.4-5.4c1.8-1.1,4.3-1.2,6.1,0l0.3,0.2L58,23.9	c-0.5,0.4-1,1.6-1.3,2.2c-0.9,1.6-2.3,2.7-4.1,3.1c-1,0.2-1.9,0.1-2.9-0.1l-0.2,0C49.6,29.1,49.5,28.9,49.5,28.9z M40.7,6.3	c4.3-2.2,10.1,1.3,9.4,6.2l0,0.3l-0.3,0C48.9,12.6,48,13,47,12.8c-1.9-0.3-3.5-1.2-4.7-2.8c-0.8-1.1-1.1-2.2-1.7-3.4l-0.1-0.2	C40.5,6.4,40.7,6.3,40.7,6.3z M31.8,6.5c-1.9-2.1-1.3-5.4,1.8-6l0.2,0l0.1,0.2c1.4,2.5,0.9,4.7-1.7,6l-0.2,0.1L31.8,6.5L31.8,6.5z"/><path fill="#D5ECF6" d="M82.3,83.1c-0.6,1.2-20.4,2-26.5,2c0.1,6.9-1.2,10.3-0.7,14.3c0.9,1.2,1.8,1.5,3.2,2.4	c6.3,3.8,7.2,4.1,11.6,5.4c4.1,0.7,10.8,1.7,15.3,0.6c0.5-0.1,0.6,0.5,0.1,0.6c-1.7,0.6-6.9,1.8-8.6,1.9c-0.1,0.6,0.4,1,1.5,1.7	c1.9,1,4.5,2.5,6.6,2.9c0.4,0.1,0.6,0.5,0,0.5c-1.1,0-3.9-0.1-6.7-1.1c-3-1-6.1-2.7-8.4-3.6c-6.1-0.8-13.5-3.1-13.5-2.6	c0,0.4,6.7,9.3,11.5,9.4c0.2,0,1.7,0.3,3.5,0.8c5.8,1.6,11.7,3.1,17.8,2.7c0.6,0,0.6,0.6,0,0.7c-3.9,0.3-8.4,0.4-11.8-0.1	c-1.1-0.2-2.6,0-4,0.7c-0.6,2,0.8,3.2,2,4.8c2,2.6,4.8,6.1,5.9,7.8c0.5,0.7-0.3,1.2-0.8,0.5c-3.5-5.1-7.2-7.6-11.6-11.6	c-1.4-1.3-14-8.8-14-6.4c0,2.4,1,4.6,1.1,6.1c0.2,2.3,1.3,2,2.3,3c1,1,8.4,8.4,7.7,9c-0.2,0.2-0.3,0.1-0.5-0.1	c-0.9-0.8-6.9-6.4-8.8-5.6c-0.2,1.5,1.2,3.4,2,4.7c0.6,0.8,1.2,1.3,1.9,2.3c0.5,0.8,1.1,1.9,2,2.9c2.8,3,5.6,7.1,6.9,7.6	c0.2,0.1,0.8,0.7-0.2,0.5c-1.5-0.3-5.2-5-6.8-5.3c0.1,1.7,0.8,3.6,1.3,5.3c0.4,1.7,0.8,3.2,0.8,6.3c0,0.5-0.6,0.9-0.6,0	c-0.1-2-1.2-5.3-2.2-7.7c-0.6-1.4-0.9-2.5-1.4-3.9c-0.3-1-0.7-2.4-1.2-3.4c-1.4-2.5-1.6-2.3-3.1-4c-0.9-1-1.8-2.5-2.6-3.9	c-0.2-0.5-1.9-4.5-2.3-4.1c-0.2,0.2-1.2,1.1-2.7,7.2c-0.4,1.5-0.9,3.4-1.2,4.9c-0.5,2.8,0.3,2.5,1.8,4.7c1.6,2.4,4.3,6.6,4.6,8.5	c0.5,3.1-0.1,9.8-0.4,13.2c0,0.2-0.2,0.4-0.4,0.4c-0.2,0-0.4-0.2-0.4-0.4c0,0,0,0,0-0.1c0.3-3.7-0.2-8.4-1-12.1	c-0.3-1.5-1-2.9-1.8-4.2c-0.7-1.2-1.4-2-2.9-2.5c-3,0.8-3.7,2.5-5,5.3c-1,2.2-1.9,4.7-2.3,6.4c-0.3,1-0.7,1.8-0.9,2.4	c-0.1,0.4-0.9,0.6-0.6-0.1c0.2-0.5,0.4-1.4,0.7-2.4c0.7-2.7,1.9-10.4,3.3-13.3c0.6-1.2,0.9-1.9,0.7-3.4c-0.4-3.1-1.1-7.5-2-9.1	c-1.5,0.5-3.5,3.9-4,4.7c-0.7,1.3-1.9,2.7-2.7,4.3c-0.6,1.2,0.1,2,0.3,3.2c0.4,2.7,0.7,8.7,0.6,11.4c0.1,0.8,0,1.6,0.1,2.5	c0.1,0.6-0.6,0.7-0.7,0.1c-0.2-1.6-0.6-4.3-1.3-5.9c-0.4,1.1-0.9,1.6-1.2,2.7c-0.8,3-2.5,5.5-4,6.9c-0.2,0.2-0.4,0.2-0.6,0.1	c-0.2-0.2-0.1-0.4,0.1-0.6c3.4-5.3,5.7-12.2,3.4-15.3c-5.8-2.2-13,6.7-15,11.7c-0.3,0.7-0.8,0.5-0.6-0.6c0.4-2.9,2.5-7.7,4.8-9.2	c1.1-0.7,1.6-1.4,1.5-1.7c-0.4-1.2-7.7-0.3-9.9-0.1c-0.2,0-0.6,0.1-0.8,0c-0.1-0.1-0.3-0.2-0.4-0.3c0.1-0.1,0.1-0.2,0.2-0.3	c0.2-0.3,0.6-0.3,1-0.3c4.9-0.8,9.5-1.9,11.6-1.9c1.9,0,3-0.3,4.5-1.1c5-2.7,10.1-9.4,8.7-15.6c-2.9-0.4-7.7,2-10.9,3.9	c-1.1,0.7-2.1,1.3-2.6,2c-0.9,1.3-1.3,2.9-1.3,4.7c0,0.6-0.6,0.6-0.6,0c0-0.8,0-1.5,0-2c0.1-1.2,0.3-0.8,0.1-2	c-0.7-0.1-1.7,0.2-2.4,0.3c-1.5,0.4-4.6,1-5.9,1c-0.7,0-0.9-0.6-0.2-0.6c1.3,0,3.7-0.6,5.4-1.1c1-0.3,1.6-0.6,2-0.6	c0.9,0,2.3-1.2,4-2.5c3-2.2,7.8-5.2,11.2-8.6c1.1-1.1,1-1.4-0.6-2.2c-2.1-0.9-5.7-0.8-8.4-0.6c-4.1,0.4-8.1,4.2-10.6,7.2	c-0.9,1.1-2.1,2.3-2.5,3c-0.2,0.5-0.8,0.3-0.5-0.3c0.3-0.8,1.1-2.1,2-3.2c0.6-0.8,2.4-2.7,2.5-3.6c-0.9-0.2-1.2,0.2-2,0.5	c-2.6,1.5-5.5,1.9-7,2.1c-0.6,0.1-0.6-0.5-0.1-0.6c5.5-1.1,9.5-4.3,13.5-7.2c-2.3-3.9-9.9-2.8-12.5-3c-0.6-0.1-0.5-0.7,0.1-0.7	c0.2,0,0.6,0,1.1-0.1c2.9-0.2,6.5-0.5,9.4-0.3c2.6,0.2,1.8-0.1,3.4-0.2c3.3-0.2,5.9-1.3,8-2.3c2.9-1.4,5.2-3.2,5.6-3.8	c0.3-0.7,0.7-2,0.8-3.6c0.5-6-1-14.2-0.6-17.6c-3.6,0-28-0.8-28.6-2.1L82.3,83.1L82.3,83.1z"/></svg>