<svg xmlns="http://www.w3.org/2000/svg" viewBox="0 0 21 40"><path fill="#fff" fill-rule="evenodd" d="M19.3076 19.8384C19.1673 19.5529 14.8881 19.3757 13.1038 19.356C13.1328 17.7168 12.8137 16.9095 12.9297 15.9397C13.1328 15.6591 13.3504 15.5804 13.6889 15.3687C15.1637 14.458 15.3861 14.394 16.4112 14.0741C17.3783 13.9018 18.9352 13.6803 19.9942 13.9264C20.1102 13.951 20.1441 13.8181 20.0232 13.7738C19.6364 13.636 18.4034 13.3357 17.9972 13.3308C17.9682 13.1978 18.0939 13.0797 18.3598 12.932C18.8047 12.6859 19.4091 12.3315 19.9071 12.2281C19.9942 12.2084 20.0474 12.105 19.8975 12.105C19.6412 12.105 18.9788 12.1346 18.3308 12.361C17.6249 12.6071 16.9044 13.0009 16.3628 13.2225C14.9364 13.4243 13.2005 13.951 13.2005 13.8476C13.2005 13.7443 14.772 11.6374 15.9083 11.598C15.9615 11.598 16.3048 11.5143 16.7255 11.4011C18.0794 11.0319 19.472 10.6578 20.8984 10.7612C21.0338 10.771 21.0338 10.6086 20.8984 10.5987C19.9748 10.515 18.9159 10.5101 18.1229 10.6233C17.8521 10.6627 17.5185 10.6283 17.1848 10.451C17.0446 9.96862 17.3686 9.67819 17.6442 9.31392C18.1181 8.69859 18.7612 7.86668 19.0368 7.46302C19.1528 7.29073 18.9691 7.18244 18.8579 7.3498C18.031 8.57061 17.1655 9.15639 16.1259 10.1065C15.7874 10.4166 12.8379 12.2035 12.8379 11.6325C12.8379 11.0467 13.0651 10.5347 13.0941 10.1852C13.1425 9.62896 13.4036 9.70772 13.6357 9.47144C13.8678 9.23023 15.594 7.47287 15.4441 7.32519C15.4054 7.28089 15.3668 7.31042 15.3232 7.3498C15.1008 7.55163 13.7082 8.88073 13.2489 8.68875C13.1908 8.33924 13.5196 7.8716 13.7179 7.57624C13.8485 7.38426 14.0032 7.25627 14.1628 7.02984C14.2933 6.8477 14.4239 6.57203 14.6415 6.33083C15.2991 5.60228 15.9567 4.62761 16.2516 4.52916C16.3048 4.50947 16.4354 4.37164 16.2081 4.41594C15.86 4.47993 14.9896 5.59736 14.6173 5.6712C14.6414 5.26755 14.8155 4.80975 14.9122 4.40609C15.0089 4.01229 15.096 3.64801 15.1105 2.88994C15.1105 2.77179 14.9751 2.67334 14.9654 2.88501C14.9461 3.35266 14.6946 4.15012 14.4577 4.71622C14.3223 5.04111 14.2401 5.30693 14.1337 5.64166C14.0515 5.88779 13.9742 6.22253 13.8533 6.44405C13.5245 7.0446 13.481 6.99045 13.1328 7.39903C12.9249 7.64516 12.7073 7.98482 12.5332 8.31955C12.4752 8.43277 12.0835 9.38776 11.9965 9.309C11.9433 9.26469 11.7209 9.04318 11.3728 7.58117C11.2857 7.22182 11.1648 6.76402 11.102 6.40467C10.9859 5.73519 11.1842 5.80903 11.5275 5.28724C11.9095 4.71129 12.5429 3.71201 12.6058 3.25421C12.7073 2.51582 12.5719 0.920898 12.5139 0.0988255C12.5091 0.0397544 12.4607 -0.00454897 12.4027 0.000373619C12.3447 0.00529621 12.3011 0.0545221 12.306 0.113593C12.3688 0.99966 12.2528 2.12693 12.069 3.00808C11.9917 3.36743 11.8466 3.70216 11.6484 4.02213C11.4743 4.30272 11.3292 4.48978 10.9569 4.63253C10.2413 4.44055 10.0865 4.03198 9.78675 3.3625C9.54982 2.83086 9.34674 2.24015 9.2452 1.83158C9.18234 1.58053 9.08079 1.40331 9.03728 1.26548C9.00343 1.16703 8.83419 1.12765 8.89221 1.29994C8.93573 1.42793 8.98409 1.62975 9.04695 1.8808C9.20651 2.51582 9.49663 4.36179 9.8206 5.04603C9.96083 5.33646 10.0237 5.50875 9.98017 5.85334C9.89313 6.58188 9.71422 7.65008 9.51114 8.03404C9.16783 7.90606 8.67946 7.10367 8.57792 6.90185C8.41835 6.58188 8.1379 6.25207 7.94932 5.88287C7.79943 5.59244 7.9735 5.41522 8.01702 5.11987C8.11856 4.47009 8.17175 3.05238 8.15241 2.40752C8.17175 2.21062 8.14274 2.01864 8.16691 1.80696C8.18142 1.66913 8.02185 1.6396 8.00735 1.77743C7.96383 2.16631 7.85745 2.80625 7.69788 3.17052C7.60118 2.90963 7.47546 2.80133 7.40776 2.53551C7.21918 1.82173 6.82268 1.21625 6.4697 0.881518C6.42135 0.837214 6.36816 0.827369 6.32948 0.861827C6.29079 0.901208 6.3053 0.960279 6.35849 1.0095C7.14665 2.27461 7.70755 3.9286 7.16116 4.67191C5.79759 5.19371 4.11972 3.07207 3.64102 1.87096C3.57816 1.71344 3.45728 1.75282 3.49113 2.00387C3.57816 2.69303 4.08104 3.84984 4.6226 4.19934C4.87887 4.36671 5.00943 4.54393 4.98525 4.60792C4.89821 4.88358 3.17683 4.68668 2.65944 4.64238C2.60626 4.63746 2.52405 4.62269 2.4757 4.64238C2.45636 4.65715 2.42251 4.68176 2.3935 4.71129C2.40801 4.74083 2.42251 4.76544 2.43702 4.78513C2.49021 4.85897 2.58691 4.85405 2.66912 4.86882C3.80542 5.05588 4.88854 5.31185 5.39625 5.31185C5.83144 5.30693 6.08771 5.38077 6.4552 5.58259C7.63019 6.22745 8.82936 7.83222 8.49572 9.29915C7.81393 9.3976 6.68729 8.82166 5.95232 8.35893C5.70088 8.19649 5.44944 8.05866 5.3334 7.89129C5.12064 7.58117 5.03844 7.20705 5.0191 6.75909C5.0191 6.62126 4.88854 6.61634 4.88854 6.75909C4.88854 6.96092 4.88854 7.11844 4.89821 7.24643C4.91272 7.53686 4.95624 7.44826 4.92723 7.72392C4.76766 7.73869 4.51622 7.68946 4.35665 7.65008C4.00367 7.56148 3.27837 7.41872 2.96891 7.41872C2.81418 7.41872 2.75615 7.56148 2.92539 7.56148C3.23969 7.56148 3.79575 7.70915 4.18258 7.83222C4.42435 7.91098 4.56457 7.98482 4.64194 7.98482C4.8547 7.98482 5.17383 8.27525 5.58 8.57553C6.29079 9.10717 7.40776 9.81602 8.19592 10.6332C8.44253 10.8891 8.43286 10.9778 8.04603 11.15C7.55282 11.3716 6.70664 11.3469 6.06837 11.2879C5.10613 11.2042 4.16324 10.2935 3.59267 9.56497C3.37991 9.29423 3.08979 9.02349 3.01726 8.85612C2.96407 8.72813 2.83835 8.79212 2.89154 8.92011C2.96891 9.10717 3.15265 9.40745 3.37024 9.68804C3.52014 9.88494 3.94081 10.328 3.96015 10.5396C3.75223 10.5839 3.68454 10.5052 3.5008 10.4166C2.89154 10.0671 2.21943 9.95878 1.85678 9.92924C1.72139 9.91447 1.70688 10.0474 1.83743 10.072C3.1188 10.3329 4.05686 11.0959 4.99492 11.7851C4.4582 12.7056 2.67879 12.4447 2.07437 12.5087C1.93898 12.5234 1.95348 12.676 2.08887 12.676C2.13239 12.676 2.21943 12.681 2.34998 12.6908C3.0366 12.7351 3.86345 12.8188 4.55007 12.7548C5.15932 12.6957 4.96107 12.7745 5.34307 12.804C6.11189 12.8582 6.71631 13.1142 7.22885 13.3603C7.92031 13.695 8.45703 14.1233 8.52956 14.2808C8.60209 14.4383 8.6988 14.7583 8.72781 15.1472C8.83419 16.5797 8.48121 18.5438 8.58275 19.3609C7.16116 19.3609 2.03085 19.5431 1.88579 19.8384H19.3076ZM18.3792 9.90463C18.1664 8.99887 19.3946 8.35401 20.0812 8.91027L20.1344 8.95457L20.0861 9.00379C20.0087 9.08748 19.9507 9.20562 19.8975 9.30407C19.5542 9.94401 19.1335 10.2098 18.413 9.94893L18.3792 9.93909V9.90463ZM17.8328 14.2217C18.3163 14.1873 18.7805 14.4482 19.0851 14.8125C19.2399 14.9946 19.2931 15.2161 19.3221 15.4475C19.3366 15.5705 19.3463 15.8167 19.4043 15.92L19.443 15.989L19.3704 16.0136C18.8772 16.176 18.3163 15.9496 17.973 15.5755C17.6829 15.2555 17.4991 14.6205 17.7893 14.2464L17.8086 14.2267L17.8328 14.2217ZM4.30346 13.4489C4.26478 13.5375 4.26478 13.6606 4.25028 13.759C4.19225 14.1725 3.97466 14.4925 3.583 14.6451C3.19133 14.7977 2.34031 14.7534 2.15173 14.3202L2.12756 14.2759L2.17107 14.2464C2.45636 14.0298 2.61109 13.5917 2.88671 13.4637C3.33156 13.2569 3.78608 13.2865 4.25511 13.3701L4.33248 13.3849L4.30346 13.4489ZM2.43702 9.40745C2.42735 9.53051 2.18074 9.53543 2.08887 9.46652C1.77457 9.22531 1.61984 9.31884 1.30071 9.44683C0.831681 9.63389 0.507712 9.53543 0.232097 9.10225C0.178908 9.01856 0.120884 8.95457 0.0435182 8.8955L0 8.86104L0.0241768 8.81181C0.623761 7.68946 2.55307 8.04881 2.43702 9.40745ZM4.6226 5.84349C4.50655 6.0207 4.40017 6.20776 4.26962 6.37513C3.87795 6.88216 3.61201 6.85754 3.03177 6.8477C2.84802 6.84278 2.58691 6.83293 2.40801 6.86247L2.3258 6.87724L2.33548 6.79355C2.44185 5.63182 3.70388 5.53337 4.58392 5.74012L4.67095 5.75981L4.6226 5.84349ZM15.4006 3.95322C15.3619 3.69724 15.4006 3.44127 15.5118 3.2099C15.8696 2.47644 17.0204 1.99895 17.6732 2.58966L17.7264 2.63888L17.6732 2.68811C17.5523 2.79148 17.446 3.06715 17.3638 3.21483C17.0156 3.84492 16.1259 4.19442 15.449 4.00736L15.4103 3.99752L15.4006 3.95322ZM15.5989 6.21761C15.5166 5.19863 16.5804 4.74083 17.3879 5.1691C17.6249 5.29216 17.7989 5.48906 17.9198 5.73027L17.944 5.7795L17.9005 5.81396C17.857 5.84841 17.8183 5.88287 17.7844 5.92225C17.4605 6.30129 16.9141 6.3899 16.4692 6.20776C16.2613 6.12408 16.1162 6.15361 15.9325 6.29145C15.8455 6.35544 15.6085 6.33575 15.5989 6.21761ZM13.0409 1.77743C12.9781 1.5313 13.0023 1.29502 13.1377 1.07842C13.2344 0.920898 13.3843 0.792911 13.539 0.699382C13.7856 0.551704 14.3272 0.384336 14.5883 0.556627L14.6221 0.576317L14.6173 0.615698C14.5302 1.5313 13.9838 1.97433 13.0893 1.82173L13.0506 1.81681L13.0409 1.77743ZM8.43769 6.04532C8.26362 5.40046 8.73748 4.76052 9.43861 4.94266L9.48213 4.9525V5.00173C9.51114 5.6712 9.1775 6.11423 8.49088 6.08962H8.44253L8.43769 6.04532ZM1.34906 3.86953C1.51347 3.7317 1.61501 3.5791 1.7649 3.44619C2.05986 3.17052 2.4757 3.31328 2.79967 3.44619C2.96891 3.5151 3.04627 3.41665 3.1865 3.45111L3.22518 3.46096L3.23485 3.50034C3.2687 3.69232 3.20584 3.91876 3.09463 4.07136C2.92539 4.31256 2.64977 4.40117 2.36449 4.39133C1.997 4.37656 1.60534 4.22396 1.34423 3.96306L1.29587 3.91383L1.34906 3.86953ZM16.6143 9.26961C15.889 8.91026 16.1114 7.62547 16.8609 7.4138L16.9237 7.39411L16.9382 7.46302C16.9624 7.57624 17.0688 7.72884 17.1123 7.86175C17.2574 8.31463 17.1413 9.06779 16.6626 9.26961L16.6336 9.27946L16.6143 9.26961ZM0.89454 11.5045C1.11697 11.1599 1.41676 10.8891 1.84227 10.9187C2.13723 10.9384 2.36932 11.0811 2.64494 11.1747C2.73197 11.2042 2.94473 11.2534 3.0221 11.1845C3.1865 11.0319 3.33639 11.1993 3.31222 11.3962C3.23485 11.9327 2.66428 12.3019 2.16624 12.3069C1.67787 12.3118 1.22334 11.918 0.904211 11.5882L0.870364 11.5488L0.89454 11.5045ZM4.73865 1.81189C4.73865 1.75774 4.76766 1.73805 4.81601 1.73313C5.19801 1.6839 5.54132 1.77743 5.78792 2.08755C5.84594 2.15647 5.88946 2.23523 5.93298 2.31399C6.03936 2.51582 6.10222 2.72749 6.17958 2.93916C6.21343 3.02777 6.28596 3.22959 6.38267 3.26405C6.60509 3.33789 6.71631 3.50034 6.47937 3.64801C5.93781 3.9926 5.00459 3.60863 4.787 3.00808C4.67579 2.7078 4.69513 2.3386 4.72898 2.01864C4.73865 1.94972 4.74348 1.8808 4.73865 1.81189ZM14.6946 2.82102C14.5351 3.07699 14.3175 3.29359 14.0032 3.30343C13.7904 3.31328 13.6212 3.23452 13.4229 3.19021C13.3601 3.17545 13.215 3.16068 13.1667 3.2099C13.0409 3.33297 12.9056 3.22959 12.9297 3.06223C12.9829 2.67334 13.3988 2.37799 13.7614 2.33368C14.1096 2.2943 14.4384 2.52074 14.685 2.74226L14.7285 2.77672L14.6946 2.82102ZM13.2876 5.18386C12.9297 4.62269 13.1908 3.86953 13.9113 3.82523L13.9597 3.82031L13.9742 3.86461C14.2014 4.4947 14.0177 5.0165 13.3552 5.20848L13.3117 5.22324L13.2876 5.18386ZM4.98041 9.62404C5.67187 9.3976 6.5519 9.87509 6.55674 10.6824V10.7365L6.50355 10.7464C5.60901 10.8842 5.08679 10.6479 4.9369 9.69788L4.92723 9.64373L4.98041 9.62404ZM5.991 6.30621C6.46003 6.45881 6.92906 6.72956 7.04511 7.25135C7.0983 7.48271 7.07896 7.67962 7.01126 7.90606C6.96774 8.05373 6.90005 8.2211 6.90005 8.3737V8.46231L6.81785 8.43277C5.97166 8.14234 5.58 7.16767 5.91364 6.34067L5.93781 6.28652L5.991 6.30621ZM15.6956 9.3976C15.6037 9.5059 15.5553 9.77664 15.449 9.93417C15.1153 10.4264 14.2836 10.7956 13.7372 10.4707L13.7131 10.456L13.7082 10.4264C13.5245 9.4616 14.9751 8.81181 15.6859 9.29915L15.7439 9.33853L15.6956 9.3976ZM11.6145 6.892C11.5323 6.37021 11.7306 5.88287 12.1706 5.59736C12.5961 5.32662 13.1715 5.30201 13.5922 5.60228L13.6599 5.65151L13.597 5.70566C13.481 5.80903 13.3698 6.0847 13.2876 6.23238C13.0796 6.61141 12.7557 6.87231 12.335 6.96092C12.1029 7.01015 11.8901 6.98553 11.658 6.94123L11.6145 6.93138V6.892ZM9.54982 1.50669C10.5604 0.989815 11.924 1.81681 11.7547 2.97854L11.7451 3.03761L11.687 3.03269C11.4743 3.013 11.2519 3.09668 11.0343 3.0573C10.5846 2.97362 10.2026 2.77672 9.92698 2.39768C9.73357 2.13186 9.66104 1.87588 9.52081 1.59037L9.4918 1.5313L9.54982 1.50669ZM7.45612 1.56084C7.0161 1.06365 7.16116 0.276039 7.86712 0.118516L7.91547 0.108671L7.93965 0.152974C8.25878 0.738762 8.15724 1.28517 7.53348 1.5756L7.48996 1.59529L7.45612 1.56084Z" clip-rule="evenodd"/><path fill="#C5E6F5" fill-rule="evenodd" d="M19.3076 19.8389C19.1674 20.1245 14.5255 20.3066 13.1039 20.3263C13.1329 21.9655 12.8137 22.7728 12.9298 23.7426C13.1329 24.0231 13.3505 24.1019 13.6889 24.3136C15.1637 25.2243 15.3861 25.2883 16.4112 25.6082C17.3783 25.7805 18.9353 26.002 19.9942 25.7559C20.1103 25.7313 20.1441 25.8642 20.0233 25.9085C19.6364 26.0463 18.4034 26.3466 17.9972 26.3515C17.9682 26.4844 18.0939 26.6026 18.3599 26.7503C18.8047 27.0013 19.4092 27.3508 19.9072 27.4542C19.9942 27.4739 20.0474 27.5773 19.8975 27.5773C19.6413 27.5773 18.9788 27.5477 18.3309 27.3213C17.6249 27.0752 16.9044 26.6813 16.3629 26.4598C14.9365 26.258 13.2006 25.7264 13.2006 25.8297C13.2006 25.9331 14.7721 28.04 15.9084 28.0794C15.9616 28.0794 16.3049 28.163 16.7255 28.2763C18.0794 28.6455 19.472 29.0196 20.8985 28.9162C21.0338 28.9064 21.0338 29.0688 20.8985 29.0787C19.9749 29.1623 18.916 29.1673 18.123 29.0491C17.8522 29.0097 17.5185 29.0442 17.1849 29.2214C17.0447 29.7038 17.3686 29.9943 17.6443 30.3585C18.1181 30.9738 18.7612 31.8058 19.0368 32.2094C19.1529 32.3817 18.9691 32.49 18.8579 32.3226C18.0311 31.1018 17.1656 30.516 16.126 29.566C15.7875 29.2559 12.8379 27.469 12.8379 28.04C12.8379 28.6258 13.0652 29.1377 13.0942 29.4872C13.1425 30.0435 13.4037 29.9647 13.6357 30.201C13.8678 30.4422 15.5941 32.1996 15.4442 32.3472C15.4055 32.3916 15.3668 32.362 15.3233 32.3226C15.1009 32.1208 13.7083 30.7917 13.2489 30.9837C13.1909 31.3332 13.5197 31.8008 13.7179 32.0962C13.8485 32.2882 14.0032 32.4162 14.1628 32.6475C14.2934 32.8297 14.4239 33.1053 14.6415 33.3465C15.2991 34.0751 15.9567 35.0448 16.2517 35.1482C16.3049 35.1679 16.4354 35.3057 16.2082 35.2614C15.86 35.1974 14.9896 34.08 14.6173 34.0062C14.6415 34.4098 14.8156 34.8676 14.9123 35.2713C15.009 35.6651 15.096 36.0294 15.1105 36.7874C15.1105 36.9056 14.9751 37.004 14.9655 36.7923C14.9461 36.3247 14.6947 35.5272 14.4578 34.9611C14.3224 34.6363 14.2402 34.3704 14.1338 34.0357C14.0516 33.7896 13.9742 33.4548 13.8533 33.2333C13.5245 32.6328 13.481 32.6869 13.1329 32.2783C12.925 32.0322 12.7074 31.6925 12.5333 31.3578C12.4753 31.2446 12.0836 30.2896 11.9966 30.3684C11.9434 30.4127 11.7209 30.6342 11.3728 32.0962C11.2858 32.4555 11.1649 32.9133 11.102 33.2727C10.986 33.9422 11.1842 33.8683 11.5275 34.3901C11.9095 34.9661 12.543 35.9654 12.6058 36.4232C12.7122 37.1665 12.5768 38.7565 12.5188 39.5835C12.5139 39.6425 12.4656 39.6868 12.4076 39.6819C12.3495 39.677 12.306 39.6278 12.3109 39.5687C12.3737 38.6826 12.2577 37.5554 12.0739 36.6742C11.9966 36.3099 11.8515 35.9801 11.6533 35.6602C11.4792 35.3796 11.3341 35.1876 10.9618 35.0498C10.2462 35.2417 10.0914 35.6503 9.79164 36.3198C9.55471 36.8514 9.35162 37.4421 9.25008 37.8507C9.18722 38.1018 9.08568 38.279 9.04216 38.4168C9.00831 38.5202 8.83908 38.5546 8.8971 38.3823C8.94062 38.2544 8.98897 38.0476 9.05183 37.8015C9.2114 37.1665 9.50152 35.3205 9.82549 34.6363C9.96571 34.3458 10.0286 34.1735 9.98506 33.829C9.89802 33.1004 9.71911 32.0322 9.51603 31.6532C9.17272 31.7812 8.68435 32.5835 8.5828 32.7804C8.42324 33.1004 8.14279 33.4302 7.95421 33.8043C7.80431 34.0948 7.97838 34.272 8.0219 34.5673C8.12344 35.2171 8.17663 36.6348 8.15729 37.2797C8.17663 37.4766 8.14762 37.6686 8.1718 37.8802C8.1863 38.0181 8.02674 38.0476 8.01223 37.9098C7.96871 37.5258 7.86234 36.881 7.70277 36.5118C7.60606 36.7727 7.48034 36.881 7.41265 37.1468C7.22407 37.8606 6.82757 38.466 6.47459 38.8008C6.42624 38.8451 6.37305 38.8598 6.33436 38.8205C6.29568 38.7811 6.31019 38.722 6.36338 38.6728C7.15154 37.4077 7.71244 35.7537 7.16604 35.0104C5.80247 34.4886 4.12461 36.6102 3.64591 37.8113C3.58305 37.9688 3.46216 37.9344 3.49601 37.6784C3.58305 36.9893 4.08592 35.8324 4.62748 35.4829C4.88376 35.3156 5.01431 35.1384 4.99014 35.0694C4.9031 34.7938 3.18171 34.9907 2.66433 35.035C2.61114 35.0399 2.52894 35.0498 2.48059 35.035C2.45157 35.0251 2.42256 35.0005 2.38871 34.971C2.40322 34.9415 2.41773 34.9168 2.43223 34.8972C2.48542 34.8233 2.58213 34.8282 2.66433 34.8135C3.80064 34.6264 4.88376 34.3704 5.39147 34.3704C5.82665 34.3754 6.08293 34.3015 6.45041 34.0997C7.6254 33.4598 8.82457 31.8501 8.49093 30.3831C7.80915 30.2847 6.68251 30.8606 5.94754 31.3234C5.6961 31.4858 5.44466 31.6236 5.32861 31.791C5.11585 32.1011 5.03365 32.4752 5.01431 32.9232C5.01431 33.061 4.88376 33.0659 4.88376 32.9232C4.88376 32.7214 4.88376 32.5638 4.89343 32.4359C4.90793 32.1454 4.95145 32.234 4.92244 31.9584C4.76287 31.9436 4.51144 31.9928 4.35187 32.0322C3.99889 32.1208 3.27358 32.2636 2.96412 32.2636C2.80939 32.2636 2.75137 32.1208 2.9206 32.1208C3.2349 32.1208 3.79097 31.9731 4.1778 31.8501C4.41956 31.7713 4.55979 31.6975 4.63715 31.6975C4.84991 31.6975 5.16904 31.407 5.57521 31.1068C6.28601 30.5751 7.40298 29.8663 8.19114 29.0491C8.43774 28.7931 8.42807 28.7045 8.04124 28.5322C7.54804 28.3107 6.70185 28.3353 6.06358 28.3944C5.10135 28.4781 4.15845 29.3888 3.58788 30.1173C3.37513 30.3881 3.08501 30.6588 3.01248 30.8262C2.95929 30.9542 2.83357 30.8902 2.88676 30.7622C2.96412 30.5751 3.14787 30.2748 3.36546 29.9943C3.51535 29.7973 3.93603 29.3543 3.95537 29.1426C3.74745 29.0983 3.67975 29.182 3.49601 29.2657C2.88676 29.6152 2.21464 29.7235 1.85199 29.753C1.7166 29.7678 1.70209 29.6349 1.83265 29.6103C3.11402 29.3494 4.05208 28.5864 4.99014 27.8972C4.45341 26.9767 2.674 27.2376 2.06958 27.1736C1.93419 27.1588 1.9487 27.0062 2.08409 27.0062C2.12761 27.0062 2.21464 27.0013 2.3452 26.9915C3.03182 26.9472 3.85866 26.8635 4.54528 26.9275C5.15454 26.9816 4.95629 26.9078 5.33828 26.8783C6.1071 26.8241 6.71152 26.5681 7.22407 26.322C7.91552 25.9873 8.45225 25.559 8.52478 25.4015C8.59731 25.244 8.69402 24.924 8.72303 24.5351C8.82941 23.1026 8.47643 21.1385 8.57797 20.3214C7.73662 20.3214 2.01639 20.1294 1.87133 19.8291H19.3076V19.8389Z" clip-rule="evenodd"/></svg>