<svg xmlns="http://www.w3.org/2000/svg" viewBox="0 0 19 35"><path fill="#017BA1" fill-rule="evenodd" d="M17.032 17.5c-.124-.253-3.899-.409-5.473-.426.026-1.446-.255-2.158-.153-3.014.179-.247.371-.317.67-.504 1.3-.803 1.497-.86 2.401-1.142.853-.152 2.227-.347 3.16-.13.103.022.133-.095.026-.135-.34-.121-1.429-.386-1.787-.39-.025-.118.085-.222.32-.352.392-.217.926-.53 1.365-.621.077-.017.124-.109-.009-.109-.226 0-.81.026-1.382.226-.622.217-1.258.565-1.736.76-1.258.178-2.79.643-2.79.552 0-.092 1.387-1.95 2.39-1.985.046 0 .35-.074.72-.174 1.195-.325 2.423-.655 3.681-.564.12.009.12-.135 0-.143-.814-.074-1.748-.079-2.448.021a1.352 1.352 0 0 1-.828-.152c-.123-.425.163-.681.406-1.003.418-.543.985-1.276 1.228-1.633.102-.152-.06-.247-.158-.1-.729 1.078-1.493 1.594-2.41 2.432-.298.274-2.9 1.85-2.9 1.347 0-.517.2-.969.226-1.277.043-.49.273-.421.478-.63.204-.213 1.727-1.763 1.595-1.893-.034-.04-.068-.013-.107.022-.196.178-1.424 1.35-1.83 1.18-.05-.308.24-.72.414-.98.115-.17.252-.283.393-.483.115-.16.23-.404.422-.616.58-.643 1.16-1.503 1.42-1.59.047-.017.162-.139-.038-.1-.307.057-1.075 1.043-1.403 1.108.02-.356.174-.76.26-1.116.085-.348.162-.669.175-1.338 0-.104-.12-.19-.128-.004-.017.413-.24 1.116-.448 1.615-.12.287-.192.521-.286.817-.072.217-.14.512-.247.708-.29.53-.329.482-.636.842a4.635 4.635 0 0 0-.529.812c-.051.1-.397.942-.473.873-.047-.04-.244-.235-.55-1.524-.077-.317-.184-.721-.24-1.038-.102-.59.073-.526.376-.986.337-.508.896-1.39.951-1.793.09-.652-.03-2.059-.081-2.784A.092.092 0 0 0 10.941 0a.092.092 0 0 0-.085.1c.055.782-.047 1.776-.21 2.554a2.816 2.816 0 0 1-.37.894c-.154.248-.282.413-.61.539-.632-.17-.768-.53-1.033-1.12a8.918 8.918 0 0 1-.477-1.351c-.056-.222-.145-.378-.184-.5-.03-.086-.179-.121-.128.03.039.114.081.292.137.513.14.56.396 2.189.682 2.792.124.257.18.409.14.712-.076.643-.234 1.585-.413 1.924-.303-.113-.733-.82-.823-.999-.14-.282-.388-.573-.555-.898-.132-.257.022-.413.06-.674.09-.573.137-1.823.12-2.392.017-.174-.009-.343.012-.53.013-.122-.128-.148-.14-.026-.039.343-.133.908-.273 1.229-.086-.23-.197-.326-.256-.56-.167-.63-.516-1.164-.828-1.46C5.665.739 5.617.73 5.584.76c-.035.035-.022.087.025.13.695 1.117 1.19 2.576.708 3.231-1.203.46-2.683-1.411-3.105-2.47-.056-.14-.162-.105-.132.117.076.608.52 1.628.998 1.936.226.148.341.304.32.36-.077.244-1.596.07-2.052.031-.047-.004-.12-.017-.162 0-.017.013-.047.035-.073.061a.43.43 0 0 0 .039.065c.047.065.132.061.205.074 1.002.165 1.957.39 2.405.39.384-.004.61.062.934.24 1.037.569 2.095 1.984 1.8 3.278-.601.087-1.595-.421-2.243-.83-.222-.143-.444-.264-.546-.412-.188-.273-.26-.603-.277-.998 0-.122-.116-.126-.116 0 0 .178 0 .317.009.43.013.256.051.177.026.42-.141.014-.363-.03-.504-.065-.311-.078-.951-.204-1.224-.204-.136 0-.188.126-.038.126.277 0 .767.13 1.109.24.213.069.337.134.405.134.188 0 .47.256.827.52.627.47 1.613 1.095 2.308 1.816.218.226.209.304-.132.456-.435.195-1.182.174-1.745.122-.849-.074-1.68-.878-2.184-1.52-.187-.24-.443-.478-.507-.626-.047-.113-.158-.056-.111.057.068.165.23.43.422.677.132.174.503.565.52.752-.183.039-.243-.03-.405-.11-.537-.307-1.13-.403-1.45-.429-.12-.013-.132.104-.017.126 1.13.23 1.958.903 2.785 1.511-.473.812-2.043.582-2.576.639-.12.012-.107.147.013.147.038 0 .115.005.23.013.606.04 1.335.113 1.94.057.538-.053.363.017.7.043.679.048 1.212.274 1.664.49.61.296 1.083.674 1.147.813.064.139.15.421.175.764.094 1.264-.217 2.996-.128 3.717-1.254 0-5.78.16-5.907.421h15.368zm-.819-8.764c-.188-.799.896-1.368 1.502-.877l.046.04-.042.043c-.069.073-.12.178-.167.265-.302.564-.674.799-1.31.568l-.029-.008v-.03zm-.482 3.809c.427-.03.836.2 1.105.52.136.161.183.357.209.56.013.11.021.327.072.418l.034.06-.064.022c-.435.144-.93-.056-1.232-.386-.256-.283-.418-.843-.162-1.173l.017-.017.021-.004zm-11.935-.682c-.034.078-.034.187-.047.273-.05.365-.243.648-.588.782-.346.135-1.097.096-1.263-.286l-.021-.04.038-.026c.252-.19.388-.577.631-.69.393-.182.794-.156 1.208-.083l.068.013-.026.057zM2.15 8.298c-.009.108-.226.113-.307.052-.278-.213-.414-.13-.696-.018-.413.165-.7.079-.942-.303a.674.674 0 0 0-.167-.183L0 7.816l.021-.044c.53-.99 2.231-.673 2.129.526zm1.928-3.144c-.103.156-.196.321-.312.469-.345.447-.58.425-1.092.417-.162-.005-.392-.013-.55.013l-.072.013.008-.074c.094-1.025 1.207-1.112 1.984-.93l.076.018-.042.074zm9.508-1.668c-.035-.225 0-.451.098-.655.315-.647 1.33-1.069 1.906-.548l.047.044-.047.043c-.106.092-.2.335-.273.465-.307.556-1.092.864-1.689.7l-.034-.01-.008-.039zm.174 1.998c-.072-.899.866-1.303 1.579-.925.209.108.362.282.469.495l.021.043-.038.03a.73.73 0 0 0-.103.096c-.285.335-.767.413-1.16.252-.183-.074-.311-.048-.473.074-.077.056-.286.04-.295-.065zm-2.256-3.917a.764.764 0 0 1 .085-.617c.086-.139.218-.252.354-.334.218-.13.696-.278.926-.126l.03.017-.004.035c-.077.808-.56 1.199-1.348 1.064l-.035-.004-.008-.035zm-4.06 3.765c-.154-.569.264-1.134.882-.973l.039.009v.043c.025.59-.27.982-.875.96h-.042l-.005-.04zM1.19 3.412c.145-.121.235-.256.367-.373.26-.243.627-.117.913 0 .149.06.217-.026.34.004l.035.01.009.034c.03.17-.026.369-.124.504-.15.212-.393.29-.644.282a1.387 1.387 0 0 1-.9-.378l-.043-.043.047-.04zm13.466 4.764c-.64-.317-.443-1.45.218-1.637l.055-.017.013.06c.021.1.115.235.153.352.128.4.026 1.064-.396 1.242l-.026.009-.017-.009zM.79 10.148c.196-.304.46-.543.836-.517.26.017.465.143.708.226.077.026.265.07.333.008.145-.134.277.013.256.187-.068.473-.572.8-1.011.803-.43.005-.832-.343-1.113-.634l-.03-.034.021-.04zm3.391-8.55c0-.048.026-.066.068-.07.337-.044.64.039.858.313.051.06.09.13.128.2.094.177.149.364.217.55.03.079.094.257.18.287.196.066.294.209.085.34-.478.303-1.301-.036-1.493-.565-.098-.265-.081-.591-.051-.873.008-.061.012-.122.008-.183zm8.783.89c-.141.225-.333.416-.61.425-.188.009-.337-.06-.512-.1-.055-.013-.183-.026-.226.018-.111.108-.23.017-.21-.13.048-.344.415-.604.735-.643.307-.035.597.165.814.36l.039.03-.03.04zm-1.241 2.084c-.316-.495-.086-1.16.55-1.199l.042-.004.013.04c.2.555.039 1.015-.546 1.185l-.038.013-.021-.035zM4.393 8.489c.61-.2 1.387.221 1.391.933v.048l-.047.009c-.79.121-1.25-.087-1.382-.925l-.008-.048.046-.017zm.892-2.927c.414.135.827.373.93.834.047.204.03.378-.03.577-.038.13-.098.278-.098.413v.078l-.073-.026c-.746-.256-1.092-1.116-.797-1.846l.021-.047.047.017zm8.56 2.727c-.08.096-.123.334-.217.473-.294.435-1.028.76-1.51.474l-.021-.013-.004-.026c-.162-.851 1.117-1.425 1.744-.995l.051.035-.042.052zm-3.6-2.21c-.072-.46.103-.89.491-1.142.376-.24.883-.26 1.254.004l.06.043-.056.048c-.102.091-.2.335-.272.465-.184.334-.47.564-.84.643-.205.043-.393.021-.598-.018l-.038-.008v-.035zm-1.82-4.75c.89-.457 2.094.273 1.944 1.298l-.008.052-.051-.005c-.188-.017-.384.057-.576.022-.397-.074-.734-.248-.977-.582-.17-.234-.235-.46-.358-.712l-.026-.052.051-.022zm-1.848.047C6.19.937 6.317.243 6.94.104l.043-.01.02.04c.282.517.193.999-.357 1.255l-.039.017-.03-.03z" clip-rule="evenodd"/><path fill="#52B0D8" fill-rule="evenodd" d="M17.032 17.5c-.124.252-4.219.412-5.473.43.026 1.446-.255 2.158-.153 3.013.18.248.371.317.67.504 1.3.803 1.497.86 2.401 1.142.853.152 2.227.348 3.16.13.103-.021.133.096.026.135-.34.122-1.429.387-1.787.39-.025.118.085.222.32.353.392.221.926.53 1.365.62.077.018.124.11-.009.11-.226 0-.81-.027-1.381-.227-.623-.217-1.259-.564-1.737-.76-1.258-.178-2.79-.647-2.79-.555 0 .09 1.387 1.95 2.39 1.984.046 0 .35.074.72.174 1.195.325 2.423.655 3.681.564.12-.008.12.135 0 .144-.814.073-1.748.078-2.448-.026a1.351 1.351 0 0 0-.828.152c-.123.425.163.681.406 1.003.418.543.985 1.276 1.228 1.632.103.152-.06.248-.158.1-.729-1.077-1.493-1.593-2.41-2.431-.298-.274-2.9-1.85-2.9-1.347 0 .517.2.969.226 1.277.043.49.273.421.478.63.204.213 1.727 1.763 1.595 1.893-.034.04-.068.013-.107-.022-.196-.178-1.424-1.35-1.83-1.18-.05.308.24.72.414.98.115.17.252.283.393.487.115.16.23.404.422.617.58.642 1.16 1.498 1.42 1.589.047.017.162.139-.038.1-.307-.057-1.075-1.043-1.403-1.108.02.357.175.76.26 1.116.085.348.162.67.175 1.338 0 .104-.12.191-.128.004-.017-.412-.24-1.116-.448-1.615-.12-.287-.192-.521-.286-.817-.072-.217-.14-.512-.247-.707-.29-.53-.329-.482-.636-.843a4.627 4.627 0 0 1-.529-.812c-.051-.1-.396-.942-.473-.873-.047.04-.243.235-.55 1.524-.077.317-.184.721-.24 1.038-.102.591.073.526.376.986.337.508.896 1.39.951 1.794.094.655-.025 2.058-.077 2.787a.092.092 0 1 1-.183-.013c.055-.781-.047-1.776-.21-2.553a2.775 2.775 0 0 0-.37-.895c-.154-.247-.282-.416-.61-.538-.631.17-.768.53-1.032 1.12-.21.47-.389.99-.478 1.35-.056.222-.145.379-.184.5-.03.091-.179.122-.127-.03.038-.113.08-.295.136-.513.14-.56.397-2.188.683-2.792.123-.256.179-.408.14-.712-.077-.643-.234-1.585-.413-1.92-.303.114-.734.821-.824.995-.14.282-.388.573-.554.903-.132.257.021.413.06.673.09.574.136 1.824.119 2.393.017.174-.009.343.013.53.013.121-.128.148-.141.026-.038-.339-.132-.908-.273-1.233-.085.23-.196.325-.256.56-.166.63-.516 1.164-.827 1.459-.043.039-.09.052-.124.017-.034-.034-.022-.087.025-.13.696-1.116 1.19-2.575.708-3.23-1.202-.461-2.682 1.41-3.105 2.47-.055.14-.162.109-.132-.117.077-.608.52-1.629.998-1.937.226-.148.341-.304.32-.365-.077-.243-1.595-.07-2.052-.03-.047.004-.12.013-.162 0a.274.274 0 0 1-.08-.056.435.435 0 0 1 .038-.066c.046-.065.132-.06.204-.073 1.003-.165 1.958-.391 2.406-.391.384.004.61-.061.934-.24 1.037-.564 2.095-1.984 1.8-3.278-.601-.086-1.595.422-2.243.83-.222.143-.444.265-.546.412-.188.274-.26.604-.278 1 0 .12-.115.125-.115 0 0-.179 0-.318.009-.43.013-.257.05-.179.025-.422-.14-.013-.362.03-.503.065-.311.078-.951.204-1.224.204-.137 0-.188-.126-.039-.126.278 0 .768-.13 1.11-.239.213-.07.336-.134.405-.134.187 0 .469-.256.827-.521.627-.47 1.612-1.095 2.308-1.815.217-.226.209-.304-.132-.456-.436-.196-1.182-.174-1.745-.122-.849.074-1.68.877-2.184 1.52-.188.239-.444.478-.508.625-.046.113-.157.057-.11-.056.068-.165.23-.43.422-.678.132-.173.503-.564.52-.75-.183-.04-.243.034-.405.108-.537.308-1.13.404-1.45.43-.12.013-.132-.105-.017-.126 1.13-.23 1.958-.904 2.785-1.512-.473-.812-2.043-.581-2.576-.638-.12-.013-.107-.147.012-.147.039 0 .116-.005.23-.014.607-.039 1.336-.113 1.942-.056.537.048.362-.017.7-.043.677-.048 1.21-.274 1.663-.491.61-.295 1.083-.673 1.147-.812.064-.14.15-.421.175-.764.094-1.264-.218-2.997-.128-3.718-.742 0-5.788-.169-5.916-.434h15.381v.009z" clip-rule="evenodd"/></svg>