<svg xmlns="http://www.w3.org/2000/svg" style="border: 0 !important; clip: rect(0 0 0 0) !important; height: 1px !important; margin: -1px !important; overflow: hidden !important; padding: 0 !important; position: absolute !important; width: 1px !important;" class="root-svg-symbols-element">
    <symbol id="icon-agree" viewBox="0 0 11 12">
      <path fill="none" stroke="#fff" d="M1 4.5L4.96154 11L10.5 1"/>
    </symbol>
    <symbol id="icon-arrow-right-big" viewBox="0 0 19 19">
      <path stroke="currentColor" fill="none" stroke-linecap="round" stroke-linejoin="round" stroke-miterlimit="10" d="M1.35476 18.2437L18.2405 18.2441M18.2405 18.2441L18.2444 0.766113M18.2405 18.2441L1.35474 1.35834"/>
    </symbol>
    <symbol id="icon-arrow-right-blue" viewBox="0 0 6 11">
      <path fill="none" stroke="#52B0D8" stroke-linecap="round" stroke-linejoin="round" stroke-miterlimit="10" d="M1.1346 10L5 5.5781L1 1"/>
    </symbol>
    <symbol id="icon-arrow-right-small" viewBox="0 0 9 10">
      <path fill="none" stroke="#37AEDD" d="M4 1L8 5L4 9"/><path fill="none" stroke="#37AEDD" d="M0 5H8"/>
    </symbol>
    <symbol id="icon-arrow-right" viewBox="0 0 6 11">
      <path fill="none" stroke="currentColor" stroke-linecap="round" stroke-linejoin="round" stroke-miterlimit="10" d="M1.1346 10L5 5.5781L1 1"/>
    </symbol>
    <symbol id="icon-bank-card" viewBox="0 0 50 42">
      <g fill="none" stroke="currentColor" stroke-linecap="round" stroke-linejoin="round" stroke-miterlimit="10" stroke-width="1.5"><path d="M47.674 22.912v7.274c0 .716-.573 1.294-1.272 1.294H4.695a1.285 1.285 0 0 1-1.272-1.294V1.91c0-.716.573-1.294 1.272-1.294h41.707c.705 0 1.272.583 1.272 1.294v21z"/><path d="M19.014 5.446c-1.37 0-2.566.739-3.237 1.845a3.78 3.78 0 0 0-3.237-1.845c-2.096 0-3.8 1.728-3.8 3.867 0 2.14 1.698 3.868 3.8 3.868 1.37 0 2.566-.739 3.237-1.845a3.78 3.78 0 0 0 3.237 1.845c2.097 0 3.8-1.728 3.8-3.868 0-2.139-1.698-3.867-3.8-3.867zM32.444 10.98h8.38M32.444 7.502h8.38M32.444 14.46h8.38M9.357 23.462h4.318M17.715 23.462h4.345M26.176 23.462h4.27M34.458 23.462h3.51M3.417 27.19L.627 12.588a1.293 1.293 0 0 1 1.01-1.523l1.731-.345M48.007 24.601l1.365 7.14a1.296 1.296 0 0 1-1.01 1.523L7.42 41.367a1.275 1.275 0 0 1-1.496-1.028l-1.709-8.947M10.552 34.648l4.253-.806M18.774 33.092l4.269-.806"/></g>
    </symbol>
    <symbol id="icon-bank" viewBox="0 0 50 47">
      <g fill="none" stroke="currentColor" stroke-linecap="round" stroke-linejoin="round" stroke-miterlimit="10" stroke-width="1.5"><path d="M25 12.951H1L25 1M9.369 17.13v18.88M17.023 17.13v18.88M25.146 17.13v13.38M32.653 17.13v18.88M40.37 17.13v18.88M25 12.951h24L25 1.002M17.023 36.01H5.605M44.264 36.01h-11.61M16.907 39.798H1.193M48.608 39.798H33.03M24.969 46.216c4.451 0 8.06-3.456 8.06-7.718 0-4.262-3.609-7.717-8.06-7.717-4.452 0-8.061 3.455-8.061 7.717s3.609 7.718 8.06 7.718z"/><path d="M24.968 42.412l4.093-3.913-4.093-3.92M20.479 38.499h8.582"/></g>
    </symbol>
    <symbol id="icon-brain" viewBox="0 0 55 60">
      <g fill="none" stroke="currentColor" stroke-linecap="round" stroke-linejoin="round" stroke-miterlimit="10"><path d="M11.8588 52.5897L12.347 48.0259C12.347 48.0259 -0.402973 35.1284 0.485262 24.307C1.3735 13.4856 6.12644 6.04291 14.8676 2.66416C27.55 -2.24077 38.5911 1.47615 45.5588 8.88941C52.5264 16.3027 48.8235 27.2711 49.1176 28.4562C49.4147 29.6412 55.0382 36.4605 54.5235 37.9425C54.0088 39.4246 50.0059 39.8686 49.8588 40.7596C49.7117 41.6506 51.4911 44.1678 50.897 45.2058C50.3029 46.2438 47.6353 46.2438 47.6353 46.2438C47.6353 46.2438 51.0441 48.1699 50.3029 48.911C49.5617 49.652 48.9676 51.5781 47.4853 51.7281C46.0029 51.878 48.3735 56.6212 46.0029 57.3623C43.6294 58.1033 35.0294 56.4742 35.0294 56.4742L34.8853 57.871L11.8588 52.5897Z"/><path d="M9.85587 52.1309L35.8323 58.0885V59.5588H8.28528L9.85587 52.1309Z"/><path d="M26.4941 36.9194C25.7765 35.9343 24.8441 35.4991 23.647 35.7343C23.0618 35.849 22.5823 36.1548 22.197 36.6077C21.8176 37.0547 21.6147 37.5781 21.5676 38.175C20.3794 38.2015 19.2323 38.0339 18.1088 37.6898C18.3088 36.4989 17.9823 35.5109 16.9618 34.858C15.85 34.1464 14.7529 34.2964 13.7029 35.1109C13.4353 34.8198 13.1618 34.5346 12.9029 34.2317C12.4323 33.6818 12.0294 33.0849 11.6823 32.4497C11.6294 32.3527 11.6206 32.3027 11.7265 32.2291C12.7118 31.5381 13.1059 30.453 12.8 29.2974C12.5294 28.2652 11.5912 27.5095 10.4353 27.3919C10.4118 27.3889 10.3853 27.386 10.3618 27.383C10.2029 26.9596 10.5 24.7247 10.8206 23.9102C12.3118 24.2395 13.3735 23.4338 13.8206 22.631C14.2912 21.7812 14.3529 20.5432 13.4206 19.4934C14.2382 18.6348 15.1765 17.9408 16.2235 17.385C16.9765 18.476 17.9765 18.967 19.2706 18.6053C20.5 18.2613 21.0912 17.3644 21.2147 16.1235C22 16.0353 23.8706 16.3029 24.6765 16.6204C24.4412 17.9496 24.8323 19.0112 26.047 19.6728C26.9647 20.1727 28.1618 20.0698 29.0853 19.2376C29.9353 20.0639 30.6323 20.999 31.1735 22.0517C30.1441 22.7692 29.6912 23.7161 29.9382 24.9453C30.0559 25.5275 30.3676 26.0068 30.8265 26.3862C31.2853 26.7655 31.8176 26.9567 32.4176 26.9978C32.4294 28.1858 32.2618 29.3327 31.9029 30.453C30.6618 30.2413 29.647 30.6001 29 31.6793C28.347 32.7643 28.5147 33.8318 29.2853 34.8257C28.4676 35.6873 27.5353 36.3754 26.4941 36.9194ZM22.6441 32.2556C25.5118 31.5146 27.1 28.7034 26.5059 26.0245C25.8676 23.1368 22.9912 21.3548 20.1323 22.0488C17.2882 22.7398 15.5559 25.5863 16.25 28.4034C16.95 31.2382 19.8059 32.9584 22.6441 32.2556Z"/><path d="M47.2706 17.3114C47.0147 18.0054 46.6942 18.67 46.2971 19.3022C45.1442 18.7935 44.0736 18.8935 43.1824 19.7815C42.2824 20.6755 42.1853 21.7488 42.6883 22.9044C41.6883 23.522 40.6177 23.9631 39.4736 24.2365C39.0177 23.1073 38.2206 22.4575 37.003 22.3898C36.4089 22.3575 35.8677 22.5369 35.3824 22.8809C34.9059 23.222 34.5794 23.6808 34.3883 24.2483C33.2294 23.9836 32.1589 23.5396 31.153 22.9309C31.6383 21.8252 31.5618 20.7872 30.7324 19.905C29.8294 18.9435 28.7294 18.8199 27.5118 19.3522C27.3236 19.0023 27.1265 18.6612 26.953 18.3053C26.6324 17.6584 26.3853 16.9791 26.2059 16.2793C26.1765 16.1705 26.1824 16.1234 26.3 16.0764C27.4236 15.647 28.0706 14.6913 28.0589 13.4975C28.0471 12.43 27.3265 11.4684 26.2353 11.0715C26.2118 11.0626 26.1883 11.0538 26.1647 11.045C26.1147 10.5951 26.95 8.50138 27.4589 7.78976C28.8236 8.47198 30.053 7.95443 30.6824 7.28398C31.3471 6.57529 31.7089 5.39023 31.0618 4.14342C31.4294 3.91111 31.8089 3.70527 32.2 3.52295M36.8824 18.77C39.8442 18.7523 42.0736 16.4145 42.153 13.6739C42.2412 10.7186 39.8883 8.28378 36.9471 8.26026C34.0206 8.23379 31.6442 10.5686 31.6265 13.471C31.6089 16.3881 33.9559 18.7553 36.8824 18.77Z"/></g>
    </symbol>
    <symbol id="icon-broadcast-start" viewBox="0 0 38 37">
      <g fill="none" stroke="#fff" stroke-linecap="round" stroke-linejoin="round" stroke-miterlimit="10" stroke-width="2"><path d="M29.9037 29.8238C29.9037 23.6842 24.9602 18.7407 18.8207 18.7407C14.7542 18.7407 11.1662 20.9334 9.25254 24.2424C9.25254 24.2424 7.57812 26.5547 7.57812 29.6244"/><path d="M18.8212 18.7408C22.5863 18.7408 25.6385 15.6886 25.6385 11.9235C25.6385 8.1584 22.5863 5.1062 18.8212 5.1062C15.0561 5.1062 12.0039 8.1584 12.0039 11.9235C12.0039 15.6886 15.0561 18.7408 18.8212 18.7408Z"/><path d="M13.1196 29.8239H2.35548C1.63787 29.8239 1 29.2259 1 28.4684V2.35548C1 1.59801 1.59801 1 2.35548 1H35.6445C36.3621 1 37 1.59801 37 2.35548V28.5083C37 29.2259 36.402 29.8638 35.6445 29.8638H24.3223"/><path d="M21.4923 29.9434L17.2266 32.3753V27.4717L21.4923 29.9434Z"/><path d="M18.6607 35.3653C21.7212 35.3653 24.2022 32.8843 24.2022 29.8238C24.2022 26.7633 21.7212 24.2822 18.6607 24.2822C15.6002 24.2822 13.1191 26.7633 13.1191 29.8238C13.1191 32.8843 15.6002 35.3653 18.6607 35.3653Z"/></g>
    </symbol>
    <symbol id="icon-broadcast" viewBox="0 0 23 23">
      <g fill="none" stroke="#000" stroke-linecap="round" stroke-linejoin="round" stroke-miterlimit="10"><path d="M18.973 19.0291C18.973 15.1888 15.8163 12.0967 11.8958 12.0967C9.29915 12.0967 7.00798 13.4682 5.78601 15.5379C5.78601 15.5379 4.7168 16.9843 4.7168 18.9044"/><path d="M11.8962 12.0972C14.3004 12.0972 16.2494 10.1881 16.2494 7.83302C16.2494 5.47798 14.3004 3.56885 11.8962 3.56885C9.49198 3.56885 7.54297 5.47798 7.54297 7.83302C7.54297 10.1881 9.49198 12.0972 11.8962 12.0972Z"/><path d="M7.25472 19.0292H1.38118C0.922946 19.0292 0.515625 18.6552 0.515625 18.1814V1.84785C0.515625 1.37405 0.897488 1 1.38118 1H22.6382C23.0965 1 23.5038 1.37405 23.5038 1.84785V18.2063C23.5038 18.6552 23.1219 19.0542 22.6382 19.0542H16.4083" stroke-opacity=".5"/><path opacity=".5" d="M13.6009 19.1042L10.877 20.6253V17.5581L13.6009 19.1042Z"/><path opacity=".5" d="M11.7925 22.4954C13.7468 22.4954 15.3311 20.9435 15.3311 19.0292C15.3311 17.1149 13.7468 15.563 11.7925 15.563C9.83819 15.563 8.25391 17.1149 8.25391 19.0292C8.25391 20.9435 9.83819 22.4954 11.7925 22.4954Z"/></g>
    </symbol>
    <symbol id="icon-calendar" viewBox="0 0 47 47">
      <g fill="none" stroke="currentColor" stroke-linecap="round" stroke-linejoin="round" stroke-miterlimit="10"><path d="M41.748 4.962h4.647v41.383H.605V4.962H4.7M11.722 4.962h23.306"/><path d="M17.427 16.677h-4.095v4.637h4.095v-4.637zM25.619 16.677h-4.095v4.637h4.095v-4.637zM33.808 16.677h-4.095v4.637h4.095v-4.637zM41.997 16.677h-4.094v4.637h4.094v-4.637zM9.238 25.952H5.143v4.637h4.095v-4.637zM17.427 25.952h-4.095v4.637h4.095v-4.637zM25.619 25.952h-4.095v4.637h4.095v-4.637zM33.808 25.952h-4.095v4.637h4.095v-4.637zM41.997 25.952h-4.094v4.637h4.094v-4.637zM9.238 35.225H5.143v4.637h4.095v-4.637zM17.427 35.225h-4.095v4.637h4.095v-4.637zM25.619 35.225h-4.095v4.637h4.095v-4.637zM33.808 35.225h-4.095v4.637h4.095v-4.637zM.605 11.194h45.79M41.566 9.117h4.829M11.722 9.117h23.549M.605 9.117H4.7M41.627 7.107h4.768M11.722 7.107H35.15M.605 7.107H4.7M9.543 1.154H7.199v8.11h2.344v-8.11zM39.569 1.154h-2.344v8.11h2.344v-8.11z"/></g>
    </symbol>
    <symbol id="icon-chart" viewBox="0 0 22 20">
      <g fill="none" stroke="currentColor" stroke-linecap="round" stroke-linejoin="round" stroke-miterlimit="10"><path d="M5.46 12.895c.596 0 1.079-.474 1.079-1.059s-.483-1.06-1.079-1.06c-.595 0-1.078.475-1.078 1.06 0 .585.483 1.06 1.078 1.06zM9.632 9.884c.595 0 1.078-.475 1.078-1.06 0-.585-.483-1.059-1.078-1.059-.596 0-1.078.474-1.078 1.06 0 .584.482 1.059 1.078 1.059zM13.561 12.93c.596 0 1.079-.474 1.079-1.059s-.483-1.059-1.079-1.059c-.595 0-1.078.474-1.078 1.06 0 .584.483 1.058 1.078 1.058zM1 11.871l3.382-.036M6.362 11.257l2.375-1.84M12.671 11.274l-2.193-1.795M14.637 7.157h3.58v3.384M14.288 11.086l3.93-3.93"/><path d="M2.384 9.388V3.765c0-1.426 1.188-2.594 2.64-2.594H18.36C19.812 1.171 21 2.34 21 3.765v13.098c0 1.426-1.188 2.594-2.64 2.594H5.024a2.654 2.654 0 0 1-1.961-.863s-.68-.48-.68-2.063v-2.354" opacity=".5"/></g>
    </symbol>
    <symbol id="icon-clock" viewBox="0 0 34 34">
      <g fill="none" stroke="currentColor" stroke-linecap="round" stroke-linejoin="round" stroke-miterlimit="10"><path d="M28.2382 19.0607C28.9045 14.5306 26.8042 9.84848 22.5929 7.42956C17.0923 4.27555 10.0782 6.17302 6.92419 11.6735C3.77018 17.174 5.66765 24.1882 11.1682 27.3422C15.4121 29.7756 20.2536 29.4388 23.8349 26.5238"/><path d="M32.4279 13.1729L28.3577 19.5171L23.5814 14.1433"/><path d="M16.8787 11.6411V17.4313L12.2437 22.0664"/><path stroke-opacity=".3" d="M33 17.4276C33 26.2632 25.8374 33.4294 16.9982 33.4294C8.15899 33.4294 1 26.2632 1 17.4276C1 8.59201 8.16261 1.42578 17.0018 1.42578C23.1577 1.42578 28.5025 4.90207 31.1786 10.0006"/></g>
    </symbol>
    <symbol id="icon-close" viewBox="0 0 10 10">
      <path fill="none" stroke="currentColor" d="M0.757324 0.757325L9.24261 9.24261M0.757324 9.24261L9.24261 0.757324"/>
    </symbol>
    <symbol id="icon-comment" viewBox="0 0 21 20">
      <g fill="none" stroke="currentColor" stroke-linecap="round" stroke-linejoin="round" stroke-miterlimit="10"><path d="M19.36 10.012a8.855 8.855 0 0 1-1.153 4.376c-.323.571 1.972 3.693 1.535 4.18-.553.617-3.875-1.429-4.58-.982a9.265 9.265 0 0 1-4.981 1.441C5.11 19.027 1 14.992 1 10.012S5.11 1 10.178 1c5.07 0 9.181 4.035 9.181 9.012z" opacity=".5"/><path d="M7.074 5.72h6.385M7.074 8.527h3.813M7.074 11.335h5.813M7.074 14.142H10.6"/></g>
    </symbol>
    <symbol id="icon-eye-slash" viewBox="0 0 24 24">
      <path d="M 4.2070312 2.7929688 L 2.7929688 4.2070312 L 5.0761719 6.4902344 C 2.1993447 8.8382005 1 12 1 12 C 1 12 4 20 12 20 C 14.075568 20 15.806003 19.45473 17.242188 18.65625 L 19.792969 21.207031 L 21.207031 19.792969 L 4.2070312 2.7929688 z M 12 4 C 10.788 4 9.7057969 4.1997187 8.7167969 4.5117188 L 11.277344 7.0722656 C 11.514344 7.0372656 11.753 7 12 7 C 14.761 7 17 9.239 17 12 C 17 12.247 16.962734 12.485656 16.927734 12.722656 L 20.357422 16.152344 C 22.204422 14.102344 23 12 23 12 C 23 12 20 4 12 4 z M 7.8339844 9.2480469 L 9.296875 10.710938 C 9.1081595 11.100829 9 11.536566 9 12 C 9 13.657 10.343 15 12 15 C 12.463434 15 12.899171 14.89184 13.289062 14.703125 L 14.751953 16.166016 C 13.962039 16.689758 13.019271 17 12 17 C 9.239 17 7 14.761 7 12 C 7 10.980729 7.3102415 10.037961 7.8339844 9.2480469 z"/>
    </symbol>
    <symbol id="icon-eye" viewBox="0 0 24 24">
      <path d="M 12 4 C 4 4 1 12 1 12 C 1 12 4 20 12 20 C 20 20 23 12 23 12 C 23 12 20 4 12 4 z M 12 7 C 14.761 7 17 9.239 17 12 C 17 14.761 14.761 17 12 17 C 9.239 17 7 14.761 7 12 C 7 9.239 9.239 7 12 7 z M 12 9 A 3 3 0 0 0 9 12 A 3 3 0 0 0 12 15 A 3 3 0 0 0 15 12 A 3 3 0 0 0 12 9 z"/>
    </symbol>
    <symbol id="icon-fb" viewBox="0 0 27 27">
      <path fill="none" stroke="currentColor" stroke-linecap="round" stroke-linejoin="round" stroke-miterlimit="10" d="M21.0815 0.773926H5.72264C3.0066 0.773926 0.803833 2.9767 0.803833 5.69274V21.0515C0.803833 23.7676 3.0066 25.9704 5.72264 25.9704H13.7282V15.3807H11.5896V12.269H13.7282C13.7282 12.269 13.5179 9.73115 14.4981 7.77432C15.4783 5.82105 17.5492 4.97987 19.2636 4.94422C20.9816 4.90858 22.0652 5.32917 22.0652 5.32917L21.5413 8.55492C21.5413 8.55492 19.6985 7.95254 18.7183 8.86858C17.5278 9.99135 17.9306 12.269 17.9306 12.269H20.6644V15.3807H17.9306V25.9739H21.0779C23.7939 25.9739 25.9967 23.7712 25.9967 21.0551V5.69274C26.0038 2.9767 23.8011 0.773926 21.0815 0.773926Z"/>
    </symbol>
    <symbol id="icon-google-maps" viewBox="0 0 32 33">
      <g fill="none" stroke="currentColor" stroke-linecap="round" stroke-linejoin="round" stroke-miterlimit="10"><path d="M15.762 13.734a3.907 3.907 0 1 0 0-7.815 3.907 3.907 0 0 0 0 7.815z"/><path d="M15.762 27.773S7.406 18.257 7.406 9.575C7.402 4.003 11.454 1 15.762 1"/><path d="M9.537 22.924C8.216 22.924 1 24.3 1 27.05c0 3.11 8.959 4.56 14.646 4.56" opacity=".5"/><path d="M15.762 27.773s8.356-9.516 8.356-18.198C24.118 4.003 20.066 1 15.762 1"/><path d="M21.986 22.924c1.322 0 8.538 1.375 8.538 4.126 0 3.11-8.959 4.56-14.646 4.56" opacity=".5"/></g>
    </symbol>
    <symbol id="icon-hexagon" viewBox="0 0 48 55">
      <path d="M24 0L48 13.75V41.25L24 55L0 41.25V13.75L24 0Z" fill="currentColor"/>
    </symbol>
    <symbol id="icon-instagram" viewBox="0 0 23 23">
      <path fill="none" d="M18.5751 21.5193H4.42489C2.56223 21.5193 1 19.9871 1 18.0944V4.42489C1 2.56223 2.53219 1 4.42489 1H18.5751C20.4378 1 22 2.53219 22 4.42489V18.1245C21.97 19.9871 20.4378 21.5193 18.5751 21.5193Z" stroke="currentColor" stroke-miterlimit="10" stroke-linecap="round" stroke-linejoin="round"/><path fill="none" d="M11.4849 16.3819C14.4715 16.3819 16.8926 13.9607 16.8926 10.9741C16.8926 7.98753 14.4715 5.56641 11.4849 5.56641C8.49827 5.56641 6.07715 7.98753 6.07715 10.9741C6.07715 13.9607 8.49827 16.3819 11.4849 16.3819Z" stroke="currentColor" stroke-miterlimit="10" stroke-linecap="round" stroke-linejoin="round"/><path fill="none" d="M17.7639 5.83697C18.0958 5.83697 18.3648 5.56796 18.3648 5.23611C18.3648 4.90427 18.0958 4.63525 17.7639 4.63525C17.4321 4.63525 17.1631 4.90427 17.1631 5.23611C17.1631 5.56796 17.4321 5.83697 17.7639 5.83697Z" stroke="currentColor" stroke-miterlimit="10" stroke-linecap="round" stroke-linejoin="round"/>
    </symbol>
    <symbol id="icon-intro" viewBox="0 0 551 71">
      <path fill="#DDF0F9" d="M0 0h325v45H0l20-22.5L0 0z"/><path fill="#B1CAD6" d="M281 26l44-26v45l-44 26V26z"/><path fill="#fff" d="M281 26h270l-20 22.5L551 71H281V26z"/>
    </symbol>
    <symbol id="icon-login" viewBox="0 0 29 29">
      <g fill="none" stroke="currentColor" stroke-linecap="round" stroke-linejoin="round" stroke-miterlimit="10"><path d="M12.64 12.507c-1.623-3.105-1.067-6.917 1.563-9.52 3.25-3.219 8.529-3.219 11.78 0a8.192 8.192 0 0 1 0 11.663c-2.549 2.523-6.353 3.052-9.435 1.623l-2.234 2.22v3.05h-3.082v3.052H8.149l-1.627 1.612H2.526v-3.55l8.694-8.607 1.466-1.452-.046-.091z"/><path d="M24.137 7.426c.637.63.637 1.649 0 2.28-.638.63-1.666.63-2.303 0l-2.61-2.585a1.599 1.599 0 0 1 0-2.28 1.638 1.638 0 0 1 2.302 0l2.61 2.585z"/><path d="M28.202 16.402c-.845 6.78-6.683 12.028-13.762 12.028-1.85 0-3.62-.361-5.235-1.011M1.635 19.967A13.523 13.523 0 0 1 .575 14.7c0-6.807 5.002-12.454 11.566-13.54" opacity=".5"/></g>
    </symbol>
    <symbol id="icon-mak" viewBox="0 0 143 50">
      <path d="M71.7429 35.7367H69.0396V43.6301H63.2007V22.9775H69.0396V30.9791H71.851L76.8249 22.9775H82.9883L76.5005 32.9254L82.9883 43.6301H76.3924L71.7429 35.7367Z" fill="#000"/><path d="M102.884 22.9775V43.6301H97.1536V27.6271H91.2065L91.0984 30.9791C90.9903 33.8986 90.774 36.3855 90.3415 38.2237C89.909 40.0619 89.2602 41.4676 88.3952 42.5489C87.422 43.522 86.1245 44.0627 84.5025 44.0627C83.7456 44.0627 82.8806 43.9545 81.7993 43.7383L82.1237 38.9806C82.34 39.0887 82.6643 39.0887 82.8806 39.0887C83.6375 39.0887 84.2863 38.7643 84.6107 38.2237C85.0432 37.5749 85.3676 36.7099 85.4757 35.6286C85.692 34.5473 85.8001 33.1416 85.8001 31.4116L86.1245 23.1938H102.884V22.9775Z" fill="#000"/><path d="M125.159 22.9775L116.617 38.9806C115.752 40.7107 114.562 42.0082 113.265 42.8732C111.967 43.7383 110.562 44.1708 108.94 44.1708C107.75 44.1708 106.561 43.9545 105.263 43.4139L106.669 39.0887C107.426 39.305 108.183 39.4131 108.723 39.4131C109.264 39.4131 109.805 39.305 110.237 38.9806C110.67 38.7643 111.102 38.3318 111.427 37.7912L111.751 37.1424L102.344 22.9775H108.507L114.779 32.2766L119.428 22.9775H125.159Z" fill="#000"/><path d="M124.186 22.9775H141.486V27.519H129.917V30.8709H135.215C137.702 30.8709 139.648 31.4116 140.946 32.4929C142.243 33.5742 143 35.088 143 37.0343C143 39.0887 142.243 40.7107 140.729 41.9001C139.216 43.0895 137.161 43.6301 134.458 43.6301H124.078V22.9775H124.186ZM134.134 39.5212C135.107 39.5212 135.864 39.305 136.404 38.9806C136.945 38.5481 137.161 38.0074 137.161 37.2505C137.161 35.8449 136.188 35.088 134.134 35.088H129.917V39.5212H134.134Z" fill="#000"/><path d="M76.2846 18.4364V9.24546L71.6351 16.9226H70.5538L66.0124 9.35359V18.4364H63.5254V4.48779H65.688L71.2025 13.6787L76.609 4.48779H78.7716V18.4364H76.2846Z" fill="#1B75BC"/><path d="M89.6927 15.1916H82.7725L81.3668 18.4354H78.6636L84.9351 4.48682H87.5301L93.8016 18.4354H91.0984L89.6927 15.1916ZM88.9358 13.2453L86.3407 7.19004L83.6375 13.2453H88.9358Z" fill="#1B75BC"/><path d="M98.9915 12.5965L96.6126 14.8672V18.4354H93.8013V4.48682H96.6126V11.6233L104.074 4.48682H107.209L100.83 10.7583L105.912 18.4354H102.668L98.9915 12.5965Z" fill="#1B75BC"/><path d="M5.02761 22.2203C6.69971 22.2203 8.05521 20.8647 8.05521 19.1926C8.05521 17.5205 6.69971 16.165 5.02761 16.165C3.35551 16.165 2 17.5205 2 19.1926C2 20.8647 3.35551 22.2203 5.02761 22.2203Z" stroke="#92278F" stroke-width="3" stroke-miterlimit="10" stroke-linecap="round" stroke-linejoin="round" fill="#D2ECF7"/><path d="M15.8406 37.7906C17.5127 37.7906 18.8682 36.4351 18.8682 34.763C18.8682 33.0909 17.5127 31.7354 15.8406 31.7354C14.1685 31.7354 12.813 33.0909 12.813 34.763C12.813 36.4351 14.1685 37.7906 15.8406 37.7906Z" stroke="#92278F" stroke-width="3" stroke-miterlimit="10" stroke-linecap="round" stroke-linejoin="round" fill="#D2ECF7"/><path d="M29.573 48.3872C31.2451 48.3872 32.6006 47.0317 32.6006 45.3596C32.6006 43.6875 31.2451 42.332 29.573 42.332C27.9009 42.332 26.5454 43.6875 26.5454 45.3596C26.5454 47.0317 27.9009 48.3872 29.573 48.3872Z" stroke="#92278F" stroke-width="3" stroke-miterlimit="10" stroke-linecap="round" stroke-linejoin="round" fill="#D2ECF7"/><path d="M41.4673 20.7061L49.9013 20.9223" stroke="#92278F" stroke-width="3" stroke-miterlimit="10" stroke-linecap="round" stroke-linejoin="round"/><path d="M7.83887 20.2739L21.1387 22.5446" stroke="#92278F" stroke-width="3" stroke-miterlimit="10" stroke-linecap="round" stroke-linejoin="round"/><path d="M28.5995 42.3319L24.8149 26.437" stroke="#92278F" stroke-width="3" stroke-miterlimit="10" stroke-linecap="round" stroke-linejoin="round"/><path d="M24.0584 26.5454C25.7305 26.5454 27.086 25.1899 27.086 23.5178C27.086 21.8457 25.7305 20.4902 24.0584 20.4902C22.3863 20.4902 21.0308 21.8457 21.0308 23.5178C21.0308 25.1899 22.3863 26.5454 24.0584 26.5454Z" stroke="#92278F" stroke-width="3" stroke-miterlimit="10" stroke-linecap="round" stroke-linejoin="round" fill="#D2ECF7"/><path d="M29.3567 14.2188C31.0288 14.2188 32.3843 12.8633 32.3843 11.1912C32.3843 9.51908 31.0288 8.16357 29.3567 8.16357C27.6846 8.16357 26.3291 9.51908 26.3291 11.1912C26.3291 12.8633 27.6846 14.2188 29.3567 14.2188Z" stroke="#92278F" stroke-width="3" stroke-miterlimit="10" stroke-linecap="round" stroke-linejoin="round" fill="#D2ECF7"/><path d="M14.1101 9.67728C15.7822 9.67728 17.1377 8.32178 17.1377 6.64968C17.1377 4.97758 15.7822 3.62207 14.1101 3.62207C12.438 3.62207 11.0825 4.97758 11.0825 6.64968C11.0825 8.32178 12.438 9.67728 14.1101 9.67728Z" stroke="#92278F" stroke-width="3" stroke-miterlimit="10" stroke-linecap="round" stroke-linejoin="round" fill="#D2ECF7"/><path d="M18.0029 32.6L22.5443 26.1123" stroke="#92278F" stroke-width="3" stroke-miterlimit="10" stroke-linecap="round" stroke-linejoin="round"/><path d="M24.8149 20.4904L27.9507 13.8945" stroke="#92278F" stroke-width="3" stroke-miterlimit="10" stroke-linecap="round" stroke-linejoin="round"/><path d="M52.2797 17.7868L45.5757 7.29834" stroke="#92278F" stroke-width="3" stroke-miterlimit="10" stroke-linecap="round" stroke-linejoin="round"/><path d="M43.5217 8.05521C45.1938 8.05521 46.5494 6.69971 46.5494 5.02761C46.5494 3.35551 45.1938 2 43.5217 2C41.8496 2 40.4941 3.35551 40.4941 5.02761C40.4941 6.69971 41.8496 8.05521 43.5217 8.05521Z" stroke="#92278F" stroke-width="3" stroke-miterlimit="10" stroke-linecap="round" stroke-linejoin="round" fill="#D2ECF7"/><path d="M52.9285 23.7339C54.6006 23.7339 55.9561 22.3784 55.9561 20.7063C55.9561 19.0342 54.6006 17.6787 52.9285 17.6787C51.2564 17.6787 49.9009 19.0342 49.9009 20.7063C49.9009 22.3784 51.2564 23.7339 52.9285 23.7339Z" stroke="#92278F" stroke-width="3" stroke-miterlimit="10" stroke-linecap="round" stroke-linejoin="round" fill="#D2ECF7"/><path d="M31.3032 13.5703L36.169 18.0036" stroke="#92278F" stroke-width="3" stroke-miterlimit="10" stroke-linecap="round" stroke-linejoin="round"/><path d="M38.2234 23.5176C39.8955 23.5176 41.251 22.1621 41.251 20.49C41.251 18.8179 39.8955 17.4624 38.2234 17.4624C36.5513 17.4624 35.1958 18.8179 35.1958 20.49C35.1958 22.1621 36.5513 23.5176 38.2234 23.5176Z" stroke="#92278F" stroke-width="3" stroke-miterlimit="10" stroke-linecap="round" stroke-linejoin="round" fill="#D2ECF7"/><path d="M42.8728 8.05518L39.6289 17.7868" stroke="#92278F" stroke-width="3" stroke-miterlimit="10" stroke-linecap="round" stroke-linejoin="round"/><path d="M17.1377 7.29834L26.5449 9.89343" stroke="#92278F" stroke-width="3" stroke-miterlimit="10" stroke-linecap="round" stroke-linejoin="round"/><path d="M32.2764 43.9541L51.1989 23.1934" stroke="#92278F" stroke-width="3" stroke-miterlimit="10" stroke-linecap="round" stroke-linejoin="round"/><path d="M32.0601 9.67731L40.6022 5.78467" stroke="#92278F" stroke-width="3" stroke-miterlimit="10" stroke-linecap="round" stroke-linejoin="round"/><path d="M27.0859 23.1934L35.4119 21.4634" stroke="#92278F" stroke-width="3" stroke-miterlimit="10" stroke-linecap="round" stroke-linejoin="round"/><path d="M18.4355 36.7095L26.9777 43.846" stroke="#92278F" stroke-width="3" stroke-miterlimit="10" stroke-linecap="round" stroke-linejoin="round"/><path d="M6.64941 21.7876L13.7859 32.6005" stroke="#92278F" stroke-width="3" stroke-miterlimit="10" stroke-linecap="round" stroke-linejoin="round"/><path d="M12.2722 9.24463L6.86572 16.7055" stroke="#92278F" stroke-width="3" stroke-miterlimit="10" stroke-linecap="round" stroke-linejoin="round"/><path d="M26.4371 11.8398L8.05518 18.4357" stroke="#92278F" stroke-width="3" stroke-miterlimit="10" stroke-linecap="round" stroke-linejoin="round"/><path d="M37.7908 23.5176L30.6543 42.332" stroke="#92278F" stroke-width="3" stroke-miterlimit="10" stroke-linecap="round" stroke-linejoin="round"/>
    </symbol>
    <symbol id="icon-ocean" viewBox="0 0 58 58">
      <g fill="none" stroke="currentColor" stroke-linecap="round" stroke-linejoin="round" stroke-miterlimit="10"><path d="M15.296 53.14C6.738 48.376.956 39.28.956 28.84.955 13.465 13.501 1 28.977 1 44.453 1 57 13.465 57 28.839c0 10.347-5.681 19.375-14.115 24.176"/><path d="M12.846 44.286l9.695 9.632s4.934 4.553 11.236 1.575c4.605-2.172 5.303-6.392 5.303-7.517v-7.112s-.182-2.205-2.22-2.205c-2.039 0-2.039 2.205-2.039 2.205v-2.386s0-2.295-2.31-2.295-2.31 2.476-2.31 2.476v2.205-2.205s-.045-2.476-2.177-2.476c-2.06 0-2.06 2.656-2.06 2.656v2.251-11.479s-.09-2.306-2.322-2.306c-2.23 0-2.23 2.306-2.23 2.306v16.564l-5.237-5.197s-1.893-1.43-3.33 0c-1.436 1.43 0 3.308 0 3.308z"/><path d="M18.686 31.102a6.136 6.136 0 0 1-1.217-3.677c0-3.417 2.789-6.187 6.228-6.187 3.44 0 6.228 2.77 6.228 6.187a6.147 6.147 0 0 1-1.39 3.898M33.263 22.89h13.278M33.263 26.437h7.693M33.263 30.076h14.652M7.804 16.339h42.583M4.692 22.89h5.22M3.409 26.437h4.395M3.409 30.076h7.876M29.695 3.787c.148.53.228 1.089.228 1.667 0 3.417-2.789 6.188-6.228 6.188a6.224 6.224 0 0 1-6.003-4.534M33.126 6.639h4.945M33.126 10.277h9.157"/></g>
    </symbol>
    <symbol id="icon-pay" viewBox="0 0 47 42">
      <g fill="none" stroke="currentColor" stroke-linecap="round" stroke-linejoin="round" stroke-miterlimit="10" stroke-width="1.5"><path d="M33.062 5.587h4.143a2.621 2.621 0 0 1 2.623 2.622v3.459M4.066 40.916h-.443A2.621 2.621 0 0 1 1 38.293V8.21a2.621 2.621 0 0 1 2.623-2.622h14.9M44.63 29.594v8.699a2.621 2.621 0 0 1-2.622 2.623H4.589"/><path d="M1 8.209c0 3.458 2.34 3.458 3.786 3.458h37.222a2.621 2.621 0 0 1 2.623 2.623v8.236"/><path d="M35.272 11.672l-3.221-8.87-23.822 8.87"/><path d="M6.155 11.672L27.188 1.327l1.445 2.749M35.499 28.023c0 .87.705 1.57 1.57 1.57h7.36A1.57 1.57 0 0 0 46 28.024v-3.922c0-.87-.705-1.57-1.57-1.57h-7.36c-.871 0-1.571.704-1.571 1.57v3.922z"/><path d="M38.695 26.428a.443.443 0 1 0 0-.886.443.443 0 0 0 0 .886z"/></g>
    </symbol>
    <symbol id="icon-people" viewBox="0 0 58 58">
      <g fill="none" stroke="currentColor" stroke-linecap="round" stroke-linejoin="round" stroke-miterlimit="10"><path d="M15.296 53.14C6.738 48.376.956 39.28.956 28.84.955 13.465 13.501 1 28.977 1 44.453 1 57 13.465 57 28.839c0 10.347-5.681 19.375-14.115 24.176"/><path d="M12.846 44.286l9.695 9.632s4.934 4.553 11.236 1.575c4.605-2.172 5.303-6.392 5.303-7.517v-7.112s-.182-2.205-2.22-2.205c-2.039 0-2.039 2.205-2.039 2.205v-2.386s0-2.295-2.31-2.295-2.31 2.476-2.31 2.476v2.205-2.205s-.045-2.476-2.177-2.476c-2.06 0-2.06 2.656-2.06 2.656v2.251-11.479s-.09-2.306-2.322-2.306c-2.23 0-2.23 2.306-2.23 2.306v16.564l-5.237-5.197s-1.893-1.43-3.33 0c-1.436 1.43 0 3.308 0 3.308z"/><path d="M18.686 31.102a6.136 6.136 0 0 1-1.217-3.677c0-3.417 2.789-6.187 6.228-6.187 3.44 0 6.228 2.77 6.228 6.187a6.147 6.147 0 0 1-1.39 3.898M33.263 22.89h13.278M33.263 26.437h7.693M33.263 30.076h14.652M7.804 16.339h42.583M4.692 22.89h5.22M3.409 26.437h4.395M3.409 30.076h7.876M29.695 3.787c.148.53.228 1.089.228 1.667 0 3.417-2.789 6.188-6.228 6.188a6.224 6.224 0 0 1-6.003-4.534M33.126 6.639h4.945M33.126 10.277h9.157"/></g>
    </symbol>
    <symbol id="icon-play" viewBox="0 0 47 54">
      <path d="M46.5 26.8468L0 53.6936L2.34702e-06 0L46.5 26.8468Z" fill="#fff"/>
    </symbol>
    <symbol id="icon-reload" viewBox="0 0 32 25">
      <g fill="none" stroke="currentColor" stroke-linecap="round" stroke-linejoin="round" stroke-miterlimit="10"><path d="M27.384 11.154c.674 4.588-1.45 9.333-5.71 11.784-5.561 3.196-12.66 1.272-15.85-4.298" opacity=".5"/><path d="M31.48 14.976l-4.017-4.952-4.948 4.953" opacity=".5"/><path d="M4.616 13.847c-.674-4.59 1.45-9.334 5.71-11.785C15.888-1.133 22.986.79 26.176 6.36"/><path d="M.519 10.024l4.021 4.953 4.945-4.953"/></g>
    </symbol>
    <symbol id="icon-stripe" viewBox="0 0 325 71">
      <path d="M0 0H325V45H0L20 22.5L0 0Z" fill="#DDF0F9"/><path d="M281 26L325 0V45L281 71V26Z" fill="#B1CAD6"/>
    </symbol>
    <symbol id="icon-telegram" viewBox="0 0 25 22">
      <path fill="none" d="M13.6274 16.6753L9.11568 20.044L7.46051 12.0841L1 9.34023L24.2258 1L19.634 21.185L10.6908 14.2031L18.5395 5.89004L7.46051 12.0841" stroke="currentColor" stroke-miterlimit="10" stroke-linecap="round" stroke-linejoin="round"/><path fill="none" d="M9.11572 20.044L10.6908 14.2031" stroke="currentColor" stroke-miterlimit="10" stroke-linecap="round" stroke-linejoin="round"/>
    </symbol>
    <symbol id="icon-triangle-right-blue" viewBox="0 0 11 12">
      <path fill="none" stroke="#3BA9DC" stroke-linecap="round" stroke-linejoin="round" stroke-miterlimit="10" stroke-width="1.5" d="M1.42126 10.5816V1.41846L9.86435 6.00144L1.42126 10.5816Z"/>
    </symbol>
    <symbol id="icon-triangle-right" viewBox="0 0 11 12">
      <path fill="none" stroke="currentColor" stroke-linecap="round" stroke-linejoin="round" stroke-miterlimit="10" stroke-width="1.5" d="M1.42126 10.5816V1.41846L9.86435 6.00144L1.42126 10.5816Z"/>
    </symbol>
    <symbol id="icon-triangle" viewBox="0 0 12 11">
      <path d="M1.64737 1.35998L10.8105 1.35999L6.22756 9.80307L1.64737 1.35998Z" stroke="#3BA9DC" stroke-width="1.5" stroke-miterlimit="10" stroke-linecap="round" stroke-linejoin="round"/>
    </symbol>
    <symbol id="icon-vk" viewBox="0 0 34 23">
      <path fill="none" stroke="currentColor" stroke-linecap="round" stroke-linejoin="round" stroke-miterlimit="10" d="M6.68976 1.85365C7.43115 1.85365 6.36184 3.11543 7.71273 7.43187C8.25095 9.14989 9.08145 11.0925 10.5713 12.3863C12.5531 14.1008 12.824 13.1919 12.824 11.595C12.824 9.9982 12.824 5.38236 12.3713 4.17405C11.9187 2.96573 11.0882 2.91226 11.5373 1.94276C11.826 1.31543 14.0644 1.41167 15.9999 1.41167C17.9389 1.41167 18.969 1.19424 18.969 2.7483C18.969 4.30236 18.969 9.13563 18.969 10.2121C18.969 11.2885 19.7104 12.1119 21.4426 9.99464C23.1749 7.88098 24.8216 4.47345 25.2351 3.52177C25.6486 2.57008 25.9765 1.38672 27.6268 1.38672H30.8026C32.0074 1.38672 32.5955 1.99266 31.544 4.17048C31.544 4.17048 28.8494 9.05721 27.9975 10.319C26.5753 12.4327 26.3686 12.6073 28.0795 14.3966C29.3983 15.776 31.0022 18.0002 32.011 19.6612C32.6739 20.7519 32.9163 22.035 31.1448 22.035C28.3005 22.035 30.5674 22.035 27.723 22.035C25.8268 22.035 25.7412 21.2188 24.009 19.1835C22.1769 17.0271 21.3357 16.3606 20.851 16.1075C19.8921 15.6049 18.969 15.5657 18.969 17.5938C18.969 20.9158 19.5856 22.0386 17.1333 22.0386C14.4529 22.0386 9.85135 22.1241 5.81293 17.6544C0.355901 11.6164 0.309564 1.85721 1.92422 1.85721C1.92422 1.85365 5.94837 1.85365 6.68976 1.85365Z"/>
    </symbol>
    <symbol id="icon-warning" viewBox="0 0 31 28">
      <g fill="none" stroke="currentColor" stroke-linecap="round" stroke-linejoin="round" stroke-miterlimit="10" stroke-width="2"><path d="M20.063 26.105h7.397c1.553 0 2.526-1.673 1.75-3.01L17.25 2.519c-.777-1.337-2.72-1.337-3.496 0L1.79 23.099c-.776 1.336.194 3.01 1.75 3.01h7.356" opacity=".5"/><path d="M15.5 20.249a1.427 1.427 0 0 1-1.429-1.42v-8.602c0-.782.642-1.42 1.429-1.42s1.429.638 1.429 1.42v8.599a1.43 1.43 0 0 1-1.429 1.423zM15.5 26.486a1.78 1.78 0 0 1-1.781-1.77c0-.973.8-1.769 1.781-1.769.98 0 1.781.796 1.781 1.77 0 .973-.8 1.769-1.781 1.769z"/></g>
    </symbol>
    <symbol id="icon-whatsapp" viewBox="0 0 30 30">
      <g fill="none" stroke="currentColor" stroke-linecap="round" stroke-linejoin="round" stroke-miterlimit="10"><path d="M11.11 19.359c-3.108-3.704-3.62-6.65-3.096-8.36.267-.874.511-1.667 1.398-2.385 1.1-.887 1.488-.642 1.957-.171l1.008 2.642c.228.715-.291 1.252-.609 1.57l-.972.976s.639 2.094 2.228 3.692l.43.435c1.592 1.597 3.623 2.056 3.623 2.056l1.352-1.357c.318-.318.698-.897 1.554-.505l2.67 1.15c.469.47.608 1.096-.543 2.25-2.123 2.134-6.835 2.15-11-1.993z"/><path d="M29 15.267c0 7.675-6.204 13.901-13.86 13.901-2.562 0-4.96-.696-7.018-1.912L1 29.362l2.313-6.847a13.885 13.885 0 0 1-2.03-7.248c0-7.68 6.204-13.901 13.86-13.901C22.8 1.366 29 7.588 29 15.266z"/></g>
    </symbol>
    <symbol id="icon-youtube" viewBox="0 0 23 20">
      <g fill="none" stroke="currentColor" stroke-linecap="round" stroke-linejoin="round" stroke-miterlimit="10"><path d="M1.37 10c0-1.486.077-2.893.193-4.305.096-1.168.498-2.31.896-2.733.397-.421.578-1.05 4.789-1.38 0 0 2.118-.189 4.25-.189M21.63 10c0-1.486-.077-2.893-.193-4.305-.096-1.169-.498-2.311-.896-2.735-.4-.425-.578-1.051-4.789-1.381 0 0-2.118-.189-4.25-.189M1.37 10c0 1.486.077 2.893.193 4.305.096 1.168.498 2.31.896 2.735.4.425.578 1.05 4.789 1.381 0 0 2.118.189 4.25.189M21.63 10c0 1.486-.077 2.893-.193 4.305-.096 1.168-.498 2.31-.896 2.735-.4.425-.578 1.05-4.789 1.381 0 0-2.118.189-4.25.189"/><path d="M8.433 14.305V5.698L15.853 10l-7.42 4.305z"/></g>
    </symbol>
    <symbol id="icon-youtube2" viewBox="0 0 32 25">
      <path fill="none" stroke="currentColor" stroke-linecap="round" stroke-linejoin="round" stroke-miterlimit="10" d="M30.5535 11.9996C30.5535 9.97861 30.443 8.77743 30.2755 6.85624C30.1365 5.26653 29.5555 3.71248 28.9817 3.13505C28.4042 2.55762 28.1476 1.70574 22.0668 1.25663C22.0668 1.25663 19.7215 1 16.6419 1H15.2161C12.133 1 9.79117 1.25663 9.79117 1.25663C3.70682 1.70574 3.45375 2.55762 2.87632 3.13505C2.29889 3.71248 1.72147 5.26653 1.58246 6.85624C1.41494 8.77386 1.30444 9.97861 1.30444 11.9996V13.4253C1.30444 15.4463 1.41494 16.6475 1.58246 18.5687C1.72147 20.1584 2.30246 21.7125 2.87632 22.2899C3.45375 22.8673 3.71038 23.7192 9.79117 24.1683C9.79117 24.1683 12.1365 24.4249 15.2161 24.4249H16.6419C19.725 24.4249 22.0668 24.1683 22.0668 24.1683C28.1512 23.7192 28.4042 22.8673 28.9817 22.2899C29.5591 21.7125 30.1365 20.1584 30.2755 18.5687C30.443 16.6511 30.5535 15.4463 30.5535 13.4253V11.9996Z"/><path fill="none" stroke="currentColor" stroke-linecap="round" stroke-linejoin="round" stroke-miterlimit="10" d="M11.4949 18.5654V6.85645L22.2094 12.7127L11.4949 18.5654Z"/>
    </symbol>
    <symbol id="logo-en" viewBox="0 0 397 166.3">
      <path fill="#FFF" d="M139.2,39.4c1.4,0.4,2.5,1.2,3.2,2.2c0.8,1,1.2,2.3,1.2,3.8c0,2.1-0.8,3.8-2.5,4.9c-1.6,1.1-4,1.7-7.2,1.7	h-12.5V27.8h11.8c2.9,0,5.2,0.6,6.8,1.7c1.6,1.1,2.4,2.7,2.4,4.6c0,1.2-0.3,2.2-0.9,3.1C141,38.1,140.3,38.8,139.2,39.4L139.2,39.4z M127.1,32v5.7h5.6c1.4,0,2.4-0.2,3.1-0.7s1.1-1.2,1.1-2.1c0-0.9-0.4-1.6-1.1-2.1c-0.7-0.5-1.8-0.7-3.1-0.7	C132.6,32,127.1,32,127.1,32z M133.6,47.7c1.5,0,2.6-0.2,3.3-0.7c0.8-0.5,1.1-1.2,1.1-2.2c0-2-1.5-3-4.5-3h-6.5v6H133.6z M168.3,27.8v24.2h-4.6l-12-14.7v14.7h-5.5V27.8h4.6l12,14.7V27.8H168.3z M191,47.4v4.5h-18.7V27.8h18.3v4.5h-12.7v5.2h11.2v4.3	h-11.2v5.6C177.9,47.4,191,47.4,191,47.4z M193.8,27.8h5.6v24.2h-5.6V27.8z M229.1,39.4c1.4,0.4,2.5,1.2,3.2,2.2	c0.8,1,1.2,2.3,1.2,3.8c0,2.1-0.8,3.8-2.5,4.9c-1.6,1.1-4,1.7-7.2,1.7h-12.5V27.8h11.8c2.9,0,5.2,0.6,6.8,1.7	c1.6,1.1,2.4,2.7,2.4,4.6c0,1.2-0.3,2.2-0.9,3.1C230.9,38.1,230.2,38.8,229.1,39.4z M217,32v5.7h5.6c1.4,0,2.4-0.2,3.1-0.7	c0.7-0.5,1.1-1.2,1.1-2.1c0-0.9-0.4-1.6-1.1-2.1c-0.7-0.5-1.8-0.7-3.1-0.7C222.5,32,217,32,217,32z M223.5,47.7	c1.5,0,2.6-0.2,3.3-0.7c0.8-0.5,1.1-1.2,1.1-2.2c0-2-1.5-3-4.5-3H217v6H223.5z M252,46.7h-11.2l-2.1,5.2h-5.7l10.8-24.2h5.5	L260,51.9h-5.9L252,46.7z M250.2,42.5l-3.8-9.2l-3.8,9.2H250.2z M276.2,51.9l-4.7-6.7h-5.1v6.7h-5.6V27.8h10.5c2.1,0,4,0.4,5.6,1.1	c1.6,0.7,2.8,1.7,3.7,3c0.9,1.3,1.3,2.9,1.3,4.7c0,1.8-0.4,3.3-1.3,4.7c-0.9,1.3-2.1,2.3-3.7,3l5.4,7.8H276.2L276.2,51.9z M276.1,36.5c0-1.4-0.4-2.4-1.3-3.1c-0.9-0.7-2.2-1.1-3.8-1.1h-4.6v8.4h4.6c1.7,0,3-0.4,3.8-1.1C275.6,38.9,276.1,37.9,276.1,36.5z M295.2,52.3c-3.5,0-6.1-1-8.1-2.9c-1.9-1.9-2.9-4.6-2.9-8.2V27.8h5.6v13.3c0,4.3,1.8,6.5,5.4,6.5c1.7,0,3.1-0.5,4-1.6	c0.9-1.1,1.4-2.7,1.4-4.9V27.8h5.5v13.5c0,3.5-1,6.3-2.9,8.2C301.3,51.4,298.6,52.3,295.2,52.3z M321.5,52.3c-2.5,0-4.7-0.5-6.7-1.6	c-2-1.1-3.5-2.6-4.7-4.5c-1.1-1.9-1.7-4.1-1.7-6.5s0.6-4.5,1.7-6.4c1.1-1.9,2.8-3.4,4.7-4.5c2-1.1,4.2-1.6,6.7-1.6	c2.1,0,4,0.4,5.7,1.1c1.7,0.7,3.1,1.8,4.3,3.2l-3.6,3.3c-1.6-1.9-3.7-2.8-6.1-2.8c-1.5,0-2.8,0.3-4,1c-1.2,0.6-2.1,1.6-2.8,2.7	c-0.6,1.2-1,2.5-1,4c0,1.5,0.3,2.8,1,4c0.6,1.2,1.6,2.1,2.8,2.8c1.2,0.6,2.5,1,4,1c2.4,0,4.4-1,6.1-2.9l3.6,3.3	c-1.1,1.4-2.6,2.5-4.3,3.2C325.4,52,323.6,52.3,321.5,52.3L321.5,52.3z M355.6,27.8v24.2H350V42h-11v9.9h-5.6V27.8h5.6v9.5h11v-9.5	H355.6z M130.3,83.4l-3.2,3.4v6.1h-5.6V68.7h5.6V80l10.7-11.3h6.2l-10,10.8l10.6,13.4H138L130.3,83.4z M160.2,87.7h-11.2l-2.1,5.2	h-5.7l10.8-24.2h5.5l10.8,24.2h-5.9L160.2,87.7z M158.4,83.5l-3.8-9.2l-3.8,9.2C150.7,83.5,158.4,83.5,158.4,83.5z M186.7,80.3	c1.4,0.4,2.5,1.2,3.2,2.2c0.8,1,1.2,2.3,1.2,3.8c0,2.1-0.8,3.8-2.5,4.9c-1.6,1.1-4,1.7-7.2,1.7H169V68.7h11.8c2.9,0,5.2,0.6,6.8,1.7	c1.6,1.1,2.4,2.7,2.4,4.6c0,1.2-0.3,2.2-0.9,3.1C188.5,79.1,187.7,79.8,186.7,80.3z M174.5,73v5.7h5.6c1.4,0,2.4-0.2,3.1-0.7	c0.7-0.5,1.1-1.2,1.1-2.1c0-0.9-0.4-1.6-1.1-2.1c-0.7-0.5-1.8-0.7-3.1-0.7H174.5z M181,88.7c1.5,0,2.6-0.2,3.3-0.7	c0.8-0.5,1.1-1.2,1.1-2.2c0-2-1.5-3-4.5-3h-6.5v6C174.5,88.7,181,88.7,181,88.7z M211.4,80.3c1.4,0.4,2.5,1.2,3.2,2.2	c0.8,1,1.2,2.3,1.2,3.8c0,2.1-0.8,3.8-2.5,4.9c-1.6,1.1-4,1.7-7.2,1.7h-12.5V68.7h11.8c2.9,0,5.2,0.6,6.8,1.7	c1.6,1.1,2.4,2.7,2.4,4.6c0,1.2-0.3,2.2-0.9,3.1C213.2,79.1,212.4,79.8,211.4,80.3L211.4,80.3z M199.2,73v5.7h5.6	c1.4,0,2.4-0.2,3.1-0.7c0.7-0.5,1.1-1.2,1.1-2.1c0-0.9-0.4-1.6-1.1-2.1c-0.7-0.5-1.8-0.7-3.1-0.7H199.2z M205.7,88.7	c1.5,0,2.6-0.2,3.3-0.7c0.8-0.5,1.1-1.2,1.1-2.2c0-2-1.5-3-4.5-3h-6.5v6C199.2,88.7,205.7,88.7,205.7,88.7z M234.2,87.7H223	l-2.1,5.2h-5.7l10.8-24.2h5.5l10.8,24.2h-5.9L234.2,87.7L234.2,87.7z M232.4,83.5l-3.8-9.2l-3.8,9.2	C224.8,83.5,232.4,83.5,232.4,83.5z M243,68.7h5.6v19.6h12.1v4.6H243V68.7z M278.2,87.7H267l-2.1,5.2h-5.7l10.8-24.2h5.5l10.8,24.2	h-5.9L278.2,87.7z M276.4,83.5l-3.8-9.2l-3.8,9.2C268.8,83.5,276.4,83.5,276.4,83.5z M309.1,68.7v24.2h-5.6V83h-11v9.9H287V68.7h5.6	v9.5h11v-9.5H309.1z M321.2,68.7h5.6v19.6h12.1v4.6h-17.7V68.7z M339.1,68.7h4.6l-0.4,9.8h-3.9L339.1,68.7z M361,87.7h-11.2	l-2.1,5.2h-5.7l10.8-24.2h5.5L369,92.9h-5.9L361,87.7z M359.2,83.5l-3.8-9.2l-3.8,9.2C351.6,83.5,359.2,83.5,359.2,83.5z M391.8,92.9l0-14.5l-7.1,11.9h-2.5L375,78.7v14.2h-5.2V68.7h4.6l9,15l8.9-15h4.6l0.1,24.2H391.8L391.8,92.9z M137.4,128.7h-11.2	l-2.1,5.2h-5.7l10.8-24.2h5.5l10.8,24.2h-5.9C139.6,133.9,137.4,128.7,137.4,128.7z M135.7,124.5l-3.8-9.2l-3.8,9.2	C128,124.5,135.7,124.5,135.7,124.5z M154.1,134.3c-1.9,0-3.8-0.3-5.6-0.8c-1.8-0.5-3.2-1.2-4.3-2l1.9-4.2c1,0.8,2.3,1.4,3.7,1.8	c1.4,0.5,2.8,0.7,4.3,0.7c1.6,0,2.8-0.2,3.5-0.7c0.8-0.5,1.1-1.1,1.1-1.9c0-0.6-0.2-1-0.7-1.4c-0.4-0.4-1-0.7-1.7-0.9	c-0.7-0.2-1.6-0.5-2.8-0.8c-1.8-0.4-3.3-0.9-4.5-1.3c-1.2-0.4-2.2-1.2-3-2.1c-0.8-1-1.2-2.3-1.2-3.9c0-1.4,0.4-2.7,1.1-3.8	c0.8-1.2,1.9-2.1,3.4-2.7c1.5-0.7,3.4-1,5.6-1c1.5,0,3,0.2,4.5,0.6c1.5,0.4,2.8,0.9,3.9,1.6l-1.7,4.2c-2.2-1.3-4.5-1.9-6.7-1.9	c-1.6,0-2.7,0.3-3.5,0.8c-0.7,0.5-1.1,1.2-1.1,2c0,0.8,0.4,1.4,1.3,1.9c0.9,0.4,2.2,0.8,4,1.2c1.8,0.4,3.3,0.9,4.5,1.3	c1.2,0.4,2.2,1.1,3,2.1c0.9,0.9,1.3,2.2,1.3,3.8c0,1.4-0.4,2.7-1.2,3.8c-0.8,1.1-1.9,2-3.5,2.7C158.2,134,156.4,134.3,154.1,134.3z M174.4,134.3c-1.9,0-3.8-0.3-5.6-0.8c-1.8-0.5-3.2-1.2-4.3-2l1.9-4.2c1,0.8,2.3,1.4,3.7,1.8c1.4,0.5,2.9,0.7,4.3,0.7	c1.6,0,2.8-0.2,3.5-0.7c0.8-0.5,1.1-1.1,1.1-1.9c0-0.6-0.2-1-0.7-1.4c-0.4-0.4-1-0.7-1.7-0.9c-0.7-0.2-1.6-0.5-2.8-0.8	c-1.8-0.4-3.3-0.9-4.5-1.3c-1.2-0.4-2.2-1.2-3-2.1c-0.8-1-1.2-2.3-1.2-3.9c0-1.4,0.4-2.7,1.1-3.8c0.8-1.2,1.9-2.1,3.4-2.7	c1.5-0.7,3.4-1,5.6-1c1.5,0,3,0.2,4.5,0.6c1.5,0.4,2.8,0.9,3.9,1.6l-1.7,4.2c-2.2-1.3-4.5-1.9-6.7-1.9c-1.6,0-2.7,0.3-3.5,0.8	c-0.7,0.5-1.1,1.2-1.1,2c0,0.8,0.4,1.4,1.3,1.9c0.9,0.4,2.2,0.8,4,1.2c1.8,0.4,3.3,0.9,4.5,1.3c1.2,0.4,2.2,1.1,3,2.1	c0.9,0.9,1.3,2.2,1.3,3.8c0,1.4-0.4,2.6-1.2,3.8c-0.8,1.1-1.9,2-3.5,2.7C178.5,134,176.6,134.3,174.4,134.3z M198.5,134.3	c-2.5,0-4.8-0.5-6.8-1.6c-2-1.1-3.6-2.6-4.7-4.5c-1.1-1.9-1.7-4.1-1.7-6.4c0-2.4,0.6-4.5,1.7-6.4c1.1-1.9,2.7-3.4,4.7-4.5	c2-1.1,4.3-1.6,6.8-1.6c2.5,0,4.8,0.5,6.8,1.6c2,1.1,3.6,2.6,4.7,4.5c1.1,1.9,1.7,4,1.7,6.4c0,2.4-0.6,4.5-1.7,6.4	c-1.2,1.9-2.7,3.4-4.7,4.5C203.2,133.8,201,134.3,198.5,134.3z M198.5,129.5c1.4,0,2.7-0.3,3.9-1c1.1-0.7,2.1-1.6,2.7-2.8	c0.7-1.2,1-2.5,1-4c0-1.5-0.3-2.8-1-4c-0.6-1.1-1.6-2.1-2.7-2.7c-1.2-0.7-2.4-1-3.9-1c-1.4,0-2.7,0.3-3.9,1	c-1.1,0.6-2.1,1.6-2.7,2.7c-0.6,1.2-1,2.5-1,4c0,1.5,0.3,2.8,1,4c0.6,1.1,1.6,2.1,2.7,2.8C195.8,129.2,197,129.5,198.5,129.5z M225.7,134.3c-2.5,0-4.7-0.5-6.7-1.6c-2-1.1-3.5-2.6-4.7-4.5c-1.1-1.9-1.7-4.1-1.7-6.5c0-2.4,0.6-4.5,1.7-6.4	c1.1-1.9,2.8-3.4,4.7-4.5c2-1.1,4.2-1.6,6.7-1.6c2.1,0,4,0.4,5.7,1.1c1.7,0.7,3.1,1.8,4.3,3.2l-3.6,3.3c-1.6-1.9-3.7-2.8-6.1-2.8	c-1.5,0-2.8,0.3-4,1c-1.2,0.6-2.1,1.6-2.8,2.7c-0.6,1.2-1,2.5-1,4c0,1.5,0.3,2.8,1,4c0.7,1.2,1.6,2.1,2.8,2.8c1.2,0.6,2.5,1,4,1	c2.4,0,4.4-1,6.1-2.9l3.6,3.3c-1.1,1.4-2.6,2.5-4.3,3.2C229.7,133.9,227.8,134.3,225.7,134.3L225.7,134.3z M237.8,109.7h5.6v24.2	h-5.6C237.8,133.9,237.8,109.7,237.8,109.7z M263.3,128.7h-11.2l-2.1,5.2h-5.7l10.8-24.2h5.5l10.8,24.2h-5.9L263.3,128.7	L263.3,128.7z M261.5,124.5l-3.8-9.2l-3.8,9.2H261.5z M275.8,114.3h-7.7v-4.6h21.1v4.6h-7.7v19.6h-5.6V114.3L275.8,114.3z M290.5,109.7h5.6v24.2h-5.6C290.5,133.9,290.5,109.7,290.5,109.7z M311.8,134.3c-2.5,0-4.8-0.5-6.8-1.6c-2-1.1-3.6-2.6-4.7-4.5	c-1.1-1.9-1.7-4.1-1.7-6.4c0-2.4,0.6-4.5,1.7-6.4c1.1-1.9,2.7-3.4,4.7-4.5c2-1.1,4.3-1.6,6.8-1.6c2.5,0,4.8,0.5,6.8,1.6	c2,1.1,3.6,2.6,4.7,4.5c1.1,1.9,1.7,4,1.7,6.4c0,2.4-0.6,4.5-1.7,6.4c-1.2,1.9-2.7,3.4-4.7,4.5C316.5,133.8,314.3,134.3,311.8,134.3	z M311.8,129.5c1.4,0,2.7-0.3,3.9-1c1.1-0.7,2.1-1.6,2.7-2.8c0.7-1.2,1-2.5,1-4c0-1.5-0.3-2.8-1-4c-0.6-1.1-1.6-2.1-2.7-2.7	c-1.2-0.7-2.4-1-3.9-1c-1.4,0-2.7,0.3-3.9,1c-1.1,0.6-2.1,1.6-2.7,2.7c-0.6,1.2-1,2.5-1,4c0,1.5,0.3,2.8,1,4	c0.6,1.1,1.6,2.1,2.7,2.8C309,129.2,310.3,129.5,311.8,129.5z M349.6,109.7v24.2H345l-12-14.7v14.7h-5.5v-24.2h4.6l12,14.7v-14.7	C344.1,109.7,349.6,109.7,349.6,109.7z"/><path fill="#FFF" d="M82.3,83.1c-0.6-1.2-18.9-1.9-26.5-2c0.1-6.9-1.2-10.3-0.7-14.3c0.9-1.2,1.8-1.5,3.2-2.4	c6.3-3.8,7.2-4.1,11.6-5.4c4.1-0.7,10.8-1.7,15.3-0.6c0.5,0.1,0.6-0.5,0.1-0.6c-1.7-0.6-6.9-1.8-8.6-1.8c-0.1-0.6,0.4-1,1.5-1.7	c1.9-1,4.5-2.5,6.6-2.9c0.4-0.1,0.6-0.5,0-0.5c-1.1,0-3.9,0.1-6.7,1.1c-3,1-6.1,2.7-8.4,3.6c-6.1,0.8-13.5,3.1-13.5,2.6	c0-0.4,6.7-9.3,11.5-9.4c0.2,0,1.7-0.3,3.5-0.8c5.8-1.6,11.7-3.1,17.8-2.7c0.6,0,0.6-0.6,0-0.7c-3.9-0.3-8.4-0.4-11.8,0.1	c-1.2,0.2-2.6,0-4-0.7c-0.6-2,0.8-3.2,2-4.8c2-2.6,4.8-6.1,5.9-7.8c0.5-0.7-0.3-1.2-0.8-0.5c-3.5,5.1-7.2,7.6-11.6,11.6	c-1.4,1.3-14,8.8-14,6.4c0-2.5,1-4.6,1.1-6.1c0.2-2.3,1.3-2,2.3-3c1-1,8.4-8.4,7.7-9c-0.2-0.2-0.3-0.1-0.5,0.1	c-0.9,0.8-6.9,6.4-8.8,5.6c-0.2-1.5,1.2-3.4,2-4.7c0.6-0.8,1.2-1.3,1.9-2.3c0.5-0.8,1.1-1.9,2-2.9c2.8-3,5.6-7.1,6.9-7.6	c0.2-0.1,0.8-0.7-0.2-0.5c-1.5,0.3-5.2,5-6.8,5.3c0.1-1.7,0.8-3.6,1.3-5.3c0.4-1.7,0.8-3.2,0.8-6.3c0-0.5-0.6-0.9-0.6,0	c-0.1,2-1.2,5.3-2.2,7.7c-0.6,1.4-0.9,2.5-1.4,3.9c-0.3,1-0.7,2.4-1.2,3.4c-1.4,2.5-1.6,2.3-3.1,4c-0.9,1-1.8,2.5-2.6,3.9	c-0.2,0.5-1.9,4.5-2.3,4.1c-0.2-0.2-1.2-1.1-2.7-7.2c-0.4-1.5-0.9-3.4-1.2-4.9c-0.5-2.8,0.3-2.5,1.8-4.7c1.6-2.4,4.3-6.6,4.6-8.5	c0.5-3.1-0.1-9.8-0.4-13.2c0-0.2-0.2-0.4-0.5-0.4c0,0,0,0,0,0c-0.2,0-0.4,0.2-0.4,0.5c0,0,0,0,0,0c0.3,3.7-0.2,8.4-1,12.1	c-0.3,1.5-1,2.9-1.8,4.2c-0.7,1.2-1.4,2-2.9,2.5c-3-0.8-3.7-2.5-5-5.3c-1-2.2-1.9-4.7-2.3-6.4c-0.3-1-0.7-1.8-0.9-2.4	c-0.1-0.4-0.9-0.6-0.6,0.2c0.2,0.5,0.4,1.4,0.7,2.4c0.7,2.7,1.9,10.4,3.3,13.3c0.6,1.2,0.9,1.9,0.7,3.4c-0.4,3.1-1.1,7.5-2,9.1	c-1.5-0.5-3.5-3.9-4-4.7c-0.7-1.3-1.9-2.7-2.7-4.3c-0.6-1.2,0.1-2,0.3-3.2c0.4-2.7,0.7-8.7,0.6-11.4c0.1-0.8,0-1.6,0.1-2.5	c0.1-0.6-0.6-0.7-0.7-0.1c-0.2,1.6-0.6,4.3-1.3,5.8c-0.4-1.1-0.9-1.6-1.2-2.7c-0.8-3-2.5-5.5-4-6.9c-0.2-0.2-0.4-0.2-0.6-0.1	c-0.2,0.2-0.1,0.4,0.1,0.6c3.4,5.3,5.7,12.2,3.4,15.3c-5.8,2.2-13-6.7-15-11.7c-0.3-0.7-0.8-0.5-0.6,0.6c0.4,2.9,2.5,7.7,4.8,9.2	c1.1,0.7,1.6,1.4,1.5,1.7c-0.4,1.2-7.7,0.3-9.9,0.1c-0.2,0-0.6-0.1-0.8,0c-0.1,0.1-0.3,0.2-0.4,0.3c0.1,0.1,0.1,0.2,0.2,0.3	c0.2,0.3,0.6,0.3,1,0.3c4.9,0.8,9.5,1.9,11.6,1.9c1.9,0,3,0.3,4.5,1.1c5,2.7,10.1,9.4,8.7,15.6c-2.9,0.4-7.7-2-10.9-3.9	c-1.1-0.7-2.1-1.3-2.6-2c-0.9-1.3-1.3-2.9-1.3-4.7c0-0.6-0.6-0.6-0.6,0c0,0.8,0,1.5,0,2c0.1,1.2,0.3,0.8,0.1,2	c-0.7,0.1-1.7-0.1-2.4-0.3c-1.5-0.4-4.6-1-5.9-1c-0.7,0-0.9,0.6-0.2,0.6c1.3,0,3.7,0.6,5.4,1.1c1,0.3,1.6,0.6,2,0.6	c0.9,0,2.3,1.2,4,2.5c3,2.2,7.8,5.2,11.2,8.6c1.1,1.1,1,1.4-0.6,2.2c-2.1,0.9-5.7,0.8-8.4,0.6c-4.1-0.4-8.1-4.2-10.6-7.2	c-0.9-1.1-2.1-2.3-2.5-3c-0.2-0.5-0.8-0.3-0.5,0.3c0.3,0.8,1.1,2.1,2,3.2c0.6,0.8,2.4,2.7,2.5,3.6c-0.9,0.2-1.2-0.2-2-0.5	c-2.6-1.5-5.5-1.9-7-2c-0.6-0.1-0.6,0.5-0.1,0.6c5.5,1.1,9.5,4.3,13.5,7.2c-2.3,3.9-9.9,2.8-12.5,3c-0.6,0.1-0.5,0.7,0.1,0.7	c0.2,0,0.6,0,1.1,0.1c2.9,0.2,6.5,0.5,9.4,0.3c2.6-0.2,1.8,0.1,3.4,0.2c3.3,0.2,5.9,1.3,8,2.3c2.9,1.4,5.2,3.2,5.6,3.8	c0.3,0.7,0.7,2,0.8,3.6c0.5,6-1,14.2-0.6,17.6c-6.1,0.1-28,0.8-28.6,2.1L82.3,83.1L82.3,83.1L82.3,83.1z M78.4,41.5	c-0.9-3.8,4.3-6.5,7.3-4.2l0.2,0.2l-0.2,0.2c-0.3,0.4-0.6,0.8-0.8,1.3c-1.5,2.7-3.3,3.8-6.3,2.7l-0.1,0	C78.4,41.6,78.4,41.5,78.4,41.5z M76,59.6c2.1-0.2,4,0.9,5.3,2.5c0.7,0.8,0.9,1.7,1,2.7c0.1,0.5,0.1,1.6,0.3,2l0.2,0.3l-0.3,0.1	c-2.1,0.7-4.5-0.3-6-1.8c-1.2-1.3-2-4-0.8-5.6l0.1-0.1L76,59.6L76,59.6z M18.4,56.4c-0.2,0.4-0.2,0.9-0.2,1.3	c-0.3,1.7-1.2,3.1-2.8,3.7C13.6,62,10,61.8,9.2,60l-0.1-0.2l0.2-0.1c1.2-0.9,1.9-2.8,3.1-3.3c1.9-0.9,3.8-0.8,5.8-0.4l0.3,0.1	C18.5,56,18.4,56.4,18.4,56.4z M10.4,39.4c0,0.5-1.1,0.5-1.5,0.2c-1.3-1-2-0.6-3.4-0.1c-2,0.8-3.4,0.4-4.6-1.4	c-0.2-0.3-0.5-0.6-0.8-0.9L0,37.1l0.1-0.2C2.7,32.2,10.9,33.7,10.4,39.4L10.4,39.4z M19.7,24.5c-0.5,0.8-0.9,1.5-1.5,2.2	c-1.7,2.1-2.8,2-5.3,2c-0.8,0-1.9-0.1-2.7,0.1l-0.3,0.1l0-0.4c0.5-4.9,5.8-5.3,9.6-4.4l0.4,0.1L19.7,24.5L19.7,24.5z M65.7,16.6	c-0.2-1.1,0-2.1,0.5-3.1c1.5-3.1,6.4-5.1,9.2-2.6l0.2,0.2l-0.2,0.2c-0.5,0.4-1,1.6-1.3,2.2c-1.5,2.6-5.3,4.1-8.2,3.3l-0.2,0	C65.7,16.7,65.7,16.6,65.7,16.6z M66.5,26.1c-0.3-4.3,4.2-6.2,7.6-4.4c1,0.5,1.7,1.4,2.3,2.4l0.1,0.2l-0.2,0.1	c-0.2,0.1-0.3,0.3-0.5,0.5c-1.4,1.6-3.7,2-5.6,1.2c-0.9-0.4-1.5-0.2-2.3,0.3C67.6,26.6,66.5,26.6,66.5,26.1z M55.6,7.5	c-0.3-1-0.2-2,0.4-2.9c0.4-0.7,1-1.2,1.7-1.6c1.1-0.6,3.4-1.3,4.5-0.6l0.1,0.1l0,0.2c-0.4,3.8-2.7,5.7-6.5,5.1l-0.2,0	C55.6,7.6,55.6,7.5,55.6,7.5z M36,25.3c-0.7-2.7,1.3-5.4,4.3-4.6l0.2,0.1l0,0.2c0.1,2.8-1.3,4.7-4.2,4.6l-0.2,0L36,25.3L36,25.3z M5.8,16.2c0.7-0.6,1.1-1.2,1.8-1.8c1.3-1.1,3-0.5,4.4,0c0.7,0.3,1.1-0.1,1.6,0l0.2,0l0,0.2c0.2,0.8-0.1,1.7-0.6,2.4	c-0.7,1-1.9,1.4-3.1,1.3c-1.5-0.1-3.2-0.7-4.3-1.8l-0.2-0.2C5.5,16.4,5.8,16.2,5.8,16.2z M70.8,38.8c-3.1-1.5-2.2-6.9,1.1-7.8	l0.3-0.1l0.1,0.3c0.1,0.5,0.6,1.1,0.7,1.7c0.6,1.9,0.1,5.1-1.9,5.9l-0.1,0L70.8,38.8z M3.8,48.2c0.9-1.4,2.2-2.6,4-2.5	c1.3,0.1,2.2,0.7,3.4,1.1c0.4,0.1,1.3,0.3,1.6,0c0.7-0.6,1.3,0.1,1.2,0.9c-0.3,2.2-2.7,3.8-4.9,3.8c-2.1,0-4-1.6-5.4-3l-0.2-0.2	C3.7,48.4,3.8,48.2,3.8,48.2z M20.2,7.6c0-0.2,0.1-0.3,0.3-0.3c1.6-0.2,3.1,0.2,4.1,1.5c0.2,0.3,0.4,0.6,0.6,0.9	c0.5,0.8,0.7,1.7,1.1,2.6c0.1,0.4,0.4,1.2,0.9,1.4c0.9,0.3,1.4,1,0.4,1.6c-2.3,1.4-6.3-0.2-7.2-2.7c-0.5-1.3-0.4-2.8-0.2-4.2	C20.2,8.2,20.2,7.9,20.2,7.6z M62.7,11.8c-0.7,1.1-1.6,2-3,2c-0.9,0-1.6-0.3-2.5-0.5c-0.3-0.1-0.9-0.1-1.1,0.1	c-0.5,0.5-1.1,0.1-1-0.6c0.2-1.6,2-2.9,3.5-3.1c1.5-0.2,2.9,0.8,3.9,1.7l0.2,0.2L62.7,11.8L62.7,11.8z M56.7,21.7	c-1.5-2.3-0.4-5.5,2.7-5.7l0.2,0l0.1,0.2c1,2.6,0.2,4.8-2.6,5.6l-0.2,0.1C56.8,21.9,56.7,21.7,56.7,21.7z M21.2,40.3	c3-0.9,6.7,1.1,6.7,4.4V45l-0.2,0c-3.8,0.6-6-0.4-6.7-4.4l0-0.2L21.2,40.3L21.2,40.3z M25.5,26.4c2,0.6,4,1.8,4.5,4	c0.2,1,0.1,1.8-0.1,2.7c-0.2,0.6-0.5,1.3-0.5,2v0.4l-0.4-0.1c-3.6-1.2-5.3-5.3-3.9-8.8l0.1-0.2C25.3,26.3,25.5,26.4,25.5,26.4z M66.9,39.4c-0.4,0.4-0.6,1.6-1.1,2.2c-1.4,2.1-5,3.6-7.3,2.3l-0.1-0.1l0-0.1c-0.8-4,5.4-6.8,8.4-4.7l0.3,0.2	C67.1,39.1,66.9,39.4,66.9,39.4z M49.5,28.9c-0.4-2.2,0.5-4.2,2.4-5.4c1.8-1.1,4.3-1.2,6.1,0l0.3,0.2L58,23.9	c-0.5,0.4-1,1.6-1.3,2.2c-0.9,1.6-2.3,2.7-4.1,3.1c-1,0.2-1.9,0.1-2.9-0.1l-0.2,0C49.6,29.1,49.5,28.9,49.5,28.9z M40.7,6.3	c4.3-2.2,10.1,1.3,9.4,6.2l0,0.3l-0.3,0C48.9,12.6,48,13,47,12.8c-1.9-0.3-3.5-1.2-4.7-2.8c-0.8-1.1-1.1-2.2-1.7-3.4l-0.1-0.2	C40.5,6.4,40.7,6.3,40.7,6.3z M31.8,6.5c-1.9-2.1-1.3-5.4,1.8-6l0.2,0l0.1,0.2c1.4,2.5,0.9,4.7-1.7,6l-0.2,0.1L31.8,6.5L31.8,6.5z"/><path fill="#D5ECF6" d="M82.3,83.1c-0.6,1.2-20.4,2-26.5,2c0.1,6.9-1.2,10.3-0.7,14.3c0.9,1.2,1.8,1.5,3.2,2.4	c6.3,3.8,7.2,4.1,11.6,5.4c4.1,0.7,10.8,1.7,15.3,0.6c0.5-0.1,0.6,0.5,0.1,0.6c-1.7,0.6-6.9,1.8-8.6,1.9c-0.1,0.6,0.4,1,1.5,1.7	c1.9,1,4.5,2.5,6.6,2.9c0.4,0.1,0.6,0.5,0,0.5c-1.1,0-3.9-0.1-6.7-1.1c-3-1-6.1-2.7-8.4-3.6c-6.1-0.8-13.5-3.1-13.5-2.6	c0,0.4,6.7,9.3,11.5,9.4c0.2,0,1.7,0.3,3.5,0.8c5.8,1.6,11.7,3.1,17.8,2.7c0.6,0,0.6,0.6,0,0.7c-3.9,0.3-8.4,0.4-11.8-0.1	c-1.1-0.2-2.6,0-4,0.7c-0.6,2,0.8,3.2,2,4.8c2,2.6,4.8,6.1,5.9,7.8c0.5,0.7-0.3,1.2-0.8,0.5c-3.5-5.1-7.2-7.6-11.6-11.6	c-1.4-1.3-14-8.8-14-6.4c0,2.4,1,4.6,1.1,6.1c0.2,2.3,1.3,2,2.3,3c1,1,8.4,8.4,7.7,9c-0.2,0.2-0.3,0.1-0.5-0.1	c-0.9-0.8-6.9-6.4-8.8-5.6c-0.2,1.5,1.2,3.4,2,4.7c0.6,0.8,1.2,1.3,1.9,2.3c0.5,0.8,1.1,1.9,2,2.9c2.8,3,5.6,7.1,6.9,7.6	c0.2,0.1,0.8,0.7-0.2,0.5c-1.5-0.3-5.2-5-6.8-5.3c0.1,1.7,0.8,3.6,1.3,5.3c0.4,1.7,0.8,3.2,0.8,6.3c0,0.5-0.6,0.9-0.6,0	c-0.1-2-1.2-5.3-2.2-7.7c-0.6-1.4-0.9-2.5-1.4-3.9c-0.3-1-0.7-2.4-1.2-3.4c-1.4-2.5-1.6-2.3-3.1-4c-0.9-1-1.8-2.5-2.6-3.9	c-0.2-0.5-1.9-4.5-2.3-4.1c-0.2,0.2-1.2,1.1-2.7,7.2c-0.4,1.5-0.9,3.4-1.2,4.9c-0.5,2.8,0.3,2.5,1.8,4.7c1.6,2.4,4.3,6.6,4.6,8.5	c0.5,3.1-0.1,9.8-0.4,13.2c0,0.2-0.2,0.4-0.4,0.4c-0.2,0-0.4-0.2-0.4-0.4c0,0,0,0,0-0.1c0.3-3.7-0.2-8.4-1-12.1	c-0.3-1.5-1-2.9-1.8-4.2c-0.7-1.2-1.4-2-2.9-2.5c-3,0.8-3.7,2.5-5,5.3c-1,2.2-1.9,4.7-2.3,6.4c-0.3,1-0.7,1.8-0.9,2.4	c-0.1,0.4-0.9,0.6-0.6-0.1c0.2-0.5,0.4-1.4,0.7-2.4c0.7-2.7,1.9-10.4,3.3-13.3c0.6-1.2,0.9-1.9,0.7-3.4c-0.4-3.1-1.1-7.5-2-9.1	c-1.5,0.5-3.5,3.9-4,4.7c-0.7,1.3-1.9,2.7-2.7,4.3c-0.6,1.2,0.1,2,0.3,3.2c0.4,2.7,0.7,8.7,0.6,11.4c0.1,0.8,0,1.6,0.1,2.5	c0.1,0.6-0.6,0.7-0.7,0.1c-0.2-1.6-0.6-4.3-1.3-5.9c-0.4,1.1-0.9,1.6-1.2,2.7c-0.8,3-2.5,5.5-4,6.9c-0.2,0.2-0.4,0.2-0.6,0.1	c-0.2-0.2-0.1-0.4,0.1-0.6c3.4-5.3,5.7-12.2,3.4-15.3c-5.8-2.2-13,6.7-15,11.7c-0.3,0.7-0.8,0.5-0.6-0.6c0.4-2.9,2.5-7.7,4.8-9.2	c1.1-0.7,1.6-1.4,1.5-1.7c-0.4-1.2-7.7-0.3-9.9-0.1c-0.2,0-0.6,0.1-0.8,0c-0.1-0.1-0.3-0.2-0.4-0.3c0.1-0.1,0.1-0.2,0.2-0.3	c0.2-0.3,0.6-0.3,1-0.3c4.9-0.8,9.5-1.9,11.6-1.9c1.9,0,3-0.3,4.5-1.1c5-2.7,10.1-9.4,8.7-15.6c-2.9-0.4-7.7,2-10.9,3.9	c-1.1,0.7-2.1,1.3-2.6,2c-0.9,1.3-1.3,2.9-1.3,4.7c0,0.6-0.6,0.6-0.6,0c0-0.8,0-1.5,0-2c0.1-1.2,0.3-0.8,0.1-2	c-0.7-0.1-1.7,0.2-2.4,0.3c-1.5,0.4-4.6,1-5.9,1c-0.7,0-0.9-0.6-0.2-0.6c1.3,0,3.7-0.6,5.4-1.1c1-0.3,1.6-0.6,2-0.6	c0.9,0,2.3-1.2,4-2.5c3-2.2,7.8-5.2,11.2-8.6c1.1-1.1,1-1.4-0.6-2.2c-2.1-0.9-5.7-0.8-8.4-0.6c-4.1,0.4-8.1,4.2-10.6,7.2	c-0.9,1.1-2.1,2.3-2.5,3c-0.2,0.5-0.8,0.3-0.5-0.3c0.3-0.8,1.1-2.1,2-3.2c0.6-0.8,2.4-2.7,2.5-3.6c-0.9-0.2-1.2,0.2-2,0.5	c-2.6,1.5-5.5,1.9-7,2.1c-0.6,0.1-0.6-0.5-0.1-0.6c5.5-1.1,9.5-4.3,13.5-7.2c-2.3-3.9-9.9-2.8-12.5-3c-0.6-0.1-0.5-0.7,0.1-0.7	c0.2,0,0.6,0,1.1-0.1c2.9-0.2,6.5-0.5,9.4-0.3c2.6,0.2,1.8-0.1,3.4-0.2c3.3-0.2,5.9-1.3,8-2.3c2.9-1.4,5.2-3.2,5.6-3.8	c0.3-0.7,0.7-2,0.8-3.6c0.5-6-1-14.2-0.6-17.6c-3.6,0-28-0.8-28.6-2.1L82.3,83.1L82.3,83.1z"/>
    </symbol>
    <symbol id="logo-icon-white" viewBox="0 0 21 40">
      <path fill="#fff" fill-rule="evenodd" d="M19.3076 19.8384C19.1673 19.5529 14.8881 19.3757 13.1038 19.356C13.1328 17.7168 12.8137 16.9095 12.9297 15.9397C13.1328 15.6591 13.3504 15.5804 13.6889 15.3687C15.1637 14.458 15.3861 14.394 16.4112 14.0741C17.3783 13.9018 18.9352 13.6803 19.9942 13.9264C20.1102 13.951 20.1441 13.8181 20.0232 13.7738C19.6364 13.636 18.4034 13.3357 17.9972 13.3308C17.9682 13.1978 18.0939 13.0797 18.3598 12.932C18.8047 12.6859 19.4091 12.3315 19.9071 12.2281C19.9942 12.2084 20.0474 12.105 19.8975 12.105C19.6412 12.105 18.9788 12.1346 18.3308 12.361C17.6249 12.6071 16.9044 13.0009 16.3628 13.2225C14.9364 13.4243 13.2005 13.951 13.2005 13.8476C13.2005 13.7443 14.772 11.6374 15.9083 11.598C15.9615 11.598 16.3048 11.5143 16.7255 11.4011C18.0794 11.0319 19.472 10.6578 20.8984 10.7612C21.0338 10.771 21.0338 10.6086 20.8984 10.5987C19.9748 10.515 18.9159 10.5101 18.1229 10.6233C17.8521 10.6627 17.5185 10.6283 17.1848 10.451C17.0446 9.96862 17.3686 9.67819 17.6442 9.31392C18.1181 8.69859 18.7612 7.86668 19.0368 7.46302C19.1528 7.29073 18.9691 7.18244 18.8579 7.3498C18.031 8.57061 17.1655 9.15639 16.1259 10.1065C15.7874 10.4166 12.8379 12.2035 12.8379 11.6325C12.8379 11.0467 13.0651 10.5347 13.0941 10.1852C13.1425 9.62896 13.4036 9.70772 13.6357 9.47144C13.8678 9.23023 15.594 7.47287 15.4441 7.32519C15.4054 7.28089 15.3668 7.31042 15.3232 7.3498C15.1008 7.55163 13.7082 8.88073 13.2489 8.68875C13.1908 8.33924 13.5196 7.8716 13.7179 7.57624C13.8485 7.38426 14.0032 7.25627 14.1628 7.02984C14.2933 6.8477 14.4239 6.57203 14.6415 6.33083C15.2991 5.60228 15.9567 4.62761 16.2516 4.52916C16.3048 4.50947 16.4354 4.37164 16.2081 4.41594C15.86 4.47993 14.9896 5.59736 14.6173 5.6712C14.6414 5.26755 14.8155 4.80975 14.9122 4.40609C15.0089 4.01229 15.096 3.64801 15.1105 2.88994C15.1105 2.77179 14.9751 2.67334 14.9654 2.88501C14.9461 3.35266 14.6946 4.15012 14.4577 4.71622C14.3223 5.04111 14.2401 5.30693 14.1337 5.64166C14.0515 5.88779 13.9742 6.22253 13.8533 6.44405C13.5245 7.0446 13.481 6.99045 13.1328 7.39903C12.9249 7.64516 12.7073 7.98482 12.5332 8.31955C12.4752 8.43277 12.0835 9.38776 11.9965 9.309C11.9433 9.26469 11.7209 9.04318 11.3728 7.58117C11.2857 7.22182 11.1648 6.76402 11.102 6.40467C10.9859 5.73519 11.1842 5.80903 11.5275 5.28724C11.9095 4.71129 12.5429 3.71201 12.6058 3.25421C12.7073 2.51582 12.5719 0.920898 12.5139 0.0988255C12.5091 0.0397544 12.4607 -0.00454897 12.4027 0.000373619C12.3447 0.00529621 12.3011 0.0545221 12.306 0.113593C12.3688 0.99966 12.2528 2.12693 12.069 3.00808C11.9917 3.36743 11.8466 3.70216 11.6484 4.02213C11.4743 4.30272 11.3292 4.48978 10.9569 4.63253C10.2413 4.44055 10.0865 4.03198 9.78675 3.3625C9.54982 2.83086 9.34674 2.24015 9.2452 1.83158C9.18234 1.58053 9.08079 1.40331 9.03728 1.26548C9.00343 1.16703 8.83419 1.12765 8.89221 1.29994C8.93573 1.42793 8.98409 1.62975 9.04695 1.8808C9.20651 2.51582 9.49663 4.36179 9.8206 5.04603C9.96083 5.33646 10.0237 5.50875 9.98017 5.85334C9.89313 6.58188 9.71422 7.65008 9.51114 8.03404C9.16783 7.90606 8.67946 7.10367 8.57792 6.90185C8.41835 6.58188 8.1379 6.25207 7.94932 5.88287C7.79943 5.59244 7.9735 5.41522 8.01702 5.11987C8.11856 4.47009 8.17175 3.05238 8.15241 2.40752C8.17175 2.21062 8.14274 2.01864 8.16691 1.80696C8.18142 1.66913 8.02185 1.6396 8.00735 1.77743C7.96383 2.16631 7.85745 2.80625 7.69788 3.17052C7.60118 2.90963 7.47546 2.80133 7.40776 2.53551C7.21918 1.82173 6.82268 1.21625 6.4697 0.881518C6.42135 0.837214 6.36816 0.827369 6.32948 0.861827C6.29079 0.901208 6.3053 0.960279 6.35849 1.0095C7.14665 2.27461 7.70755 3.9286 7.16116 4.67191C5.79759 5.19371 4.11972 3.07207 3.64102 1.87096C3.57816 1.71344 3.45728 1.75282 3.49113 2.00387C3.57816 2.69303 4.08104 3.84984 4.6226 4.19934C4.87887 4.36671 5.00943 4.54393 4.98525 4.60792C4.89821 4.88358 3.17683 4.68668 2.65944 4.64238C2.60626 4.63746 2.52405 4.62269 2.4757 4.64238C2.45636 4.65715 2.42251 4.68176 2.3935 4.71129C2.40801 4.74083 2.42251 4.76544 2.43702 4.78513C2.49021 4.85897 2.58691 4.85405 2.66912 4.86882C3.80542 5.05588 4.88854 5.31185 5.39625 5.31185C5.83144 5.30693 6.08771 5.38077 6.4552 5.58259C7.63019 6.22745 8.82936 7.83222 8.49572 9.29915C7.81393 9.3976 6.68729 8.82166 5.95232 8.35893C5.70088 8.19649 5.44944 8.05866 5.3334 7.89129C5.12064 7.58117 5.03844 7.20705 5.0191 6.75909C5.0191 6.62126 4.88854 6.61634 4.88854 6.75909C4.88854 6.96092 4.88854 7.11844 4.89821 7.24643C4.91272 7.53686 4.95624 7.44826 4.92723 7.72392C4.76766 7.73869 4.51622 7.68946 4.35665 7.65008C4.00367 7.56148 3.27837 7.41872 2.96891 7.41872C2.81418 7.41872 2.75615 7.56148 2.92539 7.56148C3.23969 7.56148 3.79575 7.70915 4.18258 7.83222C4.42435 7.91098 4.56457 7.98482 4.64194 7.98482C4.8547 7.98482 5.17383 8.27525 5.58 8.57553C6.29079 9.10717 7.40776 9.81602 8.19592 10.6332C8.44253 10.8891 8.43286 10.9778 8.04603 11.15C7.55282 11.3716 6.70664 11.3469 6.06837 11.2879C5.10613 11.2042 4.16324 10.2935 3.59267 9.56497C3.37991 9.29423 3.08979 9.02349 3.01726 8.85612C2.96407 8.72813 2.83835 8.79212 2.89154 8.92011C2.96891 9.10717 3.15265 9.40745 3.37024 9.68804C3.52014 9.88494 3.94081 10.328 3.96015 10.5396C3.75223 10.5839 3.68454 10.5052 3.5008 10.4166C2.89154 10.0671 2.21943 9.95878 1.85678 9.92924C1.72139 9.91447 1.70688 10.0474 1.83743 10.072C3.1188 10.3329 4.05686 11.0959 4.99492 11.7851C4.4582 12.7056 2.67879 12.4447 2.07437 12.5087C1.93898 12.5234 1.95348 12.676 2.08887 12.676C2.13239 12.676 2.21943 12.681 2.34998 12.6908C3.0366 12.7351 3.86345 12.8188 4.55007 12.7548C5.15932 12.6957 4.96107 12.7745 5.34307 12.804C6.11189 12.8582 6.71631 13.1142 7.22885 13.3603C7.92031 13.695 8.45703 14.1233 8.52956 14.2808C8.60209 14.4383 8.6988 14.7583 8.72781 15.1472C8.83419 16.5797 8.48121 18.5438 8.58275 19.3609C7.16116 19.3609 2.03085 19.5431 1.88579 19.8384H19.3076ZM18.3792 9.90463C18.1664 8.99887 19.3946 8.35401 20.0812 8.91027L20.1344 8.95457L20.0861 9.00379C20.0087 9.08748 19.9507 9.20562 19.8975 9.30407C19.5542 9.94401 19.1335 10.2098 18.413 9.94893L18.3792 9.93909V9.90463ZM17.8328 14.2217C18.3163 14.1873 18.7805 14.4482 19.0851 14.8125C19.2399 14.9946 19.2931 15.2161 19.3221 15.4475C19.3366 15.5705 19.3463 15.8167 19.4043 15.92L19.443 15.989L19.3704 16.0136C18.8772 16.176 18.3163 15.9496 17.973 15.5755C17.6829 15.2555 17.4991 14.6205 17.7893 14.2464L17.8086 14.2267L17.8328 14.2217ZM4.30346 13.4489C4.26478 13.5375 4.26478 13.6606 4.25028 13.759C4.19225 14.1725 3.97466 14.4925 3.583 14.6451C3.19133 14.7977 2.34031 14.7534 2.15173 14.3202L2.12756 14.2759L2.17107 14.2464C2.45636 14.0298 2.61109 13.5917 2.88671 13.4637C3.33156 13.2569 3.78608 13.2865 4.25511 13.3701L4.33248 13.3849L4.30346 13.4489ZM2.43702 9.40745C2.42735 9.53051 2.18074 9.53543 2.08887 9.46652C1.77457 9.22531 1.61984 9.31884 1.30071 9.44683C0.831681 9.63389 0.507712 9.53543 0.232097 9.10225C0.178908 9.01856 0.120884 8.95457 0.0435182 8.8955L0 8.86104L0.0241768 8.81181C0.623761 7.68946 2.55307 8.04881 2.43702 9.40745ZM4.6226 5.84349C4.50655 6.0207 4.40017 6.20776 4.26962 6.37513C3.87795 6.88216 3.61201 6.85754 3.03177 6.8477C2.84802 6.84278 2.58691 6.83293 2.40801 6.86247L2.3258 6.87724L2.33548 6.79355C2.44185 5.63182 3.70388 5.53337 4.58392 5.74012L4.67095 5.75981L4.6226 5.84349ZM15.4006 3.95322C15.3619 3.69724 15.4006 3.44127 15.5118 3.2099C15.8696 2.47644 17.0204 1.99895 17.6732 2.58966L17.7264 2.63888L17.6732 2.68811C17.5523 2.79148 17.446 3.06715 17.3638 3.21483C17.0156 3.84492 16.1259 4.19442 15.449 4.00736L15.4103 3.99752L15.4006 3.95322ZM15.5989 6.21761C15.5166 5.19863 16.5804 4.74083 17.3879 5.1691C17.6249 5.29216 17.7989 5.48906 17.9198 5.73027L17.944 5.7795L17.9005 5.81396C17.857 5.84841 17.8183 5.88287 17.7844 5.92225C17.4605 6.30129 16.9141 6.3899 16.4692 6.20776C16.2613 6.12408 16.1162 6.15361 15.9325 6.29145C15.8455 6.35544 15.6085 6.33575 15.5989 6.21761ZM13.0409 1.77743C12.9781 1.5313 13.0023 1.29502 13.1377 1.07842C13.2344 0.920898 13.3843 0.792911 13.539 0.699382C13.7856 0.551704 14.3272 0.384336 14.5883 0.556627L14.6221 0.576317L14.6173 0.615698C14.5302 1.5313 13.9838 1.97433 13.0893 1.82173L13.0506 1.81681L13.0409 1.77743ZM8.43769 6.04532C8.26362 5.40046 8.73748 4.76052 9.43861 4.94266L9.48213 4.9525V5.00173C9.51114 5.6712 9.1775 6.11423 8.49088 6.08962H8.44253L8.43769 6.04532ZM1.34906 3.86953C1.51347 3.7317 1.61501 3.5791 1.7649 3.44619C2.05986 3.17052 2.4757 3.31328 2.79967 3.44619C2.96891 3.5151 3.04627 3.41665 3.1865 3.45111L3.22518 3.46096L3.23485 3.50034C3.2687 3.69232 3.20584 3.91876 3.09463 4.07136C2.92539 4.31256 2.64977 4.40117 2.36449 4.39133C1.997 4.37656 1.60534 4.22396 1.34423 3.96306L1.29587 3.91383L1.34906 3.86953ZM16.6143 9.26961C15.889 8.91026 16.1114 7.62547 16.8609 7.4138L16.9237 7.39411L16.9382 7.46302C16.9624 7.57624 17.0688 7.72884 17.1123 7.86175C17.2574 8.31463 17.1413 9.06779 16.6626 9.26961L16.6336 9.27946L16.6143 9.26961ZM0.89454 11.5045C1.11697 11.1599 1.41676 10.8891 1.84227 10.9187C2.13723 10.9384 2.36932 11.0811 2.64494 11.1747C2.73197 11.2042 2.94473 11.2534 3.0221 11.1845C3.1865 11.0319 3.33639 11.1993 3.31222 11.3962C3.23485 11.9327 2.66428 12.3019 2.16624 12.3069C1.67787 12.3118 1.22334 11.918 0.904211 11.5882L0.870364 11.5488L0.89454 11.5045ZM4.73865 1.81189C4.73865 1.75774 4.76766 1.73805 4.81601 1.73313C5.19801 1.6839 5.54132 1.77743 5.78792 2.08755C5.84594 2.15647 5.88946 2.23523 5.93298 2.31399C6.03936 2.51582 6.10222 2.72749 6.17958 2.93916C6.21343 3.02777 6.28596 3.22959 6.38267 3.26405C6.60509 3.33789 6.71631 3.50034 6.47937 3.64801C5.93781 3.9926 5.00459 3.60863 4.787 3.00808C4.67579 2.7078 4.69513 2.3386 4.72898 2.01864C4.73865 1.94972 4.74348 1.8808 4.73865 1.81189ZM14.6946 2.82102C14.5351 3.07699 14.3175 3.29359 14.0032 3.30343C13.7904 3.31328 13.6212 3.23452 13.4229 3.19021C13.3601 3.17545 13.215 3.16068 13.1667 3.2099C13.0409 3.33297 12.9056 3.22959 12.9297 3.06223C12.9829 2.67334 13.3988 2.37799 13.7614 2.33368C14.1096 2.2943 14.4384 2.52074 14.685 2.74226L14.7285 2.77672L14.6946 2.82102ZM13.2876 5.18386C12.9297 4.62269 13.1908 3.86953 13.9113 3.82523L13.9597 3.82031L13.9742 3.86461C14.2014 4.4947 14.0177 5.0165 13.3552 5.20848L13.3117 5.22324L13.2876 5.18386ZM4.98041 9.62404C5.67187 9.3976 6.5519 9.87509 6.55674 10.6824V10.7365L6.50355 10.7464C5.60901 10.8842 5.08679 10.6479 4.9369 9.69788L4.92723 9.64373L4.98041 9.62404ZM5.991 6.30621C6.46003 6.45881 6.92906 6.72956 7.04511 7.25135C7.0983 7.48271 7.07896 7.67962 7.01126 7.90606C6.96774 8.05373 6.90005 8.2211 6.90005 8.3737V8.46231L6.81785 8.43277C5.97166 8.14234 5.58 7.16767 5.91364 6.34067L5.93781 6.28652L5.991 6.30621ZM15.6956 9.3976C15.6037 9.5059 15.5553 9.77664 15.449 9.93417C15.1153 10.4264 14.2836 10.7956 13.7372 10.4707L13.7131 10.456L13.7082 10.4264C13.5245 9.4616 14.9751 8.81181 15.6859 9.29915L15.7439 9.33853L15.6956 9.3976ZM11.6145 6.892C11.5323 6.37021 11.7306 5.88287 12.1706 5.59736C12.5961 5.32662 13.1715 5.30201 13.5922 5.60228L13.6599 5.65151L13.597 5.70566C13.481 5.80903 13.3698 6.0847 13.2876 6.23238C13.0796 6.61141 12.7557 6.87231 12.335 6.96092C12.1029 7.01015 11.8901 6.98553 11.658 6.94123L11.6145 6.93138V6.892ZM9.54982 1.50669C10.5604 0.989815 11.924 1.81681 11.7547 2.97854L11.7451 3.03761L11.687 3.03269C11.4743 3.013 11.2519 3.09668 11.0343 3.0573C10.5846 2.97362 10.2026 2.77672 9.92698 2.39768C9.73357 2.13186 9.66104 1.87588 9.52081 1.59037L9.4918 1.5313L9.54982 1.50669ZM7.45612 1.56084C7.0161 1.06365 7.16116 0.276039 7.86712 0.118516L7.91547 0.108671L7.93965 0.152974C8.25878 0.738762 8.15724 1.28517 7.53348 1.5756L7.48996 1.59529L7.45612 1.56084Z" clip-rule="evenodd"/><path fill="#C5E6F5" fill-rule="evenodd" d="M19.3076 19.8389C19.1674 20.1245 14.5255 20.3066 13.1039 20.3263C13.1329 21.9655 12.8137 22.7728 12.9298 23.7426C13.1329 24.0231 13.3505 24.1019 13.6889 24.3136C15.1637 25.2243 15.3861 25.2883 16.4112 25.6082C17.3783 25.7805 18.9353 26.002 19.9942 25.7559C20.1103 25.7313 20.1441 25.8642 20.0233 25.9085C19.6364 26.0463 18.4034 26.3466 17.9972 26.3515C17.9682 26.4844 18.0939 26.6026 18.3599 26.7503C18.8047 27.0013 19.4092 27.3508 19.9072 27.4542C19.9942 27.4739 20.0474 27.5773 19.8975 27.5773C19.6413 27.5773 18.9788 27.5477 18.3309 27.3213C17.6249 27.0752 16.9044 26.6813 16.3629 26.4598C14.9365 26.258 13.2006 25.7264 13.2006 25.8297C13.2006 25.9331 14.7721 28.04 15.9084 28.0794C15.9616 28.0794 16.3049 28.163 16.7255 28.2763C18.0794 28.6455 19.472 29.0196 20.8985 28.9162C21.0338 28.9064 21.0338 29.0688 20.8985 29.0787C19.9749 29.1623 18.916 29.1673 18.123 29.0491C17.8522 29.0097 17.5185 29.0442 17.1849 29.2214C17.0447 29.7038 17.3686 29.9943 17.6443 30.3585C18.1181 30.9738 18.7612 31.8058 19.0368 32.2094C19.1529 32.3817 18.9691 32.49 18.8579 32.3226C18.0311 31.1018 17.1656 30.516 16.126 29.566C15.7875 29.2559 12.8379 27.469 12.8379 28.04C12.8379 28.6258 13.0652 29.1377 13.0942 29.4872C13.1425 30.0435 13.4037 29.9647 13.6357 30.201C13.8678 30.4422 15.5941 32.1996 15.4442 32.3472C15.4055 32.3916 15.3668 32.362 15.3233 32.3226C15.1009 32.1208 13.7083 30.7917 13.2489 30.9837C13.1909 31.3332 13.5197 31.8008 13.7179 32.0962C13.8485 32.2882 14.0032 32.4162 14.1628 32.6475C14.2934 32.8297 14.4239 33.1053 14.6415 33.3465C15.2991 34.0751 15.9567 35.0448 16.2517 35.1482C16.3049 35.1679 16.4354 35.3057 16.2082 35.2614C15.86 35.1974 14.9896 34.08 14.6173 34.0062C14.6415 34.4098 14.8156 34.8676 14.9123 35.2713C15.009 35.6651 15.096 36.0294 15.1105 36.7874C15.1105 36.9056 14.9751 37.004 14.9655 36.7923C14.9461 36.3247 14.6947 35.5272 14.4578 34.9611C14.3224 34.6363 14.2402 34.3704 14.1338 34.0357C14.0516 33.7896 13.9742 33.4548 13.8533 33.2333C13.5245 32.6328 13.481 32.6869 13.1329 32.2783C12.925 32.0322 12.7074 31.6925 12.5333 31.3578C12.4753 31.2446 12.0836 30.2896 11.9966 30.3684C11.9434 30.4127 11.7209 30.6342 11.3728 32.0962C11.2858 32.4555 11.1649 32.9133 11.102 33.2727C10.986 33.9422 11.1842 33.8683 11.5275 34.3901C11.9095 34.9661 12.543 35.9654 12.6058 36.4232C12.7122 37.1665 12.5768 38.7565 12.5188 39.5835C12.5139 39.6425 12.4656 39.6868 12.4076 39.6819C12.3495 39.677 12.306 39.6278 12.3109 39.5687C12.3737 38.6826 12.2577 37.5554 12.0739 36.6742C11.9966 36.3099 11.8515 35.9801 11.6533 35.6602C11.4792 35.3796 11.3341 35.1876 10.9618 35.0498C10.2462 35.2417 10.0914 35.6503 9.79164 36.3198C9.55471 36.8514 9.35162 37.4421 9.25008 37.8507C9.18722 38.1018 9.08568 38.279 9.04216 38.4168C9.00831 38.5202 8.83908 38.5546 8.8971 38.3823C8.94062 38.2544 8.98897 38.0476 9.05183 37.8015C9.2114 37.1665 9.50152 35.3205 9.82549 34.6363C9.96571 34.3458 10.0286 34.1735 9.98506 33.829C9.89802 33.1004 9.71911 32.0322 9.51603 31.6532C9.17272 31.7812 8.68435 32.5835 8.5828 32.7804C8.42324 33.1004 8.14279 33.4302 7.95421 33.8043C7.80431 34.0948 7.97838 34.272 8.0219 34.5673C8.12344 35.2171 8.17663 36.6348 8.15729 37.2797C8.17663 37.4766 8.14762 37.6686 8.1718 37.8802C8.1863 38.0181 8.02674 38.0476 8.01223 37.9098C7.96871 37.5258 7.86234 36.881 7.70277 36.5118C7.60606 36.7727 7.48034 36.881 7.41265 37.1468C7.22407 37.8606 6.82757 38.466 6.47459 38.8008C6.42624 38.8451 6.37305 38.8598 6.33436 38.8205C6.29568 38.7811 6.31019 38.722 6.36338 38.6728C7.15154 37.4077 7.71244 35.7537 7.16604 35.0104C5.80247 34.4886 4.12461 36.6102 3.64591 37.8113C3.58305 37.9688 3.46216 37.9344 3.49601 37.6784C3.58305 36.9893 4.08592 35.8324 4.62748 35.4829C4.88376 35.3156 5.01431 35.1384 4.99014 35.0694C4.9031 34.7938 3.18171 34.9907 2.66433 35.035C2.61114 35.0399 2.52894 35.0498 2.48059 35.035C2.45157 35.0251 2.42256 35.0005 2.38871 34.971C2.40322 34.9415 2.41773 34.9168 2.43223 34.8972C2.48542 34.8233 2.58213 34.8282 2.66433 34.8135C3.80064 34.6264 4.88376 34.3704 5.39147 34.3704C5.82665 34.3754 6.08293 34.3015 6.45041 34.0997C7.6254 33.4598 8.82457 31.8501 8.49093 30.3831C7.80915 30.2847 6.68251 30.8606 5.94754 31.3234C5.6961 31.4858 5.44466 31.6236 5.32861 31.791C5.11585 32.1011 5.03365 32.4752 5.01431 32.9232C5.01431 33.061 4.88376 33.0659 4.88376 32.9232C4.88376 32.7214 4.88376 32.5638 4.89343 32.4359C4.90793 32.1454 4.95145 32.234 4.92244 31.9584C4.76287 31.9436 4.51144 31.9928 4.35187 32.0322C3.99889 32.1208 3.27358 32.2636 2.96412 32.2636C2.80939 32.2636 2.75137 32.1208 2.9206 32.1208C3.2349 32.1208 3.79097 31.9731 4.1778 31.8501C4.41956 31.7713 4.55979 31.6975 4.63715 31.6975C4.84991 31.6975 5.16904 31.407 5.57521 31.1068C6.28601 30.5751 7.40298 29.8663 8.19114 29.0491C8.43774 28.7931 8.42807 28.7045 8.04124 28.5322C7.54804 28.3107 6.70185 28.3353 6.06358 28.3944C5.10135 28.4781 4.15845 29.3888 3.58788 30.1173C3.37513 30.3881 3.08501 30.6588 3.01248 30.8262C2.95929 30.9542 2.83357 30.8902 2.88676 30.7622C2.96412 30.5751 3.14787 30.2748 3.36546 29.9943C3.51535 29.7973 3.93603 29.3543 3.95537 29.1426C3.74745 29.0983 3.67975 29.182 3.49601 29.2657C2.88676 29.6152 2.21464 29.7235 1.85199 29.753C1.7166 29.7678 1.70209 29.6349 1.83265 29.6103C3.11402 29.3494 4.05208 28.5864 4.99014 27.8972C4.45341 26.9767 2.674 27.2376 2.06958 27.1736C1.93419 27.1588 1.9487 27.0062 2.08409 27.0062C2.12761 27.0062 2.21464 27.0013 2.3452 26.9915C3.03182 26.9472 3.85866 26.8635 4.54528 26.9275C5.15454 26.9816 4.95629 26.9078 5.33828 26.8783C6.1071 26.8241 6.71152 26.5681 7.22407 26.322C7.91552 25.9873 8.45225 25.559 8.52478 25.4015C8.59731 25.244 8.69402 24.924 8.72303 24.5351C8.82941 23.1026 8.47643 21.1385 8.57797 20.3214C7.73662 20.3214 2.01639 20.1294 1.87133 19.8291H19.3076V19.8389Z" clip-rule="evenodd"/>
    </symbol>
    <symbol id="logo-icon" viewBox="0 0 19 35">
      <path fill="#017BA1" fill-rule="evenodd" d="M17.032 17.5c-.124-.253-3.899-.409-5.473-.426.026-1.446-.255-2.158-.153-3.014.179-.247.371-.317.67-.504 1.3-.803 1.497-.86 2.401-1.142.853-.152 2.227-.347 3.16-.13.103.022.133-.095.026-.135-.34-.121-1.429-.386-1.787-.39-.025-.118.085-.222.32-.352.392-.217.926-.53 1.365-.621.077-.017.124-.109-.009-.109-.226 0-.81.026-1.382.226-.622.217-1.258.565-1.736.76-1.258.178-2.79.643-2.79.552 0-.092 1.387-1.95 2.39-1.985.046 0 .35-.074.72-.174 1.195-.325 2.423-.655 3.681-.564.12.009.12-.135 0-.143-.814-.074-1.748-.079-2.448.021a1.352 1.352 0 0 1-.828-.152c-.123-.425.163-.681.406-1.003.418-.543.985-1.276 1.228-1.633.102-.152-.06-.247-.158-.1-.729 1.078-1.493 1.594-2.41 2.432-.298.274-2.9 1.85-2.9 1.347 0-.517.2-.969.226-1.277.043-.49.273-.421.478-.63.204-.213 1.727-1.763 1.595-1.893-.034-.04-.068-.013-.107.022-.196.178-1.424 1.35-1.83 1.18-.05-.308.24-.72.414-.98.115-.17.252-.283.393-.483.115-.16.23-.404.422-.616.58-.643 1.16-1.503 1.42-1.59.047-.017.162-.139-.038-.1-.307.057-1.075 1.043-1.403 1.108.02-.356.174-.76.26-1.116.085-.348.162-.669.175-1.338 0-.104-.12-.19-.128-.004-.017.413-.24 1.116-.448 1.615-.12.287-.192.521-.286.817-.072.217-.14.512-.247.708-.29.53-.329.482-.636.842a4.635 4.635 0 0 0-.529.812c-.051.1-.397.942-.473.873-.047-.04-.244-.235-.55-1.524-.077-.317-.184-.721-.24-1.038-.102-.59.073-.526.376-.986.337-.508.896-1.39.951-1.793.09-.652-.03-2.059-.081-2.784A.092.092 0 0 0 10.941 0a.092.092 0 0 0-.085.1c.055.782-.047 1.776-.21 2.554a2.816 2.816 0 0 1-.37.894c-.154.248-.282.413-.61.539-.632-.17-.768-.53-1.033-1.12a8.918 8.918 0 0 1-.477-1.351c-.056-.222-.145-.378-.184-.5-.03-.086-.179-.121-.128.03.039.114.081.292.137.513.14.56.396 2.189.682 2.792.124.257.18.409.14.712-.076.643-.234 1.585-.413 1.924-.303-.113-.733-.82-.823-.999-.14-.282-.388-.573-.555-.898-.132-.257.022-.413.06-.674.09-.573.137-1.823.12-2.392.017-.174-.009-.343.012-.53.013-.122-.128-.148-.14-.026-.039.343-.133.908-.273 1.229-.086-.23-.197-.326-.256-.56-.167-.63-.516-1.164-.828-1.46C5.665.739 5.617.73 5.584.76c-.035.035-.022.087.025.13.695 1.117 1.19 2.576.708 3.231-1.203.46-2.683-1.411-3.105-2.47-.056-.14-.162-.105-.132.117.076.608.52 1.628.998 1.936.226.148.341.304.32.36-.077.244-1.596.07-2.052.031-.047-.004-.12-.017-.162 0-.017.013-.047.035-.073.061a.43.43 0 0 0 .039.065c.047.065.132.061.205.074 1.002.165 1.957.39 2.405.39.384-.004.61.062.934.24 1.037.569 2.095 1.984 1.8 3.278-.601.087-1.595-.421-2.243-.83-.222-.143-.444-.264-.546-.412-.188-.273-.26-.603-.277-.998 0-.122-.116-.126-.116 0 0 .178 0 .317.009.43.013.256.051.177.026.42-.141.014-.363-.03-.504-.065-.311-.078-.951-.204-1.224-.204-.136 0-.188.126-.038.126.277 0 .767.13 1.109.24.213.069.337.134.405.134.188 0 .47.256.827.52.627.47 1.613 1.095 2.308 1.816.218.226.209.304-.132.456-.435.195-1.182.174-1.745.122-.849-.074-1.68-.878-2.184-1.52-.187-.24-.443-.478-.507-.626-.047-.113-.158-.056-.111.057.068.165.23.43.422.677.132.174.503.565.52.752-.183.039-.243-.03-.405-.11-.537-.307-1.13-.403-1.45-.429-.12-.013-.132.104-.017.126 1.13.23 1.958.903 2.785 1.511-.473.812-2.043.582-2.576.639-.12.012-.107.147.013.147.038 0 .115.005.23.013.606.04 1.335.113 1.94.057.538-.053.363.017.7.043.679.048 1.212.274 1.664.49.61.296 1.083.674 1.147.813.064.139.15.421.175.764.094 1.264-.217 2.996-.128 3.717-1.254 0-5.78.16-5.907.421h15.368zm-.819-8.764c-.188-.799.896-1.368 1.502-.877l.046.04-.042.043c-.069.073-.12.178-.167.265-.302.564-.674.799-1.31.568l-.029-.008v-.03zm-.482 3.809c.427-.03.836.2 1.105.52.136.161.183.357.209.56.013.11.021.327.072.418l.034.06-.064.022c-.435.144-.93-.056-1.232-.386-.256-.283-.418-.843-.162-1.173l.017-.017.021-.004zm-11.935-.682c-.034.078-.034.187-.047.273-.05.365-.243.648-.588.782-.346.135-1.097.096-1.263-.286l-.021-.04.038-.026c.252-.19.388-.577.631-.69.393-.182.794-.156 1.208-.083l.068.013-.026.057zM2.15 8.298c-.009.108-.226.113-.307.052-.278-.213-.414-.13-.696-.018-.413.165-.7.079-.942-.303a.674.674 0 0 0-.167-.183L0 7.816l.021-.044c.53-.99 2.231-.673 2.129.526zm1.928-3.144c-.103.156-.196.321-.312.469-.345.447-.58.425-1.092.417-.162-.005-.392-.013-.55.013l-.072.013.008-.074c.094-1.025 1.207-1.112 1.984-.93l.076.018-.042.074zm9.508-1.668c-.035-.225 0-.451.098-.655.315-.647 1.33-1.069 1.906-.548l.047.044-.047.043c-.106.092-.2.335-.273.465-.307.556-1.092.864-1.689.7l-.034-.01-.008-.039zm.174 1.998c-.072-.899.866-1.303 1.579-.925.209.108.362.282.469.495l.021.043-.038.03a.73.73 0 0 0-.103.096c-.285.335-.767.413-1.16.252-.183-.074-.311-.048-.473.074-.077.056-.286.04-.295-.065zm-2.256-3.917a.764.764 0 0 1 .085-.617c.086-.139.218-.252.354-.334.218-.13.696-.278.926-.126l.03.017-.004.035c-.077.808-.56 1.199-1.348 1.064l-.035-.004-.008-.035zm-4.06 3.765c-.154-.569.264-1.134.882-.973l.039.009v.043c.025.59-.27.982-.875.96h-.042l-.005-.04zM1.19 3.412c.145-.121.235-.256.367-.373.26-.243.627-.117.913 0 .149.06.217-.026.34.004l.035.01.009.034c.03.17-.026.369-.124.504-.15.212-.393.29-.644.282a1.387 1.387 0 0 1-.9-.378l-.043-.043.047-.04zm13.466 4.764c-.64-.317-.443-1.45.218-1.637l.055-.017.013.06c.021.1.115.235.153.352.128.4.026 1.064-.396 1.242l-.026.009-.017-.009zM.79 10.148c.196-.304.46-.543.836-.517.26.017.465.143.708.226.077.026.265.07.333.008.145-.134.277.013.256.187-.068.473-.572.8-1.011.803-.43.005-.832-.343-1.113-.634l-.03-.034.021-.04zm3.391-8.55c0-.048.026-.066.068-.07.337-.044.64.039.858.313.051.06.09.13.128.2.094.177.149.364.217.55.03.079.094.257.18.287.196.066.294.209.085.34-.478.303-1.301-.036-1.493-.565-.098-.265-.081-.591-.051-.873.008-.061.012-.122.008-.183zm8.783.89c-.141.225-.333.416-.61.425-.188.009-.337-.06-.512-.1-.055-.013-.183-.026-.226.018-.111.108-.23.017-.21-.13.048-.344.415-.604.735-.643.307-.035.597.165.814.36l.039.03-.03.04zm-1.241 2.084c-.316-.495-.086-1.16.55-1.199l.042-.004.013.04c.2.555.039 1.015-.546 1.185l-.038.013-.021-.035zM4.393 8.489c.61-.2 1.387.221 1.391.933v.048l-.047.009c-.79.121-1.25-.087-1.382-.925l-.008-.048.046-.017zm.892-2.927c.414.135.827.373.93.834.047.204.03.378-.03.577-.038.13-.098.278-.098.413v.078l-.073-.026c-.746-.256-1.092-1.116-.797-1.846l.021-.047.047.017zm8.56 2.727c-.08.096-.123.334-.217.473-.294.435-1.028.76-1.51.474l-.021-.013-.004-.026c-.162-.851 1.117-1.425 1.744-.995l.051.035-.042.052zm-3.6-2.21c-.072-.46.103-.89.491-1.142.376-.24.883-.26 1.254.004l.06.043-.056.048c-.102.091-.2.335-.272.465-.184.334-.47.564-.84.643-.205.043-.393.021-.598-.018l-.038-.008v-.035zm-1.82-4.75c.89-.457 2.094.273 1.944 1.298l-.008.052-.051-.005c-.188-.017-.384.057-.576.022-.397-.074-.734-.248-.977-.582-.17-.234-.235-.46-.358-.712l-.026-.052.051-.022zm-1.848.047C6.19.937 6.317.243 6.94.104l.043-.01.02.04c.282.517.193.999-.357 1.255l-.039.017-.03-.03z" clip-rule="evenodd"/><path fill="#52B0D8" fill-rule="evenodd" d="M17.032 17.5c-.124.252-4.219.412-5.473.43.026 1.446-.255 2.158-.153 3.013.18.248.371.317.67.504 1.3.803 1.497.86 2.401 1.142.853.152 2.227.348 3.16.13.103-.021.133.096.026.135-.34.122-1.429.387-1.787.39-.025.118.085.222.32.353.392.221.926.53 1.365.62.077.018.124.11-.009.11-.226 0-.81-.027-1.381-.227-.623-.217-1.259-.564-1.737-.76-1.258-.178-2.79-.647-2.79-.555 0 .09 1.387 1.95 2.39 1.984.046 0 .35.074.72.174 1.195.325 2.423.655 3.681.564.12-.008.12.135 0 .144-.814.073-1.748.078-2.448-.026a1.351 1.351 0 0 0-.828.152c-.123.425.163.681.406 1.003.418.543.985 1.276 1.228 1.632.103.152-.06.248-.158.1-.729-1.077-1.493-1.593-2.41-2.431-.298-.274-2.9-1.85-2.9-1.347 0 .517.2.969.226 1.277.043.49.273.421.478.63.204.213 1.727 1.763 1.595 1.893-.034.04-.068.013-.107-.022-.196-.178-1.424-1.35-1.83-1.18-.05.308.24.72.414.98.115.17.252.283.393.487.115.16.23.404.422.617.58.642 1.16 1.498 1.42 1.589.047.017.162.139-.038.1-.307-.057-1.075-1.043-1.403-1.108.02.357.175.76.26 1.116.085.348.162.67.175 1.338 0 .104-.12.191-.128.004-.017-.412-.24-1.116-.448-1.615-.12-.287-.192-.521-.286-.817-.072-.217-.14-.512-.247-.707-.29-.53-.329-.482-.636-.843a4.627 4.627 0 0 1-.529-.812c-.051-.1-.396-.942-.473-.873-.047.04-.243.235-.55 1.524-.077.317-.184.721-.24 1.038-.102.591.073.526.376.986.337.508.896 1.39.951 1.794.094.655-.025 2.058-.077 2.787a.092.092 0 1 1-.183-.013c.055-.781-.047-1.776-.21-2.553a2.775 2.775 0 0 0-.37-.895c-.154-.247-.282-.416-.61-.538-.631.17-.768.53-1.032 1.12-.21.47-.389.99-.478 1.35-.056.222-.145.379-.184.5-.03.091-.179.122-.127-.03.038-.113.08-.295.136-.513.14-.56.397-2.188.683-2.792.123-.256.179-.408.14-.712-.077-.643-.234-1.585-.413-1.92-.303.114-.734.821-.824.995-.14.282-.388.573-.554.903-.132.257.021.413.06.673.09.574.136 1.824.119 2.393.017.174-.009.343.013.53.013.121-.128.148-.141.026-.038-.339-.132-.908-.273-1.233-.085.23-.196.325-.256.56-.166.63-.516 1.164-.827 1.459-.043.039-.09.052-.124.017-.034-.034-.022-.087.025-.13.696-1.116 1.19-2.575.708-3.23-1.202-.461-2.682 1.41-3.105 2.47-.055.14-.162.109-.132-.117.077-.608.52-1.629.998-1.937.226-.148.341-.304.32-.365-.077-.243-1.595-.07-2.052-.03-.047.004-.12.013-.162 0a.274.274 0 0 1-.08-.056.435.435 0 0 1 .038-.066c.046-.065.132-.06.204-.073 1.003-.165 1.958-.391 2.406-.391.384.004.61-.061.934-.24 1.037-.564 2.095-1.984 1.8-3.278-.601-.086-1.595.422-2.243.83-.222.143-.444.265-.546.412-.188.274-.26.604-.278 1 0 .12-.115.125-.115 0 0-.179 0-.318.009-.43.013-.257.05-.179.025-.422-.14-.013-.362.03-.503.065-.311.078-.951.204-1.224.204-.137 0-.188-.126-.039-.126.278 0 .768-.13 1.11-.239.213-.07.336-.134.405-.134.187 0 .469-.256.827-.521.627-.47 1.612-1.095 2.308-1.815.217-.226.209-.304-.132-.456-.436-.196-1.182-.174-1.745-.122-.849.074-1.68.877-2.184 1.52-.188.239-.444.478-.508.625-.046.113-.157.057-.11-.056.068-.165.23-.43.422-.678.132-.173.503-.564.52-.75-.183-.04-.243.034-.405.108-.537.308-1.13.404-1.45.43-.12.013-.132-.105-.017-.126 1.13-.23 1.958-.904 2.785-1.512-.473-.812-2.043-.581-2.576-.638-.12-.013-.107-.147.012-.147.039 0 .116-.005.23-.014.607-.039 1.336-.113 1.942-.056.537.048.362-.017.7-.043.677-.048 1.21-.274 1.663-.491.61-.295 1.083-.673 1.147-.812.064-.14.15-.421.175-.764.094-1.264-.218-2.997-.128-3.718-.742 0-5.788-.169-5.916-.434h15.381v.009z" clip-rule="evenodd"/>
    </symbol>
    <symbol id="logo-text" viewBox="0 0 168 35">
      <path fill="#52B0D8" fill-rule="evenodd" d="M163.803 7.39h1.582V4.166h-1.582c-.406 0-.742.151-1.011.451-.269.3-.401.69-.401 1.16 0 .486.132.872.392 1.168.26.3.602.447 1.02.447zm4.141-5.44v11.98h-2.559V9.554h-.977l-1.881 4.378h-2.853l2.192-4.751a3.301 3.301 0 0 1-1.514-1.364 3.98 3.98 0 0 1-.538-2.036c0-1.051.359-1.954 1.071-2.701.712-.751 1.647-1.125 2.794-1.125h4.265V1.95zm-15.027 6.983h2.124l-.61-2.267c-.14-.487-.29-1.164-.452-2.037a29.292 29.292 0 0 1-.452 2.037l-.61 2.267zm-3.95 4.998l3.532-11.981h2.96l3.532 11.98h-2.593l-.785-2.887h-3.272l-.784 2.888h-2.59zm-10.122 0V1.95h2.56v4.803h3.621V1.95h2.559v11.98h-2.559V8.916h-3.621v5.016h-2.56zm-12.988-2.163h1.045c.533-.673.981-1.997 1.339-3.969a35.15 35.15 0 0 0 .576-5.85h7.435v9.82h1.22v4.129l-2.333.356V13.93h-6.944v1.967l-2.334.356v-4.486h-.004zm3.813 0h4.023V4.112h-2.577a37.066 37.066 0 0 1-.558 4.564c-.282 1.507-.576 2.536-.888 3.092zm-9.388.178c1.403 0 2.107-.973 2.107-2.922V6.86c0-1.95-.704-2.922-2.107-2.922-1.39 0-2.09.977-2.09 2.922v2.163c0 1.95.695 2.922 2.09 2.922zm-4.649-2.727V6.683c0-1.585.439-2.805 1.313-3.67.875-.863 1.988-1.293 3.336-1.293 1.356 0 2.474.43 3.353 1.294.874.864 1.313 2.084 1.313 3.67v2.535c0 1.594-.439 2.818-1.313 3.67-.875.85-1.992 1.276-3.353 1.276-1.348 0-2.457-.43-3.336-1.285-.874-.86-1.313-2.08-1.313-3.66zm-6.671-1.828h1.548c.405 0 .734-.148.985-.443.248-.295.376-.686.376-1.168 0-.486-.124-.873-.376-1.168-.247-.296-.576-.443-.985-.443h-1.548V7.39zm-2.56 6.54V1.95h4.197c1.148 0 2.082.373 2.794 1.125.713.75 1.071 1.65 1.071 2.7 0 1.051-.354 1.946-1.062 2.675-.708.734-1.642 1.1-2.803 1.1h-1.637v4.376h-2.56v.005zm-7.456-4.998h2.124l-.61-2.267c-.14-.487-.29-1.164-.452-2.037a29.58 29.58 0 0 1-.452 2.037l-.61 2.267zm-3.95 4.998L98.528 1.95h2.96l3.532 11.98h-2.593l-.785-2.887H98.37l-.785 2.888h-2.589zm-10.117 0V1.95h2.559v4.803h3.621V1.95h2.56v11.98h-2.56V8.916h-3.621v5.016h-2.56zm-8.902 0l-.278-2.163h2.56c.29 0 .511-.108.67-.326.157-.217.276-.564.358-1.037l.068-.426h-.87c-1.915 0-3.046-1.112-3.396-3.33l-.75-4.7h2.542l.73 4.521c.14.908.481 1.364 1.027 1.364h1.096l1.028-5.884h2.56l-1.514 8.633c-.384 2.232-1.515 3.348-3.396 3.348h-2.435zm-13.932-2.163h1.046c.533-.673.98-1.997 1.339-3.969a35.29 35.29 0 0 0 .576-5.85h7.434v9.82h1.22v4.129l-2.333.356V13.93h-6.944v1.967l-2.333.356v-4.486h-.005zm3.814 0h4.022V4.112h-2.576a37.144 37.144 0 0 1-.559 4.564c-.277 1.507-.576 2.536-.887 3.092zm-10.135 2.163h-2.56V9.27l-.955-.373-2.017 5.033H47.18l2.683-5.989c-.648-.356-1.092-.985-1.322-1.897L47.496 1.95h2.542l.87 3.278c.094.33.222.587.393.773.166.183.43.335.793.452l1.08.373V1.95h2.559v4.872l1.079-.373c.358-.118.623-.27.793-.452.167-.182.299-.439.393-.773l.87-3.278h2.542L60.365 6.04c-.243.921-.691 1.555-1.34 1.898l2.7 5.988h-3.01l-2.04-5.033-.938.374v4.664h-.013zm-16.767 0V1.95h7.033v2.215h-4.479v2.657h3.763l-.107 2.128h-3.656v2.766h4.633v2.215h-7.188zm-14.84 0L25.37 1.95h2.909l2.018 5.797c.094.274.23.786.418 1.542.128-.578.268-1.095.418-1.542L33.15 1.95h2.91l1.253 11.98h-2.542L34.27 7.8a66.445 66.445 0 0 1-.124-2.285 22.245 22.245 0 0 1-.627 2.267l-1.446 4.13h-2.717l-1.446-4.13a22.95 22.95 0 0 1-.644-2.284c-.021.933-.06 1.702-.102 2.305l-.504 6.128h-2.542z" clip-rule="evenodd"/><path fill="#00789F" fill-rule="evenodd" d="M165.795 30.336V20.023h2.201v10.313h-2.201zm-4.406-4.637h-1.336v2.774h1.336c.349 0 .631-.126.848-.382.214-.252.325-.59.325-1.007 0-.417-.107-.752-.325-1.008-.217-.256-.499-.378-.848-.378zm-3.537 4.637V20.023h2.201v3.813h1.408c.998 0 1.804.317 2.414.946.61.63.913 1.398.913 2.306 0 .903-.303 1.672-.913 2.302-.61.63-1.412.946-2.414.946h-3.609zm-10.851.152l-.107-1.863c.389-.07.7-.173.93-.312.231-.14.452-.374.666-.708.213-.335.375-.812.477-1.433.107-.621.188-1.429.248-2.419s.089-2.236.089-3.73h6.608v10.313h-2.201v-8.454h-2.308c0 1.09-.034 2.053-.107 2.896a21.412 21.412 0 0 1-.268 2.158c-.111.595-.269 1.103-.474 1.52a4.921 4.921 0 0 1-.631 1.007 2.228 2.228 0 0 1-.823.604 4.273 4.273 0 0 1-.969.304 8.611 8.611 0 0 1-1.13.117zm-5.473-4.455h1.83l-.524-1.954a18.668 18.668 0 0 1-.388-1.755 25.835 25.835 0 0 1-.389 1.755l-.529 1.954zm-3.403 4.303l3.041-10.313h2.546l3.042 10.313h-2.231l-.674-2.488h-2.815l-.674 2.488h-2.235zm-4.061-4.594h-1.485v2.731h1.485c.35 0 .631-.126.844-.382.214-.252.325-.59.325-1.007 0-.417-.107-.747-.316-.986-.209-.235-.495-.356-.853-.356zm-1.485-3.86v2.001h1.557c.998 0 1.805.309 2.415.93.61.62.912 1.376.912 2.275 0 .903-.302 1.672-.912 2.302-.61.63-1.412.946-2.415.946h-3.762V20.023h6.143v1.863h-3.938v-.005zm-7.016 3.86h-1.485v2.731h1.485c.35 0 .631-.126.844-.382.214-.252.325-.59.325-1.007 0-.417-.107-.747-.316-.986-.209-.235-.495-.356-.853-.356zm-1.485-3.86v2.001h1.557c.998 0 1.805.309 2.415.93.61.62.912 1.376.912 2.275 0 .903-.302 1.672-.912 2.302-.61.63-1.412.946-2.415.946h-3.762V20.023h6.142v1.863h-3.937v-.005zm-8.62 4.15h1.83l-.525-1.953a18.995 18.995 0 0 1-.388-1.755 25.21 25.21 0 0 1-.388 1.755l-.529 1.954zm-3.4 4.304l3.042-10.313h2.546l3.041 10.313h-2.231l-.673-2.488h-2.816l-.674 2.488h-2.235zm-8.322 0V20.023h2.201v4.195l1.156-.365c.312-.1.538-.23.683-.39.145-.157.256-.379.337-.665l.75-2.775h2.189l-.9 3.478c-.209.795-.593 1.338-1.152 1.633l2.623 5.202h-2.593l-2.052-4.394-1.032.382v4.012h-2.21zm-8.8-5.632h1.366V21.93h-1.365c-.35 0-.64.13-.87.391-.23.26-.346.59-.346.999 0 .417.11.751.337 1.007.226.252.52.378.879.378zm3.567-4.681v10.313h-2.201v-3.769h-.84l-1.617 3.77h-2.457l1.89-4.087a2.86 2.86 0 0 1-1.306-1.177 3.39 3.39 0 0 1-.465-1.754c0-.903.307-1.68.922-2.328.614-.647 1.416-.968 2.405-.968h3.669zm-8.455 0v10.313h-2.2v-4.394c0-.547.02-1.09.06-1.616l-3.733 6.01h-1.8V20.023h2.2v4.468c0 .47-.016.99-.046 1.572l3.732-6.04h1.787zM69.604 30.336l1.08-10.313h2.503l1.736 4.99c.081.234.2.677.358 1.328.111-.5.23-.942.359-1.329l1.74-4.99h2.504l1.079 10.314h-2.188l-.435-5.276a62.114 62.114 0 0 1-.107-1.967c-.18.782-.358 1.433-.537 1.954l-1.246 3.557h-2.337l-1.246-3.557a19.104 19.104 0 0 1-.554-1.967 43.627 43.627 0 0 1-.09 1.985l-.435 5.276h-2.184v-.005zm-7.298 0V20.023h6.053v1.906h-3.852v2.289h3.237l-.09 1.832h-3.147v2.38h3.984v1.906h-6.185zm-11.184-1.863h.9c.46-.577.844-1.72 1.156-3.417a30.04 30.04 0 0 0 .495-5.033h6.398v8.45h1.049v3.552l-2.01.304v-1.997h-5.98v1.693l-2.008.304v-3.856zm3.284 0h3.464v-6.591h-2.218a32.81 32.81 0 0 1-.478 3.93c-.248 1.298-.5 2.184-.768 2.661zm-8.804-2.44h1.83l-.525-1.954a19.022 19.022 0 0 1-.388-1.755 25.39 25.39 0 0 1-.388 1.755l-.529 1.954zm-3.4 4.303l3.042-10.313h2.546l3.042 10.313H48.6l-.674-2.488h-2.815l-.674 2.488h-2.235zm-8.321 0V20.023h2.2v4.195l1.157-.365c.311-.1.537-.23.682-.39.145-.157.256-.379.337-.665l.75-2.775h2.189l-.9 3.478c-.21.795-.593 1.338-1.152 1.633l2.623 5.202h-2.593l-2.052-4.394-1.032.382v4.012h-2.21zm-6.416-4.303h1.83l-.524-1.954a19.022 19.022 0 0 1-.389-1.755 25.39 25.39 0 0 1-.388 1.755l-.529 1.954zm-3.4 4.303l3.042-10.313h2.547l3.04 10.313h-2.23l-.674-2.488h-2.815l-.674 2.488h-2.235z" clip-rule="evenodd"/><path fill="#017BA1" fill-rule="evenodd" d="M17.032 17.5c-.124-.253-3.899-.409-5.473-.426.026-1.446-.255-2.158-.153-3.014.179-.247.371-.317.67-.504 1.3-.803 1.497-.86 2.401-1.142.853-.152 2.227-.347 3.16-.13.103.022.133-.095.026-.135-.34-.121-1.429-.386-1.787-.39-.025-.118.085-.222.32-.352.392-.217.926-.53 1.365-.621.077-.017.124-.109-.009-.109-.226 0-.81.026-1.382.226-.622.217-1.258.565-1.736.76-1.258.178-2.79.643-2.79.552 0-.092 1.387-1.95 2.39-1.985.046 0 .35-.074.72-.174 1.195-.325 2.423-.655 3.681-.564.12.009.12-.135 0-.143-.814-.074-1.748-.079-2.448.021a1.352 1.352 0 0 1-.828-.152c-.123-.425.163-.681.406-1.003.418-.543.985-1.276 1.228-1.633.102-.152-.06-.247-.158-.1-.729 1.078-1.493 1.594-2.41 2.432-.298.274-2.9 1.85-2.9 1.347 0-.517.2-.969.226-1.277.043-.49.273-.421.478-.63.204-.213 1.727-1.763 1.595-1.893-.034-.04-.068-.013-.107.022-.196.178-1.424 1.35-1.83 1.18-.05-.308.24-.72.414-.98.115-.17.252-.283.393-.483.115-.16.23-.404.422-.616.58-.643 1.16-1.503 1.42-1.59.047-.017.162-.139-.038-.1-.307.057-1.075 1.043-1.403 1.108.02-.356.174-.76.26-1.116.085-.348.162-.669.175-1.338 0-.104-.12-.19-.128-.004-.017.413-.24 1.116-.448 1.615-.12.287-.192.521-.286.817-.072.217-.14.512-.247.708-.29.53-.329.482-.636.842a4.635 4.635 0 0 0-.529.812c-.051.1-.397.942-.473.873-.047-.04-.244-.235-.55-1.524-.077-.317-.184-.721-.24-1.038-.102-.59.073-.526.376-.986.337-.508.896-1.39.951-1.793.09-.652-.03-2.059-.081-2.784A.092.092 0 0 0 10.941 0a.092.092 0 0 0-.085.1c.055.782-.047 1.776-.21 2.554a2.816 2.816 0 0 1-.37.894c-.154.248-.282.413-.61.539-.632-.17-.768-.53-1.033-1.12a8.918 8.918 0 0 1-.477-1.351c-.056-.222-.145-.378-.184-.5-.03-.086-.179-.121-.128.03.039.114.081.292.137.513.14.56.396 2.189.682 2.792.124.257.18.409.14.712-.076.643-.234 1.585-.413 1.924-.303-.113-.733-.82-.823-.999-.14-.282-.388-.573-.555-.898-.132-.257.022-.413.06-.674.09-.573.137-1.823.12-2.392.017-.174-.009-.343.012-.53.013-.122-.128-.148-.14-.026-.039.343-.133.908-.273 1.229-.086-.23-.197-.326-.256-.56-.167-.63-.516-1.164-.828-1.46C5.665.739 5.617.73 5.584.76c-.035.035-.022.087.025.13.695 1.117 1.19 2.576.708 3.231-1.203.46-2.683-1.411-3.105-2.47-.056-.14-.162-.105-.132.117.076.608.52 1.628.998 1.936.226.148.341.304.32.36-.077.244-1.596.07-2.052.031-.047-.004-.12-.017-.162 0-.017.013-.047.035-.073.061a.43.43 0 0 0 .039.065c.047.065.132.061.205.074 1.002.165 1.957.39 2.405.39.384-.004.61.062.934.24 1.037.569 2.095 1.984 1.8 3.278-.601.087-1.595-.421-2.243-.83-.222-.143-.444-.264-.546-.412-.188-.273-.26-.603-.277-.998 0-.122-.116-.126-.116 0 0 .178 0 .317.009.43.013.256.051.177.026.42-.141.014-.363-.03-.504-.065-.311-.078-.951-.204-1.224-.204-.136 0-.188.126-.038.126.277 0 .767.13 1.109.24.213.069.337.134.405.134.188 0 .47.256.827.52.627.47 1.613 1.095 2.308 1.816.218.226.209.304-.132.456-.435.195-1.182.174-1.745.122-.849-.074-1.68-.878-2.184-1.52-.187-.24-.443-.478-.507-.626-.047-.113-.158-.056-.111.057.068.165.23.43.422.677.132.174.503.565.52.752-.183.039-.243-.03-.405-.11-.537-.307-1.13-.403-1.45-.429-.12-.013-.132.104-.017.126 1.13.23 1.958.903 2.785 1.511-.473.812-2.043.582-2.576.639-.12.012-.107.147.013.147.038 0 .115.005.23.013.606.04 1.335.113 1.94.057.538-.053.363.017.7.043.679.048 1.212.274 1.664.49.61.296 1.083.674 1.147.813.064.139.15.421.175.764.094 1.264-.217 2.996-.128 3.717-1.254 0-5.78.16-5.907.421h15.368zm-.819-8.764c-.188-.799.896-1.368 1.502-.877l.046.04-.042.043c-.069.073-.12.178-.167.265-.302.564-.674.799-1.31.568l-.029-.008v-.03zm-.482 3.809c.427-.03.836.2 1.105.52.136.161.183.357.209.56.013.11.021.327.072.418l.034.06-.064.022c-.435.144-.93-.056-1.232-.386-.256-.283-.418-.843-.162-1.173l.017-.017.021-.004zm-11.935-.682c-.034.078-.034.187-.047.273-.05.365-.243.648-.588.782-.346.135-1.097.096-1.263-.286l-.021-.04.038-.026c.252-.19.388-.577.631-.69.393-.182.794-.156 1.208-.083l.068.013-.026.057zM2.15 8.298c-.009.108-.226.113-.307.052-.278-.213-.414-.13-.696-.018-.413.165-.7.079-.942-.303a.674.674 0 0 0-.167-.183L0 7.816l.021-.044c.53-.99 2.231-.673 2.129.526zm1.928-3.144c-.103.156-.196.321-.312.469-.345.447-.58.425-1.092.417-.162-.005-.392-.013-.55.013l-.072.013.008-.074c.094-1.025 1.207-1.112 1.984-.93l.076.018-.042.074zm9.508-1.668c-.035-.225 0-.451.098-.655.315-.647 1.33-1.069 1.906-.548l.047.044-.047.043c-.106.092-.2.335-.273.465-.307.556-1.092.864-1.689.7l-.034-.01-.008-.039zm.174 1.998c-.072-.899.866-1.303 1.579-.925.209.108.362.282.469.495l.021.043-.038.03a.73.73 0 0 0-.103.096c-.285.335-.767.413-1.16.252-.183-.074-.311-.048-.473.074-.077.056-.286.04-.295-.065zm-2.256-3.917a.764.764 0 0 1 .085-.617c.086-.139.218-.252.354-.334.218-.13.696-.278.926-.126l.03.017-.004.035c-.077.808-.56 1.199-1.348 1.064l-.035-.004-.008-.035zm-4.06 3.765c-.154-.569.264-1.134.882-.973l.039.009v.043c.025.59-.27.982-.875.96h-.042l-.005-.04zM1.19 3.412c.145-.121.235-.256.367-.373.26-.243.627-.117.913 0 .149.06.217-.026.34.004l.035.01.009.034c.03.17-.026.369-.124.504-.15.212-.393.29-.644.282a1.387 1.387 0 0 1-.9-.378l-.043-.043.047-.04zm13.466 4.764c-.64-.317-.443-1.45.218-1.637l.055-.017.013.06c.021.1.115.235.153.352.128.4.026 1.064-.396 1.242l-.026.009-.017-.009zM.79 10.148c.196-.304.46-.543.836-.517.26.017.465.143.708.226.077.026.265.07.333.008.145-.134.277.013.256.187-.068.473-.572.8-1.011.803-.43.005-.832-.343-1.113-.634l-.03-.034.021-.04zm3.391-8.55c0-.048.026-.066.068-.07.337-.044.64.039.858.313.051.06.09.13.128.2.094.177.149.364.217.55.03.079.094.257.18.287.196.066.294.209.085.34-.478.303-1.301-.036-1.493-.565-.098-.265-.081-.591-.051-.873.008-.061.012-.122.008-.183zm8.783.89c-.141.225-.333.416-.61.425-.188.009-.337-.06-.512-.1-.055-.013-.183-.026-.226.018-.111.108-.23.017-.21-.13.048-.344.415-.604.735-.643.307-.035.597.165.814.36l.039.03-.03.04zm-1.241 2.084c-.316-.495-.086-1.16.55-1.199l.042-.004.013.04c.2.555.039 1.015-.546 1.185l-.038.013-.021-.035zM4.393 8.489c.61-.2 1.387.221 1.391.933v.048l-.047.009c-.79.121-1.25-.087-1.382-.925l-.008-.048.046-.017zm.892-2.927c.414.135.827.373.93.834.047.204.03.378-.03.577-.038.13-.098.278-.098.413v.078l-.073-.026c-.746-.256-1.092-1.116-.797-1.846l.021-.047.047.017zm8.56 2.727c-.08.096-.123.334-.217.473-.294.435-1.028.76-1.51.474l-.021-.013-.004-.026c-.162-.851 1.117-1.425 1.744-.995l.051.035-.042.052zm-3.6-2.21c-.072-.46.103-.89.491-1.142.376-.24.883-.26 1.254.004l.06.043-.056.048c-.102.091-.2.335-.272.465-.184.334-.47.564-.84.643-.205.043-.393.021-.598-.018l-.038-.008v-.035zm-1.82-4.75c.89-.457 2.094.273 1.944 1.298l-.008.052-.051-.005c-.188-.017-.384.057-.576.022-.397-.074-.734-.248-.977-.582-.17-.234-.235-.46-.358-.712l-.026-.052.051-.022zm-1.848.047C6.19.937 6.317.243 6.94.104l.043-.01.02.04c.282.517.193.999-.357 1.255l-.039.017-.03-.03z" clip-rule="evenodd"/><path fill="#52B0D8" fill-rule="evenodd" d="M17.032 17.5c-.124.252-4.219.412-5.473.43.026 1.446-.255 2.158-.153 3.013.18.248.371.317.67.504 1.3.803 1.497.86 2.401 1.142.853.152 2.227.348 3.16.13.103-.021.133.096.026.135-.34.122-1.429.387-1.787.39-.025.118.085.222.32.353.392.221.926.53 1.365.62.077.018.124.11-.009.11-.226 0-.81-.027-1.381-.227-.623-.217-1.259-.564-1.737-.76-1.258-.178-2.79-.647-2.79-.555 0 .09 1.387 1.95 2.39 1.984.046 0 .35.074.72.174 1.195.325 2.423.655 3.681.564.12-.008.12.135 0 .144-.814.073-1.748.078-2.448-.026a1.351 1.351 0 0 0-.828.152c-.123.425.163.681.406 1.003.418.543.985 1.276 1.228 1.632.103.152-.06.248-.158.1-.729-1.077-1.493-1.593-2.41-2.431-.298-.274-2.9-1.85-2.9-1.347 0 .517.2.969.226 1.277.043.49.273.421.478.63.204.213 1.727 1.763 1.595 1.893-.034.04-.068.013-.107-.022-.196-.178-1.424-1.35-1.83-1.18-.05.308.24.72.414.98.115.17.252.283.393.487.115.16.23.404.422.617.58.642 1.16 1.498 1.42 1.589.047.017.162.139-.038.1-.307-.057-1.075-1.043-1.403-1.108.02.357.175.76.26 1.116.085.348.162.67.175 1.338 0 .104-.12.191-.128.004-.017-.412-.24-1.116-.448-1.615-.12-.287-.192-.521-.286-.817-.072-.217-.14-.512-.247-.707-.29-.53-.329-.482-.636-.843a4.627 4.627 0 0 1-.529-.812c-.051-.1-.396-.942-.473-.873-.047.04-.243.235-.55 1.524-.077.317-.184.721-.24 1.038-.102.591.073.526.376.986.337.508.896 1.39.951 1.794.094.655-.025 2.058-.077 2.787a.092.092 0 1 1-.183-.013c.055-.781-.047-1.776-.21-2.553a2.775 2.775 0 0 0-.37-.895c-.154-.247-.282-.416-.61-.538-.631.17-.768.53-1.032 1.12-.21.47-.389.99-.478 1.35-.056.222-.145.379-.184.5-.03.091-.179.122-.127-.03.038-.113.08-.295.136-.513.14-.56.397-2.188.683-2.792.123-.256.179-.408.14-.712-.077-.643-.234-1.585-.413-1.92-.303.114-.734.821-.824.995-.14.282-.388.573-.554.903-.132.257.021.413.06.673.09.574.136 1.824.119 2.393.017.174-.009.343.013.53.013.121-.128.148-.141.026-.038-.339-.132-.908-.273-1.233-.085.23-.196.325-.256.56-.166.63-.516 1.164-.827 1.459-.043.039-.09.052-.124.017-.034-.034-.022-.087.025-.13.696-1.116 1.19-2.575.708-3.23-1.202-.461-2.682 1.41-3.105 2.47-.055.14-.162.109-.132-.117.077-.608.52-1.629.998-1.937.226-.148.341-.304.32-.365-.077-.243-1.595-.07-2.052-.03-.047.004-.12.013-.162 0a.274.274 0 0 1-.08-.056.435.435 0 0 1 .038-.066c.046-.065.132-.06.204-.073 1.003-.165 1.958-.391 2.406-.391.384.004.61-.061.934-.24 1.037-.564 2.095-1.984 1.8-3.278-.601-.086-1.595.422-2.243.83-.222.143-.444.265-.546.412-.188.274-.26.604-.278 1 0 .12-.115.125-.115 0 0-.179 0-.318.009-.43.013-.257.05-.179.025-.422-.14-.013-.362.03-.503.065-.311.078-.951.204-1.224.204-.137 0-.188-.126-.039-.126.278 0 .768-.13 1.11-.239.213-.07.336-.134.405-.134.187 0 .469-.256.827-.521.627-.47 1.612-1.095 2.308-1.815.217-.226.209-.304-.132-.456-.436-.196-1.182-.174-1.745-.122-.849.074-1.68.877-2.184 1.52-.188.239-.444.478-.508.625-.046.113-.157.057-.11-.056.068-.165.23-.43.422-.678.132-.173.503-.564.52-.75-.183-.04-.243.034-.405.108-.537.308-1.13.404-1.45.43-.12.013-.132-.105-.017-.126 1.13-.23 1.958-.904 2.785-1.512-.473-.812-2.043-.581-2.576-.638-.12-.013-.107-.147.012-.147.039 0 .116-.005.23-.014.607-.039 1.336-.113 1.942-.056.537.048.362-.017.7-.043.677-.048 1.21-.274 1.663-.491.61-.295 1.083-.673 1.147-.812.064-.14.15-.421.175-.764.094-1.264-.218-2.997-.128-3.718-.742 0-5.788-.169-5.916-.434h15.381v.009z" clip-rule="evenodd"/>
    </symbol></svg>