<svg width="276" height="57" viewBox="0 0 276 57" fill="none" xmlns="http://www.w3.org/2000/svg">
<g clip-path="url(#clip0)">
<path fill-rule="evenodd" clip-rule="evenodd" d="M269.105 12.0368H271.705V6.78229H269.105C268.439 6.78229 267.886 7.02981 267.444 7.51778C267.003 8.00574 266.785 8.64222 266.785 9.40599C266.785 10.1981 267.003 10.8275 267.43 11.3083C267.858 11.7963 268.418 12.0368 269.105 12.0368ZM275.909 3.17559V22.6871H271.705V15.5586H270.1L267.01 22.6871H262.322L265.923 14.9504C264.858 14.4695 264.024 13.727 263.436 12.7298C262.847 11.7256 262.553 10.6224 262.553 9.41306C262.553 7.70165 263.141 6.23068 264.312 5.0143C265.482 3.79086 267.017 3.18267 268.902 3.18267H275.909V3.17559ZM251.222 14.5473H254.711L253.709 10.8557C253.478 10.0637 253.233 8.96046 252.966 7.53899C252.777 8.57857 252.525 9.6818 252.224 10.8557L251.222 14.5473ZM244.733 22.6871L250.535 3.17559H255.398L261.2 22.6871H256.94L255.65 17.9843H250.276L248.986 22.6871H244.733ZM228.104 22.6871V3.17559H232.308V10.9972H238.258V3.17559H242.462V22.6871H238.258V14.519H232.308V22.6871H228.104ZM206.766 19.1653H208.482C209.358 18.0691 210.094 15.9122 210.683 12.7015C211.271 9.49085 211.587 6.31554 211.629 3.17559H223.843V19.1653H225.847V25.8907L222.014 26.4706V22.6871H210.606V25.8907L206.773 26.4706V19.1653H206.766ZM213.03 19.1653H219.638V6.69743H215.406C215.252 9.2009 214.95 11.6761 214.488 14.1301C214.025 16.584 213.542 18.2601 213.03 19.1653ZM197.607 19.4552C199.912 19.4552 201.068 17.8711 201.068 14.6958V11.174C201.068 7.99867 199.912 6.41455 197.607 6.41455C195.322 6.41455 194.173 8.00574 194.173 11.174V14.6958C194.173 17.8711 195.315 19.4552 197.607 19.4552ZM189.968 15.0141V10.884C189.968 8.30277 190.69 6.31554 192.127 4.90823C193.563 3.50091 195.392 2.80078 197.607 2.80078C199.835 2.80078 201.671 3.50091 203.115 4.90823C204.551 6.31554 205.273 8.30277 205.273 10.884V15.0141C205.273 17.6095 204.551 19.6038 203.115 20.9899C201.678 22.376 199.842 23.069 197.607 23.069C195.392 23.069 193.57 22.3689 192.127 20.9757C190.69 19.5755 189.968 17.5882 189.968 15.0141ZM179.009 12.0368H181.552C182.218 12.0368 182.758 11.7963 183.171 11.3154C183.578 10.8345 183.788 10.1981 183.788 9.41306C183.788 8.621 183.585 7.9916 183.171 7.51071C182.765 7.02981 182.225 6.78937 181.552 6.78937H179.009V12.0368ZM174.804 22.6871V3.17559H181.699C183.585 3.17559 185.119 3.78378 186.289 5.00723C187.46 6.23068 188.048 7.69458 188.048 9.40599C188.048 11.1174 187.467 12.5742 186.303 13.7623C185.14 14.9575 183.606 15.5515 181.699 15.5515H179.009V22.6801H174.804V22.6871ZM162.555 14.5473H166.045L165.043 10.8557C164.811 10.0637 164.566 8.96046 164.3 7.53899C164.111 8.57857 163.858 9.6818 163.557 10.8557L162.555 14.5473ZM156.066 22.6871L161.868 3.17559H166.731L172.534 22.6871H168.273L166.984 17.9843H161.609L160.319 22.6871H156.066ZM139.444 22.6871V3.17559H143.648V10.9972H149.598V3.17559H153.802V22.6871H149.598V14.519H143.648V22.6871H139.444ZM124.819 22.6871L124.364 19.1653H128.568C129.045 19.1653 129.409 18.9885 129.668 18.6349C129.928 18.2813 130.124 17.7155 130.257 16.9447L130.369 16.2516H128.94C125.793 16.2516 123.936 14.4412 123.362 10.8275L122.128 3.17559H126.305L127.503 10.5375C127.734 12.0155 128.295 12.7581 129.192 12.7581H130.993L132.682 3.17559H136.886L134.398 17.2346C133.768 20.8696 131.911 22.6871 128.82 22.6871H124.819ZM101.932 19.1653H103.649C104.525 18.0691 105.261 15.9122 105.85 12.7015C106.438 9.49085 106.754 6.31554 106.796 3.17559H119.01V19.1653H121.014V25.8907L117.181 26.4706V22.6871H105.773V25.8907L101.939 26.4706V19.1653H101.932ZM108.197 19.1653H114.805V6.69743H110.573C110.419 9.2009 110.117 11.6761 109.655 14.1301C109.199 16.584 108.709 18.2601 108.197 19.1653ZM91.5472 22.6871H87.3426V15.0989L85.7729 14.4907L82.4583 22.6871H77.511L81.9188 12.9349C80.8536 12.355 80.1248 11.3296 79.7464 9.84445L78.0296 3.17559H82.2061L83.6356 8.51492C83.7898 9.05239 84 9.46964 84.2803 9.77373C84.5536 10.0708 84.9881 10.3183 85.5837 10.5092L87.3566 11.1174V3.17559H91.5612V11.1103L93.3341 10.5021C93.9227 10.3112 94.3572 10.0637 94.6375 9.76666C94.9108 9.46964 95.128 9.05239 95.2822 8.50785L96.7117 3.16852H100.888L99.1714 9.83738C98.772 11.3366 98.0362 12.3691 96.971 12.9278L101.407 22.6801H96.4595L93.1098 14.4837L91.5682 15.0918V22.6871H91.5472ZM64.0004 22.6871V3.17559H75.5559V6.78229H68.1979V11.1103H74.3786L74.2034 14.5756H68.1979V19.0804H75.8082V22.6871H64.0004ZM39.6211 22.6871L41.6813 3.17559H46.4605L49.7751 12.6167C49.9292 13.0622 50.1535 13.8967 50.4618 15.1272C50.672 14.1866 50.9033 13.3451 51.1485 12.6167L54.4631 3.17559H59.2423L61.3025 22.6871H57.126L56.2991 12.7015C56.243 12.0297 56.173 10.785 56.0959 8.98167C55.7525 10.4597 55.4091 11.6973 55.0658 12.6732L52.6902 19.3987H48.2264L45.8508 12.6732C45.4514 11.5205 45.101 10.2758 44.7927 8.95339C44.7576 10.4739 44.6946 11.7256 44.6245 12.7086L43.7976 22.6871H39.6211Z" fill="#52B0D8"/>
<path fill-rule="evenodd" clip-rule="evenodd" d="M272.378 49.4048V32.6089H275.993V49.4048H272.378ZM265.139 41.8519H262.945V46.3709H265.139C265.713 46.3709 266.176 46.1658 266.533 45.7486C266.884 45.3384 267.066 44.7868 267.066 44.1079C267.066 43.429 266.891 42.8844 266.533 42.4672C266.176 42.05 265.713 41.8519 265.139 41.8519ZM259.329 49.4048V32.6089H262.945V38.8181H265.258C266.898 38.8181 268.222 39.3343 269.224 40.3598C270.226 41.3852 270.724 42.6369 270.724 44.115C270.724 45.5859 270.226 46.8377 269.224 47.8631C268.222 48.8885 266.905 49.4048 265.258 49.4048H259.329ZM241.502 49.6523L241.327 46.6184C241.965 46.5053 242.476 46.3356 242.855 46.1093C243.233 45.883 243.597 45.5011 243.948 44.9565C244.298 44.412 244.564 43.6341 244.733 42.6228C244.908 41.6115 245.041 40.2961 245.139 38.6837C245.237 37.0713 245.286 35.0416 245.286 32.6089H256.141V49.4048H252.525V35.6357H248.734C248.734 37.4107 248.678 38.9807 248.559 40.3527C248.447 41.7246 248.3 42.8986 248.117 43.8674C247.935 44.8363 247.676 45.6637 247.339 46.3426C247.003 47.0215 246.66 47.5661 246.302 47.9833C245.952 48.4006 245.496 48.7259 244.95 48.9663C244.403 49.2068 243.871 49.3694 243.359 49.4614C242.862 49.5533 242.238 49.617 241.502 49.6523ZM232.511 42.3965H235.518L234.656 39.2141C234.46 38.5352 234.242 37.5805 234.018 36.357C233.857 37.2481 233.64 38.2028 233.38 39.2141L232.511 42.3965ZM226.919 49.4048L231.916 32.6089H236.099L241.096 49.4048H237.431L236.324 45.3526H231.699L230.591 49.4048H226.919ZM220.248 41.9227H217.81V46.3709H220.248C220.823 46.3709 221.285 46.1658 221.636 45.7486C221.986 45.3384 222.168 44.7868 222.168 44.1079C222.168 43.429 221.993 42.8915 221.65 42.5026C221.306 42.1207 220.837 41.9227 220.248 41.9227ZM217.81 35.6357V38.8959H220.367C222.007 38.8959 223.332 39.398 224.334 40.4093C225.336 41.4205 225.833 42.6511 225.833 44.115C225.833 45.5859 225.336 46.8377 224.334 47.8631C223.332 48.8885 222.014 49.4048 220.367 49.4048H214.187V32.6089H224.278V35.6428H217.81V35.6357ZM206.282 41.9227H203.844V46.3709H206.282C206.857 46.3709 207.319 46.1658 207.67 45.7486C208.02 45.3384 208.202 44.7868 208.202 44.1079C208.202 43.429 208.027 42.8915 207.684 42.5026C207.34 42.1207 206.871 41.9227 206.282 41.9227ZM203.844 35.6357V38.8959H206.401C208.041 38.8959 209.365 39.398 210.368 40.4093C211.37 41.4205 211.867 42.6511 211.867 44.115C211.867 45.5859 211.37 46.8377 210.368 47.8631C209.365 48.8885 208.048 49.4048 206.401 49.4048H200.221V32.6089H210.311V35.6428H203.844V35.6357ZM189.681 42.3965H192.687L191.826 39.2141C191.629 38.5352 191.412 37.5805 191.188 36.357C191.027 37.2481 190.809 38.2028 190.55 39.2141L189.681 42.3965ZM184.096 49.4048L189.093 32.6089H193.276L198.273 49.4048H194.608L193.5 45.3526H188.875L187.768 49.4048H184.096ZM170.424 49.4048V32.6089H174.04V39.4404L175.939 38.8464C176.451 38.6837 176.822 38.4715 177.061 38.2099C177.299 37.9553 177.481 37.5946 177.614 37.1279L178.848 32.6089H182.442L180.964 38.2735C180.62 39.5677 179.99 40.4517 179.072 40.9326L183.381 49.4048H179.121L175.75 42.248L174.054 42.8703V49.4048H170.424ZM155.968 40.2325H158.21V35.7135H155.968C155.393 35.7135 154.917 35.9256 154.538 36.35C154.16 36.7743 153.971 37.3117 153.971 37.9765C153.971 38.6554 154.153 39.2 154.524 39.6172C154.896 40.0274 155.379 40.2325 155.968 40.2325ZM161.826 32.6089V49.4048H158.21V43.2663H156.83L154.174 49.4048H150.138L153.242 42.7501C152.324 42.3328 151.609 41.6964 151.098 40.8336C150.586 39.9708 150.334 39.0232 150.334 37.9765C150.334 36.5055 150.838 35.2397 151.847 34.1859C152.856 33.1322 154.174 32.6089 155.8 32.6089H161.826ZM147.937 32.6089V49.4048H144.321V42.248C144.321 41.3569 144.356 40.4729 144.419 39.6172L138.288 49.4048H135.331V32.6089H138.946V39.8859C138.946 40.6497 138.918 41.4983 138.869 42.446L145.001 32.6089H147.937ZM114.35 49.4048L116.123 32.6089H120.236L123.088 40.7346C123.221 41.1165 123.418 41.8378 123.677 42.8986C123.859 42.0853 124.055 41.364 124.266 40.7346L127.125 32.6089H131.238L133.011 49.4048H129.416L128.701 40.8124C128.652 40.2325 128.596 39.1646 128.526 37.6088C128.232 38.8817 127.938 39.9425 127.643 40.7911L125.597 46.5831H121.757L119.711 40.7911C119.367 39.794 119.059 38.7261 118.8 37.5875C118.765 38.8959 118.716 39.9708 118.653 40.8194L117.938 49.4119H114.35V49.4048ZM102.36 49.4048V32.6089H112.304V35.7135H105.976V39.4404H111.295L111.147 42.4248H105.976V46.3002H112.521V49.4048H102.36ZM83.9861 46.3709H85.4647C86.2215 45.4304 86.8522 43.5704 87.3637 40.8053C87.8753 38.0402 88.1416 35.3033 88.1766 32.6089H98.688V46.3709H100.412V52.1558L97.1113 52.6508V49.3977H87.2867V52.1558L83.9861 52.6508V46.3709ZM89.3819 46.3709H95.0721V35.6357H91.4281C91.295 37.7856 91.0357 39.9213 90.6433 42.0358C90.2369 44.1503 89.8234 45.593 89.3819 46.3709ZM74.9183 42.3965H77.9246L77.0626 39.2141C76.8664 38.5352 76.6492 37.5805 76.4249 36.357C76.2638 37.2481 76.0465 38.2028 75.7873 39.2141L74.9183 42.3965ZM69.3333 49.4048L74.3297 32.6089H78.5132L83.5096 49.4048H79.8446L78.7374 45.3526H74.1124L73.0052 49.4048H69.3333ZM55.6615 49.4048V32.6089H59.2774V39.4404L61.1765 38.8464C61.688 38.6837 62.0594 38.4715 62.2977 38.2099C62.5359 37.9553 62.7181 37.5946 62.8513 37.1279L64.0846 32.6089H67.6795L66.2009 38.2735C65.8575 39.5677 65.2268 40.4517 64.3089 40.9326L68.6185 49.4048H64.3579L60.9873 42.248L59.2914 42.8703V49.4048H55.6615ZM45.1221 42.3965H48.1284L47.2665 39.2141C47.0702 38.5352 46.853 37.5805 46.6288 36.357C46.4676 37.2481 46.2504 38.2028 45.9911 39.2141L45.1221 42.3965ZM39.5371 49.4048L44.5335 32.6089H48.717L53.7134 49.4048H50.0485L48.9413 45.3526H44.3163L43.2091 49.4048H39.5371Z" fill="#00789F"/>
<path fill-rule="evenodd" clip-rule="evenodd" d="M27.9812 28.4998C27.778 28.0896 21.5763 27.835 18.9905 27.8067C19.0325 25.4518 18.57 24.292 18.7382 22.8988C19.0325 22.4957 19.3479 22.3826 19.8384 22.0785C21.9757 20.7701 22.2981 20.6782 23.7837 20.2185C25.1852 19.971 27.4416 19.6528 28.9763 20.0064C29.1445 20.0417 29.1935 19.8508 29.0183 19.7871C28.4577 19.5891 26.6708 19.1577 26.0822 19.1507C26.0401 18.9597 26.2223 18.79 26.6077 18.5778C27.2524 18.2242 28.1284 17.7151 28.8501 17.5666C28.9763 17.5383 29.0534 17.3898 28.8361 17.3898C28.4647 17.3898 27.5047 17.4322 26.5657 17.7575C25.5426 18.1111 24.4984 18.6768 23.7136 18.9951C21.6464 19.285 19.1307 20.0417 19.1307 19.8932C19.1307 19.7447 21.4081 16.7179 23.0549 16.6613C23.132 16.6613 23.6295 16.5411 24.2392 16.3785C26.2013 15.8481 28.2195 15.3106 30.2867 15.4591C30.4829 15.4733 30.4829 15.2399 30.2867 15.2257C28.9483 15.1055 27.4136 15.0984 26.2644 15.2611C25.8719 15.3177 25.3884 15.2682 24.9049 15.0136C24.7017 14.3205 25.1712 13.9033 25.5706 13.38C26.2573 12.496 27.1894 11.3008 27.5888 10.7209C27.757 10.4734 27.4907 10.3178 27.3295 10.5582C26.1312 12.3121 24.8769 13.1536 23.3702 14.5185C22.8797 14.9641 18.6051 17.5312 18.6051 16.7108C18.6051 15.8693 18.9344 15.1338 18.9765 14.6317C19.0466 13.8326 19.425 13.9457 19.7613 13.6063C20.0977 13.2597 22.5994 10.735 22.3822 10.5229C22.3261 10.4592 22.27 10.5017 22.207 10.5582C21.8846 10.8482 19.8664 12.7576 19.2007 12.4818C19.1166 11.9797 19.5932 11.3079 19.8805 10.8835C20.0697 10.6077 20.2939 10.4239 20.5252 10.0986C20.7144 9.8369 20.9036 9.44087 21.2189 9.09434C22.1719 8.04769 23.125 6.64745 23.5524 6.50601C23.6295 6.47772 23.8187 6.2797 23.4894 6.34335C22.9848 6.43529 21.7235 8.04062 21.1839 8.1467C21.2189 7.5668 21.4712 6.90911 21.6113 6.32921C21.7515 5.76345 21.8776 5.24013 21.8986 4.15104C21.8986 3.98132 21.7024 3.83988 21.6884 4.14397C21.6604 4.81581 21.296 5.96147 20.9526 6.77474C20.7564 7.24149 20.6373 7.62338 20.4831 8.10427C20.364 8.45787 20.2519 8.93876 20.0767 9.257C19.6002 10.1198 19.5371 10.042 19.0325 10.629C18.7312 10.9826 18.4159 11.4705 18.1636 11.9514C18.0795 12.1141 17.5119 13.486 17.3858 13.3729C17.3087 13.3092 16.9863 12.991 16.4818 10.8906C16.3557 10.3744 16.1805 9.71668 16.0894 9.20042C15.9212 8.23864 16.2085 8.34472 16.706 7.59509C17.2596 6.76767 18.1776 5.33206 18.2687 4.67437C18.4159 3.61358 18.2197 1.32226 18.1356 0.141244C18.1286 0.05638 18.0585 -0.00726763 17.9744 -0.000195669C17.8903 0.00687629 17.8272 0.0775959 17.8343 0.162459C17.9254 1.43541 17.7572 3.05489 17.4909 4.32077C17.3788 4.83702 17.1685 5.31792 16.8812 5.7776C16.629 6.1807 16.4187 6.44943 15.8791 6.65452C14.842 6.37871 14.6178 5.79174 14.1833 4.82995C13.8399 4.06618 13.5456 3.21755 13.3985 2.63057C13.3074 2.2699 13.1602 2.01531 13.0971 1.8173C13.0481 1.67586 12.8028 1.61928 12.8869 1.8668C12.95 2.05067 13.0201 2.34062 13.1112 2.70129C13.3424 3.61358 13.7629 6.26556 14.2324 7.24856C14.4356 7.66581 14.5267 7.91333 14.4636 8.40836C14.3375 9.45501 14.0782 10.9896 13.7839 11.5412C13.2863 11.3574 12.5786 10.2046 12.4314 9.91469C12.2002 9.45501 11.7937 8.98119 11.5204 8.4508C11.3032 8.03355 11.5555 7.77896 11.6185 7.35464C11.7657 6.42114 11.8428 4.38442 11.8148 3.45799C11.8428 3.17511 11.8007 2.89931 11.8358 2.59521C11.8568 2.3972 11.6256 2.35477 11.6045 2.55278C11.5415 3.11147 11.3873 4.03082 11.156 4.55415C11.0159 4.17933 10.8337 4.02375 10.7356 3.64186C10.4623 2.61643 9.88768 1.74658 9.37612 1.26569C9.30605 1.20204 9.22896 1.18789 9.1729 1.2374C9.11684 1.29397 9.13787 1.37884 9.21495 1.44956C10.3572 3.26705 11.1701 5.64323 10.3782 6.71109C8.40207 7.46072 5.97045 4.41271 5.2767 2.68715C5.1856 2.46085 5.01041 2.51742 5.05946 2.87809C5.1856 3.86817 5.91439 5.53008 6.69923 6.03219C7.07063 6.27263 7.25984 6.52722 7.2248 6.61916C7.09866 7.01519 4.60397 6.73231 3.85416 6.66866C3.77708 6.66159 3.65795 6.64037 3.58787 6.66866C3.55984 6.68988 3.51079 6.72524 3.46874 6.76767C3.48977 6.8101 3.51079 6.84546 3.53181 6.87375C3.6089 6.97983 3.74905 6.97276 3.86818 6.99397C5.51495 7.26271 7.08465 7.63045 7.82044 7.63045C8.45112 7.62338 8.82253 7.72946 9.3551 8.01941C11.0579 8.94583 12.7958 11.2513 12.3123 13.3587C11.3242 13.5002 9.69146 12.6728 8.62631 12.008C8.26192 11.7746 7.89753 11.5766 7.72934 11.3362C7.42101 10.8906 7.30188 10.3532 7.27385 9.7096C7.27385 9.51159 7.08465 9.50452 7.08465 9.7096C7.08465 9.99955 7.08465 10.2259 7.09866 10.4097C7.11969 10.827 7.18275 10.6997 7.14071 11.0957C6.90946 11.1169 6.54507 11.0462 6.31382 10.9896C5.80226 10.8623 4.75113 10.6572 4.30265 10.6572C4.0784 10.6572 3.99431 10.8623 4.23958 10.8623C4.69507 10.8623 5.50094 11.0745 6.06154 11.2513C6.41192 11.3644 6.61514 11.4705 6.72726 11.4705C7.0356 11.4705 7.4981 11.8878 8.08673 12.3192C9.11684 13.0829 10.7356 14.1013 11.8778 15.2752C12.2352 15.643 12.2212 15.7703 11.6606 16.0178C10.9458 16.336 9.71949 16.3007 8.79449 16.2158C7.39999 16.0956 6.03351 14.7873 5.20662 13.7406C4.89829 13.3517 4.47783 12.9627 4.37272 12.7223C4.29564 12.5384 4.11344 12.6303 4.19052 12.8142C4.30265 13.0829 4.56893 13.5143 4.88427 13.9174C5.10151 14.2003 5.71117 14.8368 5.7392 15.1409C5.43787 15.2045 5.33976 15.0914 5.07348 14.9641C4.19052 14.462 3.21647 14.3064 2.69091 14.2639C2.49469 14.2427 2.47367 14.4337 2.66287 14.469C4.51988 14.8438 5.87935 15.94 7.23882 16.9301C6.46098 18.2525 3.88219 17.8777 3.00625 17.9697C2.81003 17.9909 2.83106 18.2101 3.02727 18.2101C3.09034 18.2101 3.21647 18.2172 3.40568 18.2313C4.40075 18.295 5.59904 18.4152 6.59412 18.3233C7.47707 18.2384 7.18976 18.3515 7.74336 18.394C8.85756 18.4718 9.73351 18.8395 10.4763 19.1931C11.4784 19.674 12.2562 20.2893 12.3613 20.5156C12.4665 20.7419 12.6066 21.2015 12.6487 21.7602C12.8028 23.8182 12.2913 26.6399 12.4384 27.8138C10.3782 27.8138 2.94318 28.0755 2.73295 28.4998H27.9812ZM26.6358 14.2286C26.3274 12.9273 28.1073 12.0009 29.1024 12.8001L29.1795 12.8637L29.1094 12.9344C28.9973 13.0546 28.9132 13.2244 28.8361 13.3658C28.3386 14.2852 27.7289 14.667 26.6848 14.2922L26.6358 14.2781V14.2286ZM25.8439 20.4307C26.5447 20.3812 27.2174 20.756 27.6589 21.2793C27.8831 21.541 27.9602 21.8592 28.0022 22.1916C28.0233 22.3684 28.0373 22.722 28.1214 22.8705L28.1774 22.9695L28.0723 23.0049C27.3575 23.2383 26.5447 22.913 26.0471 22.3755C25.6267 21.9158 25.3604 21.0035 25.7808 20.4661L25.8089 20.4378L25.8439 20.4307ZM6.23673 19.3204C6.18067 19.4477 6.18067 19.6245 6.15965 19.7659C6.07556 20.36 5.76022 20.8197 5.19261 21.0389C4.62499 21.2581 3.39166 21.1945 3.11837 20.5721L3.08333 20.5085L3.1464 20.4661C3.55984 20.1549 3.78409 19.5255 4.18352 19.3416C4.82821 19.0446 5.48692 19.087 6.16666 19.2072L6.27878 19.2285L6.23673 19.3204ZM3.53181 13.5143C3.5178 13.6911 3.16041 13.6982 3.02727 13.5992C2.57178 13.2527 2.34753 13.387 1.88504 13.5709C1.2053 13.8396 0.735794 13.6982 0.336363 13.0759C0.25928 12.9556 0.175189 12.8637 0.0630681 12.7788L0 12.7293L0.0350378 12.6586C0.903976 11.0462 3.69999 11.5625 3.53181 13.5143ZM6.69923 8.39422C6.53105 8.64881 6.37688 8.91755 6.18768 9.15799C5.62007 9.8864 5.23465 9.85104 4.39374 9.8369C4.12746 9.82983 3.74905 9.81568 3.48977 9.85812L3.37064 9.87933L3.38465 9.75911C3.53882 8.09013 5.36779 7.94869 6.64317 8.24571L6.76931 8.274L6.69923 8.39422ZM22.3191 5.67859C22.263 5.31085 22.3191 4.9431 22.4803 4.61072C22.9988 3.557 24.6666 2.87102 25.6127 3.71966L25.6897 3.79037L25.6127 3.86109C25.4375 4.00961 25.2833 4.40564 25.1642 4.61779C24.6596 5.52301 23.3702 6.02511 22.3892 5.75638L22.3331 5.74224L22.3191 5.67859ZM22.6064 8.93169C22.4873 7.46779 24.0289 6.8101 25.1992 7.42536C25.5426 7.60216 25.7948 7.88504 25.97 8.23157L26.0051 8.30228L25.942 8.35179C25.8789 8.40129 25.8229 8.4508 25.7738 8.50737C25.3043 9.05191 24.5125 9.17921 23.8678 8.91755C23.5664 8.79732 23.3562 8.83975 23.0899 9.03777C22.9638 9.1297 22.6204 9.10142 22.6064 8.93169ZM18.8994 2.55278C18.8083 2.19918 18.8433 1.85973 19.0396 1.54856C19.1797 1.32226 19.3969 1.13839 19.6212 1.00402C19.9786 0.791864 20.7634 0.551417 21.1418 0.798936L21.1909 0.827224L21.1839 0.883799C21.0577 2.19918 20.2659 2.83566 18.9695 2.61643L18.9134 2.60936L18.8994 2.55278ZM12.2282 8.68417C11.9759 7.75774 12.6627 6.83839 13.6788 7.10005L13.7418 7.1142V7.18492C13.7839 8.1467 13.3004 8.78318 12.3053 8.74782H12.2352L12.2282 8.68417ZM1.95511 5.55836C2.19337 5.36035 2.34053 5.14112 2.55776 4.95018C2.98522 4.55415 3.58787 4.75923 4.05738 4.95018C4.30265 5.04918 4.41477 4.90774 4.61799 4.95725L4.67405 4.97139L4.68806 5.02797C4.73711 5.30377 4.64602 5.62908 4.48484 5.84832C4.23958 6.19484 3.84015 6.32214 3.4267 6.30799C2.89412 6.28678 2.32651 6.06755 1.9481 5.69273L1.87803 5.62201L1.95511 5.55836ZM24.078 13.3163C23.0269 12.8001 23.3492 10.9543 24.4354 10.6502L24.5265 10.6219L24.5475 10.7209C24.5825 10.8835 24.7367 11.1028 24.7998 11.2937C25.01 11.9443 24.8418 13.0264 24.1481 13.3163L24.106 13.3304L24.078 13.3163ZM1.2964 16.527C1.61875 16.0319 2.05322 15.643 2.66988 15.6854C3.09734 15.7137 3.43371 15.9188 3.83314 16.0532C3.95927 16.0956 4.26761 16.1663 4.37973 16.0673C4.61799 15.8481 4.83522 16.0885 4.80018 16.3714C4.68806 17.1422 3.86117 17.6726 3.13939 17.6797C2.43163 17.6868 1.77291 17.121 1.31041 16.6472L1.26136 16.5906L1.2964 16.527ZM6.86741 2.60229C6.86741 2.52449 6.90946 2.49621 6.97954 2.48913C7.53313 2.41841 8.03067 2.55278 8.38806 2.99832C8.47215 3.09732 8.53522 3.21047 8.59828 3.32363C8.75245 3.61358 8.84355 3.91767 8.95567 4.22176C9.00472 4.34906 9.10983 4.63901 9.24999 4.68851C9.57233 4.79459 9.73351 5.02797 9.39014 5.24013C8.60529 5.73516 7.25283 5.18355 6.93749 4.32077C6.77632 3.88938 6.80435 3.35898 6.8534 2.89931C6.86741 2.8003 6.87442 2.70129 6.86741 2.60229ZM21.296 4.05204C21.0647 4.41978 20.7494 4.73095 20.2939 4.74509C19.9856 4.75923 19.7403 4.64608 19.453 4.58243C19.3619 4.56122 19.1517 4.54 19.0816 4.61072C18.8994 4.78752 18.7032 4.63901 18.7382 4.39856C18.8153 3.83988 19.418 3.41556 19.9435 3.35191C20.4481 3.29534 20.9246 3.62065 21.282 3.93889L21.345 3.98839L21.296 4.05204ZM19.2568 7.44658C18.7382 6.64037 19.1166 5.55836 20.1608 5.49472L20.2308 5.48765L20.2519 5.55129C20.5812 6.4565 20.3149 7.20613 19.3549 7.48194L19.2918 7.50315L19.2568 7.44658ZM7.21779 13.8255C8.21987 13.5002 9.49525 14.1862 9.50226 15.346V15.4237L9.42518 15.4379C8.12878 15.6359 7.37196 15.2965 7.15472 13.9316L7.14071 13.8538L7.21779 13.8255ZM8.68237 9.05898C9.36211 9.27822 10.0418 9.66717 10.21 10.4168C10.2871 10.7492 10.2591 11.0321 10.161 11.3574C10.0979 11.5695 9.9998 11.81 9.9998 12.0292V12.1565L9.88067 12.1141C8.65434 11.6968 8.08673 10.2966 8.57025 9.10849L8.60529 9.0307L8.68237 9.05898ZM22.7466 13.5002C22.6134 13.6558 22.5433 14.0447 22.3892 14.271C21.9057 14.9782 20.7003 15.5086 19.9085 15.0419L19.8735 15.0206L19.8664 14.9782C19.6002 13.5921 21.7024 12.6586 22.7325 13.3587L22.8166 13.4153L22.7466 13.5002ZM16.8322 9.90055C16.713 9.15092 17.0004 8.4508 17.638 8.04062C18.2547 7.65166 19.0886 7.6163 19.6983 8.04769L19.7964 8.11841L19.7053 8.19621C19.5371 8.34472 19.3759 8.74075 19.2568 8.9529C18.9555 9.49745 18.486 9.87226 17.8763 9.99956C17.5399 10.0703 17.2316 10.0349 16.8952 9.97127L16.8322 9.95712V9.90055ZM13.8399 2.16382C15.3045 1.42127 17.2807 2.60936 17.0354 4.27834L17.0214 4.3632L16.9373 4.35613C16.629 4.32784 16.3066 4.44807 15.9913 4.39149C15.3396 4.27127 14.786 3.98839 14.3865 3.44385C14.1062 3.06196 14.0011 2.69422 13.7979 2.28405L13.7559 2.19918L13.8399 2.16382ZM10.8057 2.24162C10.168 1.52735 10.3782 0.395834 11.4013 0.169531L11.4714 0.155387L11.5064 0.219035C11.9689 1.0606 11.8218 1.84559 10.9178 2.26283L10.8547 2.29112L10.8057 2.24162Z" fill="#017BA1"/>
<path fill-rule="evenodd" clip-rule="evenodd" d="M27.9818 28.5002C27.7786 28.9104 21.0514 29.1721 18.9911 29.2004C19.0332 31.5553 18.5707 32.7151 18.7389 34.1083C19.0332 34.5114 19.3485 34.6245 19.839 34.9286C21.9764 36.237 22.2987 36.3289 23.7843 36.7886C25.1858 37.0361 27.4423 37.3543 28.9769 37.0007C29.1451 36.9654 29.1941 37.1563 29.019 37.22C28.4584 37.418 26.6714 37.8494 26.0828 37.8564C26.0407 38.0474 26.2229 38.2171 26.6084 38.4293C27.2531 38.7899 28.129 39.292 28.8508 39.4405C28.9769 39.4688 29.054 39.6173 28.8368 39.6173C28.4654 39.6173 27.5053 39.5749 26.5663 39.2496C25.5432 38.896 24.4991 38.3303 23.7142 38.012C21.647 37.7221 19.1313 36.9583 19.1313 37.1068C19.1313 37.2553 21.4087 40.2821 23.0555 40.3387C23.1326 40.3387 23.6301 40.4589 24.2398 40.6216C26.2019 41.152 28.2201 41.6894 30.2873 41.5409C30.4835 41.5268 30.4835 41.7601 30.2873 41.7743C28.9489 41.8945 27.4142 41.9016 26.265 41.7319C25.8726 41.6753 25.389 41.7248 24.9055 41.9794C24.7023 42.6724 25.1718 43.0897 25.5712 43.613C26.258 44.497 27.19 45.6922 27.5894 46.2721C27.7576 46.5196 27.4913 46.6752 27.3301 46.4347C26.1318 44.6809 24.8775 43.8393 23.3709 42.4744C22.8803 42.0289 18.6057 39.4618 18.6057 40.2821C18.6057 41.1237 18.9351 41.8592 18.9771 42.3613C19.0472 43.1604 19.4256 43.0472 19.762 43.3867C20.0983 43.7332 22.6 46.2579 22.3828 46.4701C22.3267 46.5337 22.2707 46.4913 22.2076 46.4347C21.8853 46.1448 19.8671 44.2353 19.2014 44.5111C19.1173 45.0133 19.5938 45.6851 19.8811 46.1094C20.0703 46.3852 20.2945 46.5691 20.5258 46.9015C20.715 47.1631 20.9042 47.5592 21.2195 47.9057C22.1726 48.9523 23.1256 50.3455 23.5531 50.494C23.6301 50.5223 23.8193 50.7203 23.49 50.6567C22.9854 50.5647 21.7241 48.9594 21.1845 48.8533C21.2195 49.4332 21.4718 50.0909 21.612 50.6708C21.7521 51.2366 21.8782 51.7599 21.8993 52.849C21.8993 53.0187 21.7031 53.1601 21.689 52.8561C21.661 52.1842 21.2966 51.0386 20.9532 50.2253C20.757 49.7585 20.6379 49.3766 20.4837 48.8958C20.3646 48.5422 20.2525 48.0613 20.0773 47.743C19.6008 46.8802 19.5377 46.958 19.0332 46.3711C18.7318 46.0175 18.4165 45.5295 18.1642 45.0486C18.0801 44.886 17.5125 43.514 17.3864 43.6271C17.3093 43.6908 16.987 44.009 16.4824 46.1094C16.3563 46.6257 16.1811 47.2833 16.09 47.7996C15.9218 48.7614 16.2091 48.6553 16.7067 49.4049C17.2603 50.2324 18.1783 51.668 18.2694 52.3257C18.4235 53.3935 18.2273 55.6778 18.1432 56.8659C18.1362 56.9507 18.0661 57.0144 17.982 57.0073C17.8979 57.0002 17.8349 56.9295 17.8419 56.8446C17.933 55.5717 17.7648 53.9522 17.4985 52.6863C17.3864 52.163 17.1762 51.6892 16.8889 51.2295C16.6366 50.8264 16.4264 50.5506 15.8868 50.3526C14.8497 50.6284 14.6254 51.2154 14.1909 52.1771C13.8476 52.9409 13.5533 53.7896 13.4061 54.3765C13.315 54.7372 13.1678 54.9918 13.1048 55.1898C13.0557 55.3383 12.8105 55.3878 12.8945 55.1403C12.9576 54.9564 13.0277 54.6594 13.1188 54.3058C13.35 53.3935 13.7705 50.7415 14.24 49.7585C14.4432 49.3413 14.5343 49.0938 14.4712 48.5987C14.3451 47.5521 14.0858 46.0175 13.7915 45.4729C13.294 45.6568 12.5862 46.8095 12.4391 47.0924C12.2078 47.5521 11.8014 48.0259 11.5281 48.5634C11.3108 48.9806 11.5631 49.2352 11.6262 49.6595C11.7733 50.593 11.8504 52.6298 11.8224 53.5562C11.8504 53.8391 11.8084 54.1149 11.8434 54.419C11.8644 54.617 11.6332 54.6594 11.6122 54.4614C11.5491 53.9098 11.3949 52.9833 11.1637 52.4529C11.0235 52.8278 10.8413 52.9833 10.7432 53.3652C10.4699 54.3907 9.89531 55.2605 9.38376 55.7414C9.31368 55.8051 9.2366 55.8263 9.18054 55.7697C9.12448 55.7131 9.1455 55.6283 9.22258 55.5575C10.3648 53.74 11.1777 51.3639 10.3858 50.296C8.4097 49.5464 5.97808 52.5944 5.28433 54.3199C5.19323 54.5462 5.01804 54.4967 5.06709 54.129C5.19323 53.1389 5.92202 51.477 6.70686 50.9749C7.07827 50.7345 7.26747 50.4799 7.23243 50.3809C7.1063 49.9848 4.6116 50.2677 3.86179 50.3314C3.78471 50.3384 3.66558 50.3526 3.5955 50.3314C3.55346 50.3172 3.51141 50.2819 3.46236 50.2394C3.48338 50.197 3.50441 50.1616 3.52543 50.1333C3.60251 50.0273 3.74266 50.0343 3.86179 50.0131C5.50857 49.7444 7.07827 49.3766 7.81406 49.3766C8.44474 49.3837 8.81614 49.2776 9.34872 48.9877C11.0516 48.0683 12.7894 45.7558 12.3059 43.6484C11.3178 43.5069 9.68508 44.3343 8.61993 44.9991C8.25554 45.2325 7.89114 45.4305 7.72296 45.6709C7.41463 46.1165 7.2955 46.6539 7.26747 47.2975C7.26747 47.4955 7.07827 47.5026 7.07827 47.2975C7.07827 47.0075 7.07827 46.7812 7.09228 46.5974C7.1133 46.1801 7.17637 46.3074 7.13433 45.9114C6.90308 45.8902 6.53868 45.9609 6.30743 46.0175C5.79588 46.1448 4.74475 46.3499 4.29626 46.3499C4.07202 46.3499 3.98793 46.1448 4.23319 46.1448C4.68869 46.1448 5.49456 45.9326 6.05516 45.7558C6.40554 45.6427 6.60876 45.5366 6.72088 45.5366C7.02921 45.5366 7.49171 45.1193 8.08035 44.6879C9.11046 43.9242 10.7292 42.9058 11.8714 41.7319C12.2288 41.3641 12.2148 41.2368 11.6542 40.9893C10.9394 40.6711 9.71311 40.7064 8.78811 40.7913C7.39361 40.9115 6.02713 42.2198 5.20024 43.2665C4.8919 43.6554 4.47145 44.0444 4.36634 44.2848C4.28925 44.4687 4.10706 44.3768 4.18414 44.1929C4.29626 43.9242 4.56255 43.4928 4.87789 43.0897C5.09512 42.8068 5.70478 42.1703 5.73281 41.8662C5.43149 41.8026 5.33338 41.9228 5.06709 42.043C4.18414 42.5451 3.21009 42.7007 2.68452 42.7432C2.48831 42.7644 2.46729 42.5734 2.65649 42.5381C4.5135 42.1633 5.87296 41.0671 7.23243 40.077C6.45459 38.7546 3.87581 39.1294 2.99986 39.0374C2.80365 39.0162 2.82467 38.797 3.02088 38.797C3.08395 38.797 3.21009 38.7899 3.39929 38.7758C4.39437 38.7121 5.59266 38.5919 6.58774 38.6838C7.47069 38.7616 7.18338 38.6556 7.73698 38.6131C8.85118 38.5353 9.72713 38.1676 10.4699 37.814C11.472 37.3331 12.2498 36.7178 12.355 36.4915C12.4601 36.2652 12.6002 35.8056 12.6423 35.2469C12.7964 33.1889 12.2849 30.3672 12.432 29.1933C11.2127 29.1933 2.92278 28.9175 2.71255 28.4861H27.9818V28.5002Z" fill="#52B0D8"/>
</g>
<defs>
<clipPath id="clip0">
<rect width="276" height="57" fill="white"/>
</clipPath>
</defs>
</svg>
